%TF.GenerationSoftware,KiCad,Pcbnew,8.0.1*%
%TF.CreationDate,2024-08-07T16:32:43+02:00*%
%TF.ProjectId,TEP000,54455030-3030-42e6-9b69-6361645f7063,rev?*%
%TF.SameCoordinates,Original*%
%TF.FileFunction,Copper,L1,Top*%
%TF.FilePolarity,Positive*%
%FSLAX46Y46*%
G04 Gerber Fmt 4.6, Leading zero omitted, Abs format (unit mm)*
G04 Created by KiCad (PCBNEW 8.0.1) date 2024-08-07 16:32:43*
%MOMM*%
%LPD*%
G01*
G04 APERTURE LIST*
G04 Aperture macros list*
%AMRoundRect*
0 Rectangle with rounded corners*
0 $1 Rounding radius*
0 $2 $3 $4 $5 $6 $7 $8 $9 X,Y pos of 4 corners*
0 Add a 4 corners polygon primitive as box body*
4,1,4,$2,$3,$4,$5,$6,$7,$8,$9,$2,$3,0*
0 Add four circle primitives for the rounded corners*
1,1,$1+$1,$2,$3*
1,1,$1+$1,$4,$5*
1,1,$1+$1,$6,$7*
1,1,$1+$1,$8,$9*
0 Add four rect primitives between the rounded corners*
20,1,$1+$1,$2,$3,$4,$5,0*
20,1,$1+$1,$4,$5,$6,$7,0*
20,1,$1+$1,$6,$7,$8,$9,0*
20,1,$1+$1,$8,$9,$2,$3,0*%
%AMFreePoly0*
4,1,13,0.900000,0.500000,2.600000,0.500000,2.600000,-0.500000,0.900000,-0.500000,0.400000,-1.000000,-0.400000,-1.000000,-0.900000,-0.500000,-2.600000,-0.500000,-2.600000,0.500000,-0.900000,0.500000,-0.400000,1.000000,0.400000,1.000000,0.900000,0.500000,0.900000,0.500000,$1*%
G04 Aperture macros list end*
%TA.AperFunction,ComponentPad*%
%ADD10RoundRect,0.200100X0.949900X-0.949900X0.949900X0.949900X-0.949900X0.949900X-0.949900X-0.949900X0*%
%TD*%
%TA.AperFunction,ComponentPad*%
%ADD11C,2.500000*%
%TD*%
%TA.AperFunction,SMDPad,CuDef*%
%ADD12RoundRect,0.250000X0.450000X-0.262500X0.450000X0.262500X-0.450000X0.262500X-0.450000X-0.262500X0*%
%TD*%
%TA.AperFunction,SMDPad,CuDef*%
%ADD13RoundRect,0.250000X0.262500X0.450000X-0.262500X0.450000X-0.262500X-0.450000X0.262500X-0.450000X0*%
%TD*%
%TA.AperFunction,SMDPad,CuDef*%
%ADD14RoundRect,0.150000X-0.512500X-0.150000X0.512500X-0.150000X0.512500X0.150000X-0.512500X0.150000X0*%
%TD*%
%TA.AperFunction,SMDPad,CuDef*%
%ADD15RoundRect,0.250000X0.475000X-0.250000X0.475000X0.250000X-0.475000X0.250000X-0.475000X-0.250000X0*%
%TD*%
%TA.AperFunction,SMDPad,CuDef*%
%ADD16RoundRect,0.250000X0.250000X0.475000X-0.250000X0.475000X-0.250000X-0.475000X0.250000X-0.475000X0*%
%TD*%
%TA.AperFunction,SMDPad,CuDef*%
%ADD17RoundRect,0.175000X-0.575000X-0.175000X0.575000X-0.175000X0.575000X0.175000X-0.575000X0.175000X0*%
%TD*%
%TA.AperFunction,SMDPad,CuDef*%
%ADD18FreePoly0,0.000000*%
%TD*%
%TA.AperFunction,SMDPad,CuDef*%
%ADD19RoundRect,0.150000X-0.725000X-0.150000X0.725000X-0.150000X0.725000X0.150000X-0.725000X0.150000X0*%
%TD*%
%TA.AperFunction,SMDPad,CuDef*%
%ADD20RoundRect,0.250000X-0.475000X0.250000X-0.475000X-0.250000X0.475000X-0.250000X0.475000X0.250000X0*%
%TD*%
%TA.AperFunction,SMDPad,CuDef*%
%ADD21RoundRect,0.200000X-0.200000X0.750000X-0.200000X-0.750000X0.200000X-0.750000X0.200000X0.750000X0*%
%TD*%
%TA.AperFunction,SMDPad,CuDef*%
%ADD22RoundRect,0.250000X0.337500X0.475000X-0.337500X0.475000X-0.337500X-0.475000X0.337500X-0.475000X0*%
%TD*%
%TA.AperFunction,SMDPad,CuDef*%
%ADD23RoundRect,0.250000X-0.337500X-0.475000X0.337500X-0.475000X0.337500X0.475000X-0.337500X0.475000X0*%
%TD*%
%TA.AperFunction,ComponentPad*%
%ADD24RoundRect,0.750000X-0.750000X-0.750000X0.750000X-0.750000X0.750000X0.750000X-0.750000X0.750000X0*%
%TD*%
%TA.AperFunction,ComponentPad*%
%ADD25C,3.000000*%
%TD*%
%TA.AperFunction,ViaPad*%
%ADD26C,0.600000*%
%TD*%
%TA.AperFunction,Conductor*%
%ADD27C,0.200000*%
%TD*%
G04 APERTURE END LIST*
D10*
%TO.P,J1,1,In*%
%TO.N,Net-(J1-In)*%
X127254000Y-60426600D03*
D11*
%TO.P,J1,2,Ext*%
%TO.N,GND*%
X124714000Y-62966600D03*
X129794000Y-62966600D03*
X124714000Y-57886600D03*
X129794000Y-57886600D03*
%TD*%
D12*
%TO.P,R2,1*%
%TO.N,+5V*%
X141249400Y-90599900D03*
%TO.P,R2,2*%
%TO.N,Net-(D2-A)*%
X141249400Y-88774900D03*
%TD*%
D13*
%TO.P,R8,1*%
%TO.N,Net-(U2-FB)*%
X154110100Y-71374000D03*
%TO.P,R8,2*%
%TO.N,Net-(U2-OUT)*%
X152285100Y-71374000D03*
%TD*%
D14*
%TO.P,U1,1*%
%TO.N,Net-(C2-Pad2)*%
X120929400Y-77627400D03*
%TO.P,U1,2,V-*%
%TO.N,-3V3*%
X120929400Y-78577400D03*
%TO.P,U1,3,+*%
%TO.N,GND*%
X120929400Y-79527400D03*
%TO.P,U1,4,-*%
%TO.N,Net-(D5-A)*%
X123204400Y-79527400D03*
%TO.P,U1,5,V+*%
%TO.N,+3V3*%
X123204400Y-77627400D03*
%TD*%
D15*
%TO.P,C5,1*%
%TO.N,+5V*%
X142631200Y-67040800D03*
%TO.P,C5,2*%
%TO.N,GND*%
X142631200Y-65140800D03*
%TD*%
D12*
%TO.P,R3,1*%
%TO.N,+5V*%
X137947400Y-90599900D03*
%TO.P,R3,2*%
%TO.N,Net-(D3-A)*%
X137947400Y-88774900D03*
%TD*%
D16*
%TO.P,C2,1*%
%TO.N,Net-(D5-A)*%
X124739500Y-83612800D03*
%TO.P,C2,2*%
%TO.N,Net-(C2-Pad2)*%
X122839500Y-83612800D03*
%TD*%
D17*
%TO.P,U3,1,NC*%
%TO.N,unconnected-(U3-NC-Pad1)*%
X146816200Y-81798700D03*
D18*
%TO.P,U3,2,VSS*%
%TO.N,GND*%
X148666200Y-83298700D03*
D17*
%TO.P,U3,3,CE*%
%TO.N,+5V*%
X146816200Y-84798700D03*
%TO.P,U3,4,VIN*%
X150516200Y-84798700D03*
%TO.P,U3,5,VOUT*%
%TO.N,+3V3*%
X150516200Y-81798700D03*
%TD*%
D19*
%TO.P,U2,1,IN*%
%TO.N,+5V*%
X145034600Y-66700400D03*
%TO.P,U2,2,CAP+*%
%TO.N,Net-(U2-CAP+)*%
X145034600Y-67970400D03*
%TO.P,U2,3,GND*%
%TO.N,GND*%
X145034600Y-69240400D03*
%TO.P,U2,4,CAP-*%
%TO.N,Net-(U2-CAP-)*%
X145034600Y-70510400D03*
%TO.P,U2,5,OUT*%
%TO.N,Net-(U2-OUT)*%
X150184600Y-70510400D03*
%TO.P,U2,6,/SHDN*%
%TO.N,+5V*%
X150184600Y-69240400D03*
%TO.P,U2,7,FB*%
%TO.N,Net-(U2-FB)*%
X150184600Y-67970400D03*
%TO.P,U2,8,AGND*%
%TO.N,GND*%
X150184600Y-66700400D03*
%TD*%
D15*
%TO.P,C8,1*%
%TO.N,Net-(U4--IN)*%
X142216400Y-75000400D03*
%TO.P,C8,2*%
%TO.N,GND*%
X142216400Y-73100400D03*
%TD*%
D20*
%TO.P,C1,1*%
%TO.N,-3V3*%
X118861900Y-78573400D03*
%TO.P,C1,2*%
%TO.N,GND*%
X118861900Y-80473400D03*
%TD*%
D21*
%TO.P,U4,1,-VOUT*%
%TO.N,-3V3*%
X146187200Y-72845800D03*
%TO.P,U4,2,GND*%
%TO.N,GND*%
X144287200Y-72845800D03*
%TO.P,U4,3,-IN*%
%TO.N,Net-(U4--IN)*%
X145237200Y-75845800D03*
%TD*%
D15*
%TO.P,C6,1*%
%TO.N,+5V*%
X144622200Y-85048300D03*
%TO.P,C6,2*%
%TO.N,GND*%
X144622200Y-83148300D03*
%TD*%
D20*
%TO.P,C9,1*%
%TO.N,+3V3*%
X152674000Y-81471900D03*
%TO.P,C9,2*%
%TO.N,GND*%
X152674000Y-83371900D03*
%TD*%
D22*
%TO.P,FB1,1*%
%TO.N,+5V*%
X136952900Y-65201800D03*
%TO.P,FB1,2*%
%TO.N,Net-(J2-Pin_1)*%
X134877900Y-65201800D03*
%TD*%
D13*
%TO.P,R6,1*%
%TO.N,Net-(C2-Pad2)*%
X121146000Y-83612800D03*
%TO.P,R6,2*%
%TO.N,Net-(J1-In)*%
X119321000Y-83612800D03*
%TD*%
D16*
%TO.P,C7,1*%
%TO.N,Net-(U2-OUT)*%
X150388400Y-72567800D03*
%TO.P,C7,2*%
%TO.N,GND*%
X148488400Y-72567800D03*
%TD*%
D13*
%TO.P,R5,1*%
%TO.N,Net-(D5-A)*%
X124702000Y-81555400D03*
%TO.P,R5,2*%
%TO.N,Net-(C2-Pad2)*%
X122877000Y-81555400D03*
%TD*%
D23*
%TO.P,FB2,1*%
%TO.N,Net-(U2-OUT)*%
X152236300Y-73583800D03*
%TO.P,FB2,2*%
%TO.N,Net-(U4--IN)*%
X154311300Y-73583800D03*
%TD*%
D12*
%TO.P,R1,1*%
%TO.N,+5V*%
X134518400Y-90599900D03*
%TO.P,R1,2*%
%TO.N,Net-(D1-A)*%
X134518400Y-88774900D03*
%TD*%
D20*
%TO.P,C10,1*%
%TO.N,-3V3*%
X148310600Y-74538800D03*
%TO.P,C10,2*%
%TO.N,GND*%
X148310600Y-76438800D03*
%TD*%
%TO.P,C4,1*%
%TO.N,Net-(U2-CAP+)*%
X142631200Y-68671400D03*
%TO.P,C4,2*%
%TO.N,Net-(U2-CAP-)*%
X142631200Y-70571400D03*
%TD*%
D15*
%TO.P,C11,1*%
%TO.N,GND*%
X138963400Y-66863000D03*
%TO.P,C11,2*%
%TO.N,+5V*%
X138963400Y-64963000D03*
%TD*%
D12*
%TO.P,R4,1*%
%TO.N,+5V*%
X131165600Y-90599900D03*
%TO.P,R4,2*%
%TO.N,Net-(D4-A)*%
X131165600Y-88774900D03*
%TD*%
D24*
%TO.P,J2,1,Pin_1*%
%TO.N,Net-(J2-Pin_1)*%
X135966200Y-60350400D03*
D25*
%TO.P,J2,2,Pin_2*%
%TO.N,unconnected-(J2-Pin_2-Pad2)*%
X139776200Y-60350400D03*
%TO.P,J2,3,Pin_3*%
%TO.N,GND*%
X143586200Y-60350400D03*
%TD*%
D16*
%TO.P,C3,1*%
%TO.N,+3V3*%
X123596500Y-75586400D03*
%TO.P,C3,2*%
%TO.N,GND*%
X121696500Y-75586400D03*
%TD*%
D13*
%TO.P,R7,1*%
%TO.N,Net-(U2-FB)*%
X154135500Y-69240400D03*
%TO.P,R7,2*%
%TO.N,+5V*%
X152310500Y-69240400D03*
%TD*%
D26*
%TO.N,+5V*%
X143459200Y-84582000D03*
%TO.N,Net-(D5-A)*%
X130327400Y-69850000D03*
X137871200Y-78084200D03*
%TO.N,-3V3*%
X146354800Y-74422000D03*
X121996200Y-78663800D03*
%TO.N,Net-(J1-In)*%
X117144800Y-77114400D03*
X118160800Y-83616800D03*
%TO.N,+3V3*%
X124256800Y-78308200D03*
X154406600Y-82118200D03*
%TO.N,Net-(D2-A)*%
X137617200Y-75666600D03*
%TO.N,Net-(D3-A)*%
X136144000Y-80314800D03*
%TO.N,Net-(D1-A)*%
X133756400Y-76327000D03*
%TO.N,Net-(D4-A)*%
X132257800Y-79451200D03*
%TO.N,Net-(U4--IN)*%
X154533600Y-75361800D03*
X146202400Y-76962000D03*
%TO.N,+5V*%
X130378200Y-84124800D03*
X128193800Y-72669400D03*
X140258800Y-64947800D03*
X146456400Y-66751200D03*
X148539200Y-69037200D03*
%TO.N,Net-(D5-A)*%
X125730000Y-80518000D03*
%TO.N,Net-(C2-Pad2)*%
X121833700Y-81860200D03*
X119547700Y-77212000D03*
%TD*%
D27*
%TO.N,Net-(D5-A)*%
X130327400Y-70540400D02*
X137871200Y-78084200D01*
X130327400Y-69850000D02*
X130327400Y-70540400D01*
%TO.N,+5V*%
X143925500Y-85048300D02*
X143459200Y-84582000D01*
X144622200Y-85048300D02*
X143925500Y-85048300D01*
%TO.N,-3V3*%
X146354800Y-73013400D02*
X146187200Y-72845800D01*
X146354800Y-74422000D02*
X146354800Y-73013400D01*
X121909800Y-78577400D02*
X121996200Y-78663800D01*
X120929400Y-78577400D02*
X121909800Y-78577400D01*
%TO.N,Net-(J1-In)*%
X127177800Y-67360800D02*
X127177800Y-60350400D01*
X117144800Y-77114400D02*
X117424200Y-77114400D01*
X117424200Y-77114400D02*
X127177800Y-67360800D01*
X118164800Y-83612800D02*
X118160800Y-83616800D01*
X119321000Y-83612800D02*
X118164800Y-83612800D01*
%TO.N,Net-(U2-CAP-)*%
X144973600Y-70571400D02*
X145034600Y-70510400D01*
X142631200Y-70571400D02*
X144973600Y-70571400D01*
%TO.N,Net-(U2-CAP+)*%
X143332200Y-67970400D02*
X145034600Y-67970400D01*
X142631200Y-68671400D02*
X143332200Y-67970400D01*
%TO.N,Net-(U2-FB)*%
X154135500Y-69240400D02*
X154135500Y-71348600D01*
X154135500Y-71348600D02*
X154110100Y-71374000D01*
X152865500Y-67970400D02*
X154135500Y-69240400D01*
X150184600Y-67970400D02*
X152865500Y-67970400D01*
%TO.N,+3V3*%
X123885200Y-78308200D02*
X123204400Y-77627400D01*
X124256800Y-78308200D02*
X123885200Y-78308200D01*
X153760300Y-81471900D02*
X154406600Y-82118200D01*
X152674000Y-81471900D02*
X153760300Y-81471900D01*
X152347200Y-81798700D02*
X152674000Y-81471900D01*
X150516200Y-81798700D02*
X152347200Y-81798700D01*
%TO.N,+5V*%
X150516200Y-84798700D02*
X146816200Y-84798700D01*
X144622200Y-85048300D02*
X146566600Y-85048300D01*
X146566600Y-85048300D02*
X146816200Y-84798700D01*
X144622200Y-87227100D02*
X144622200Y-85048300D01*
X141249400Y-90599900D02*
X144622200Y-87227100D01*
X141249400Y-90599900D02*
X137947400Y-90599900D01*
X134518400Y-90599900D02*
X137947400Y-90599900D01*
X131165600Y-90599900D02*
X134518400Y-90599900D01*
%TO.N,Net-(D2-A)*%
X141249400Y-79298800D02*
X137617200Y-75666600D01*
X141249400Y-88774900D02*
X141249400Y-79298800D01*
%TO.N,Net-(D3-A)*%
X137947400Y-82118200D02*
X136144000Y-80314800D01*
X137947400Y-88774900D02*
X137947400Y-82118200D01*
%TO.N,Net-(D1-A)*%
X134518400Y-77089000D02*
X133756400Y-76327000D01*
X134518400Y-88774900D02*
X134518400Y-77089000D01*
%TO.N,Net-(D4-A)*%
X131165600Y-80543400D02*
X132257800Y-79451200D01*
X131165600Y-88774900D02*
X131165600Y-80543400D01*
%TO.N,Net-(U4--IN)*%
X154533600Y-73806100D02*
X154311300Y-73583800D01*
X154533600Y-75361800D02*
X154533600Y-73806100D01*
X145237200Y-75996800D02*
X146202400Y-76962000D01*
X145237200Y-75845800D02*
X145237200Y-75996800D01*
%TO.N,-3V3*%
X147880200Y-74538800D02*
X148310600Y-74538800D01*
X146187200Y-72845800D02*
X147880200Y-74538800D01*
%TO.N,+5V*%
X130378200Y-84124800D02*
X130378200Y-74853800D01*
X130378200Y-74853800D02*
X128193800Y-72669400D01*
X140243600Y-64963000D02*
X140258800Y-64947800D01*
X138963400Y-64963000D02*
X140243600Y-64963000D01*
X136952900Y-65201800D02*
X138724600Y-65201800D01*
X138724600Y-65201800D02*
X138963400Y-64963000D01*
%TO.N,Net-(J2-Pin_1)*%
X135966200Y-64113500D02*
X134877900Y-65201800D01*
X135966200Y-60350400D02*
X135966200Y-64113500D01*
%TO.N,+5V*%
X142971600Y-66700400D02*
X142631200Y-67040800D01*
X145034600Y-66700400D02*
X142971600Y-66700400D01*
X146456400Y-66751200D02*
X145085400Y-66751200D01*
X145085400Y-66751200D02*
X145034600Y-66700400D01*
X148793200Y-69138800D02*
X148640800Y-69138800D01*
X148640800Y-69138800D02*
X148539200Y-69037200D01*
X148894800Y-69240400D02*
X148793200Y-69138800D01*
X150184600Y-69240400D02*
X148894800Y-69240400D01*
X152310500Y-69240400D02*
X150184600Y-69240400D01*
%TO.N,Net-(U2-OUT)*%
X150184600Y-72364000D02*
X150388400Y-72567800D01*
X150184600Y-70510400D02*
X150184600Y-72364000D01*
X151048200Y-71374000D02*
X150184600Y-70510400D01*
X152285100Y-71374000D02*
X151048200Y-71374000D01*
X151404400Y-73583800D02*
X150388400Y-72567800D01*
X152236300Y-73583800D02*
X151404400Y-73583800D01*
%TO.N,Net-(U4--IN)*%
X144376600Y-75000400D02*
X145222000Y-75845800D01*
X142216400Y-75000400D02*
X144376600Y-75000400D01*
%TO.N,Net-(D5-A)*%
X125730000Y-80527400D02*
X124702000Y-81555400D01*
X125730000Y-80518000D02*
X125730000Y-80527400D01*
%TO.N,Net-(C2-Pad2)*%
X122839500Y-83612800D02*
X121146000Y-83612800D01*
%TO.N,+3V3*%
X123596500Y-77235300D02*
X123204400Y-77627400D01*
X123596500Y-75586400D02*
X123596500Y-77235300D01*
%TO.N,-3V3*%
X120925400Y-78573400D02*
X120929400Y-78577400D01*
X118861900Y-78573400D02*
X120925400Y-78573400D01*
%TO.N,Net-(C2-Pad2)*%
X119547700Y-77212000D02*
X120514000Y-77212000D01*
X122138500Y-81555400D02*
X121833700Y-81860200D01*
X122877000Y-81555400D02*
X122138500Y-81555400D01*
X120514000Y-77212000D02*
X120929400Y-77627400D01*
X122877000Y-83575300D02*
X122839500Y-83612800D01*
X122877000Y-81555400D02*
X122877000Y-83575300D01*
%TO.N,Net-(D5-A)*%
X124702000Y-83575300D02*
X124739500Y-83612800D01*
X124702000Y-81555400D02*
X124702000Y-83575300D01*
X124702000Y-81025000D02*
X124702000Y-81555400D01*
X123204400Y-79527400D02*
X124702000Y-81025000D01*
%TD*%
%TA.AperFunction,Conductor*%
%TO.N,GND*%
G36*
X121427939Y-51124032D02*
G01*
X121481993Y-51168303D01*
X121503531Y-51234770D01*
X121492375Y-51289720D01*
X121485674Y-51304392D01*
X121415129Y-51544646D01*
X121415126Y-51544657D01*
X121379492Y-51792502D01*
X121379492Y-52042897D01*
X121415126Y-52290742D01*
X121415129Y-52290753D01*
X121485674Y-52531007D01*
X121589685Y-52758760D01*
X121589694Y-52758777D01*
X121725066Y-52969419D01*
X121725072Y-52969426D01*
X121889040Y-53158657D01*
X121889042Y-53158659D01*
X122078273Y-53322627D01*
X122078280Y-53322633D01*
X122288922Y-53458005D01*
X122288939Y-53458014D01*
X122516692Y-53562025D01*
X122516696Y-53562026D01*
X122516698Y-53562027D01*
X122756952Y-53632572D01*
X122756954Y-53632572D01*
X122756957Y-53632573D01*
X122805851Y-53639602D01*
X123004801Y-53668208D01*
X123004802Y-53668208D01*
X145703859Y-53668208D01*
X145704104Y-53668192D01*
X145755195Y-53668192D01*
X145755198Y-53668192D01*
X145958625Y-53638943D01*
X146003039Y-53632558D01*
X146003040Y-53632557D01*
X146003044Y-53632557D01*
X146243297Y-53562012D01*
X146243300Y-53562010D01*
X146243302Y-53562010D01*
X146471052Y-53458000D01*
X146471056Y-53457997D01*
X146471064Y-53457994D01*
X146681710Y-53322620D01*
X146870946Y-53158646D01*
X147034920Y-52969410D01*
X147170294Y-52758764D01*
X147170297Y-52758756D01*
X147170300Y-52758752D01*
X147274310Y-52531002D01*
X147274310Y-52531000D01*
X147274312Y-52530997D01*
X147344857Y-52290744D01*
X147380492Y-52042898D01*
X147380492Y-51792502D01*
X147344857Y-51544656D01*
X147274312Y-51304403D01*
X147269566Y-51294012D01*
X147267604Y-51289714D01*
X147257661Y-51220555D01*
X147286687Y-51157000D01*
X147345466Y-51119226D01*
X147415335Y-51119227D01*
X147464170Y-51146780D01*
X147557632Y-51232423D01*
X147565270Y-51240060D01*
X147726655Y-51416181D01*
X147823159Y-51521497D01*
X147830108Y-51529780D01*
X147841524Y-51544657D01*
X148062472Y-51832602D01*
X148068677Y-51841463D01*
X148273771Y-52163397D01*
X148279179Y-52172765D01*
X148455427Y-52511335D01*
X148459996Y-52521132D01*
X148606071Y-52873792D01*
X148609768Y-52883948D01*
X148724548Y-53247986D01*
X148727347Y-53258433D01*
X148809964Y-53631093D01*
X148809965Y-53631095D01*
X148811843Y-53641749D01*
X148861664Y-54020179D01*
X148862607Y-54030956D01*
X148879382Y-54415197D01*
X148879500Y-54420605D01*
X148879500Y-60082607D01*
X148876875Y-60107987D01*
X148876609Y-60109257D01*
X148876609Y-60109259D01*
X148879308Y-60157688D01*
X148879500Y-60164588D01*
X148879500Y-60213096D01*
X148879837Y-60214352D01*
X148883869Y-60239536D01*
X148883941Y-60240839D01*
X148899080Y-60286913D01*
X148901050Y-60293523D01*
X148913608Y-60340388D01*
X148913610Y-60340392D01*
X148914262Y-60341521D01*
X148924668Y-60364787D01*
X148925079Y-60366037D01*
X148925081Y-60366042D01*
X148951639Y-60406644D01*
X148955253Y-60412520D01*
X148979497Y-60454511D01*
X148979498Y-60454512D01*
X148979500Y-60454515D01*
X148980415Y-60455430D01*
X148996506Y-60475233D01*
X148997220Y-60476324D01*
X148997224Y-60476328D01*
X149033383Y-60508669D01*
X149038398Y-60513413D01*
X149072684Y-60547700D01*
X149079129Y-60552645D01*
X149078880Y-60552969D01*
X149091068Y-60561992D01*
X149720830Y-61149562D01*
X149724568Y-61153199D01*
X150370177Y-61808448D01*
X150373757Y-61812238D01*
X150879429Y-62370583D01*
X150991251Y-62494052D01*
X150994669Y-62497990D01*
X151582932Y-63205136D01*
X151586182Y-63209213D01*
X152144231Y-63940511D01*
X152147306Y-63944722D01*
X152674095Y-64698803D01*
X152676991Y-64703140D01*
X153171611Y-65478701D01*
X153174322Y-65483155D01*
X153635909Y-66278839D01*
X153638430Y-66283403D01*
X154066153Y-67097782D01*
X154068480Y-67102448D01*
X154427942Y-67862908D01*
X154438795Y-67931930D01*
X154410609Y-67995862D01*
X154352333Y-68034407D01*
X154315835Y-68039900D01*
X153835597Y-68039900D01*
X153768558Y-68020215D01*
X153747916Y-68003581D01*
X153353090Y-67608755D01*
X153353088Y-67608752D01*
X153234217Y-67489881D01*
X153234209Y-67489875D01*
X153110643Y-67418535D01*
X153110640Y-67418534D01*
X153110631Y-67418529D01*
X153097285Y-67410823D01*
X152944557Y-67369899D01*
X152786443Y-67369899D01*
X152778847Y-67369899D01*
X152778831Y-67369900D01*
X151430408Y-67369900D01*
X151363369Y-67350215D01*
X151342726Y-67333580D01*
X151311470Y-67302323D01*
X151311462Y-67302317D01*
X151169996Y-67218655D01*
X151169993Y-67218654D01*
X151012173Y-67172802D01*
X151012167Y-67172801D01*
X150975301Y-67169900D01*
X150975294Y-67169900D01*
X149393906Y-67169900D01*
X149393898Y-67169900D01*
X149357032Y-67172801D01*
X149357026Y-67172802D01*
X149199206Y-67218654D01*
X149199203Y-67218655D01*
X149057737Y-67302317D01*
X149057729Y-67302323D01*
X148941523Y-67418529D01*
X148941519Y-67418535D01*
X148857855Y-67560003D01*
X148857854Y-67560006D01*
X148812002Y-67717826D01*
X148812001Y-67717832D01*
X148809100Y-67754698D01*
X148809100Y-68123288D01*
X148789415Y-68190327D01*
X148736611Y-68236082D01*
X148671218Y-68246508D01*
X148539205Y-68231635D01*
X148539196Y-68231635D01*
X148359950Y-68251830D01*
X148359945Y-68251831D01*
X148189676Y-68311411D01*
X148036937Y-68407384D01*
X147909384Y-68534937D01*
X147813411Y-68687676D01*
X147753831Y-68857945D01*
X147753830Y-68857950D01*
X147733635Y-69037196D01*
X147733635Y-69037203D01*
X147753830Y-69216449D01*
X147753831Y-69216454D01*
X147813411Y-69386723D01*
X147893457Y-69514114D01*
X147909384Y-69539462D01*
X148036938Y-69667016D01*
X148109804Y-69712801D01*
X148135091Y-69728690D01*
X148189678Y-69762989D01*
X148347422Y-69818186D01*
X148359945Y-69822568D01*
X148359950Y-69822569D01*
X148539196Y-69842765D01*
X148539200Y-69842765D01*
X148539202Y-69842765D01*
X148571573Y-69839117D01*
X148715469Y-69822904D01*
X148761443Y-69826350D01*
X148823594Y-69843004D01*
X148822903Y-69845579D01*
X148874772Y-69868519D01*
X148913249Y-69926840D01*
X148914086Y-69996705D01*
X148901431Y-70026319D01*
X148857857Y-70099999D01*
X148857854Y-70100006D01*
X148812002Y-70257826D01*
X148812001Y-70257832D01*
X148809100Y-70294698D01*
X148809100Y-70726101D01*
X148812001Y-70762967D01*
X148812002Y-70762973D01*
X148857854Y-70920793D01*
X148857855Y-70920796D01*
X148941517Y-71062262D01*
X148941523Y-71062270D01*
X149057729Y-71178476D01*
X149057733Y-71178479D01*
X149057735Y-71178481D01*
X149199202Y-71262144D01*
X149240824Y-71274236D01*
X149357026Y-71307997D01*
X149357029Y-71307997D01*
X149357031Y-71307998D01*
X149393906Y-71310900D01*
X149460100Y-71310900D01*
X149527139Y-71330585D01*
X149572894Y-71383389D01*
X149584100Y-71434900D01*
X149584100Y-71534370D01*
X149564415Y-71601409D01*
X149547781Y-71622051D01*
X149545689Y-71624142D01*
X149453587Y-71773463D01*
X149453586Y-71773466D01*
X149398401Y-71940003D01*
X149398401Y-71940004D01*
X149398400Y-71940004D01*
X149387900Y-72042783D01*
X149387900Y-73092801D01*
X149387901Y-73092819D01*
X149398400Y-73195596D01*
X149398401Y-73195599D01*
X149432737Y-73299216D01*
X149453586Y-73362134D01*
X149545688Y-73511456D01*
X149669744Y-73635512D01*
X149819066Y-73727614D01*
X149985603Y-73782799D01*
X150088391Y-73793300D01*
X150688408Y-73793299D01*
X150698976Y-73792219D01*
X150767668Y-73804987D01*
X150799261Y-73827896D01*
X150919539Y-73948174D01*
X150919549Y-73948185D01*
X150923879Y-73952515D01*
X150923880Y-73952516D01*
X151035684Y-74064320D01*
X151095614Y-74098920D01*
X151143830Y-74149487D01*
X151156973Y-74193705D01*
X151158800Y-74211589D01*
X151158801Y-74211597D01*
X151213985Y-74378131D01*
X151213987Y-74378136D01*
X151228530Y-74401714D01*
X151306088Y-74527456D01*
X151430144Y-74651512D01*
X151579466Y-74743614D01*
X151746003Y-74798799D01*
X151848791Y-74809300D01*
X152623808Y-74809299D01*
X152623816Y-74809298D01*
X152623819Y-74809298D01*
X152680102Y-74803548D01*
X152726597Y-74798799D01*
X152893134Y-74743614D01*
X153042456Y-74651512D01*
X153166512Y-74527456D01*
X153168261Y-74524619D01*
X153169969Y-74523083D01*
X153170993Y-74521789D01*
X153171214Y-74521963D01*
X153220206Y-74477896D01*
X153289168Y-74466672D01*
X153353251Y-74494513D01*
X153379337Y-74524617D01*
X153381088Y-74527456D01*
X153505144Y-74651512D01*
X153654466Y-74743614D01*
X153770965Y-74782218D01*
X153828409Y-74821989D01*
X153855232Y-74886505D01*
X153842917Y-74955281D01*
X153836955Y-74965893D01*
X153807811Y-75012275D01*
X153748231Y-75182545D01*
X153748230Y-75182550D01*
X153728035Y-75361796D01*
X153728035Y-75361803D01*
X153748230Y-75541049D01*
X153748231Y-75541054D01*
X153807811Y-75711323D01*
X153812671Y-75719057D01*
X153903784Y-75864062D01*
X154031338Y-75991616D01*
X154184078Y-76087589D01*
X154308991Y-76131298D01*
X154354345Y-76147168D01*
X154354350Y-76147169D01*
X154533596Y-76167365D01*
X154533600Y-76167365D01*
X154533604Y-76167365D01*
X154712849Y-76147169D01*
X154712852Y-76147168D01*
X154712855Y-76147168D01*
X154883122Y-76087589D01*
X155035862Y-75991616D01*
X155163416Y-75864062D01*
X155259389Y-75711322D01*
X155318968Y-75541055D01*
X155326567Y-75473612D01*
X155339165Y-75361803D01*
X155339165Y-75361796D01*
X155318969Y-75182550D01*
X155318968Y-75182545D01*
X155306806Y-75147788D01*
X155259389Y-75012278D01*
X155252137Y-75000737D01*
X155204085Y-74924262D01*
X155163416Y-74859538D01*
X155163414Y-74859536D01*
X155163413Y-74859534D01*
X155161150Y-74856696D01*
X155160259Y-74854515D01*
X155159711Y-74853642D01*
X155159864Y-74853545D01*
X155134744Y-74792009D01*
X155134100Y-74779387D01*
X155134100Y-74686230D01*
X155153785Y-74619191D01*
X155170419Y-74598549D01*
X155197076Y-74571892D01*
X155241512Y-74527456D01*
X155333614Y-74378134D01*
X155388799Y-74211597D01*
X155399300Y-74108809D01*
X155399299Y-73058792D01*
X155388799Y-72956003D01*
X155333614Y-72789466D01*
X155241512Y-72640144D01*
X155117456Y-72516088D01*
X155012946Y-72451626D01*
X154966223Y-72399679D01*
X154955000Y-72330716D01*
X154972504Y-72280994D01*
X155057414Y-72143334D01*
X155112599Y-71976797D01*
X155123100Y-71874009D01*
X155123099Y-70873992D01*
X155122834Y-70871401D01*
X155112599Y-70771203D01*
X155112598Y-70771200D01*
X155109872Y-70762973D01*
X155057414Y-70604666D01*
X154965312Y-70455344D01*
X154917549Y-70407581D01*
X154884064Y-70346258D01*
X154889048Y-70276566D01*
X154917549Y-70232219D01*
X154950250Y-70199518D01*
X154990712Y-70159056D01*
X155059474Y-70047573D01*
X155111420Y-70000850D01*
X155180383Y-69989627D01*
X155244465Y-70017470D01*
X155282895Y-70074206D01*
X155432362Y-70532279D01*
X155433875Y-70537270D01*
X155682194Y-71422972D01*
X155683496Y-71428020D01*
X155894371Y-72323418D01*
X155895459Y-72328518D01*
X156068497Y-73231957D01*
X156069370Y-73237098D01*
X156204274Y-74147022D01*
X156204930Y-74152194D01*
X156301462Y-75066988D01*
X156301900Y-75072184D01*
X156359886Y-75990205D01*
X156360106Y-75995415D01*
X156379447Y-76915101D01*
X156379447Y-76920315D01*
X156360106Y-77840001D01*
X156359886Y-77845211D01*
X156301900Y-78763235D01*
X156301462Y-78768431D01*
X156204931Y-79683219D01*
X156204275Y-79688391D01*
X156069370Y-80598318D01*
X156068497Y-80603459D01*
X155895458Y-81506903D01*
X155894370Y-81512002D01*
X155683499Y-82407390D01*
X155682197Y-82412439D01*
X155433876Y-83298146D01*
X155432363Y-83303137D01*
X155147019Y-84177637D01*
X155145298Y-84182558D01*
X154823444Y-85044284D01*
X154821517Y-85049130D01*
X154463726Y-85896549D01*
X154461598Y-85901309D01*
X154068481Y-86732968D01*
X154066154Y-86737634D01*
X153638432Y-87552014D01*
X153635911Y-87556578D01*
X153174324Y-88352262D01*
X153171613Y-88356716D01*
X152676992Y-89132277D01*
X152674096Y-89136614D01*
X152147299Y-89890707D01*
X152144224Y-89894917D01*
X151586193Y-90626192D01*
X151582943Y-90630270D01*
X150994671Y-91337427D01*
X150991253Y-91341365D01*
X150373748Y-92023192D01*
X150370167Y-92026982D01*
X149724580Y-92682206D01*
X149720844Y-92685843D01*
X149091077Y-93273419D01*
X149078882Y-93282448D01*
X149079130Y-93282770D01*
X149072685Y-93287715D01*
X149038394Y-93322005D01*
X149033384Y-93326744D01*
X148997218Y-93359093D01*
X148997217Y-93359094D01*
X148996498Y-93360194D01*
X148980431Y-93379968D01*
X148979505Y-93380893D01*
X148979500Y-93380900D01*
X148955243Y-93422912D01*
X148951631Y-93428785D01*
X148925078Y-93469379D01*
X148925077Y-93469382D01*
X148924667Y-93470630D01*
X148914266Y-93493888D01*
X148913610Y-93495024D01*
X148913604Y-93495037D01*
X148901052Y-93541883D01*
X148899082Y-93548493D01*
X148883942Y-93594571D01*
X148883941Y-93594576D01*
X148883869Y-93595879D01*
X148879837Y-93621061D01*
X148879501Y-93622314D01*
X148879500Y-93622323D01*
X148879500Y-93670826D01*
X148879308Y-93677725D01*
X148876609Y-93726155D01*
X148876609Y-93726157D01*
X148876875Y-93727428D01*
X148879500Y-93752806D01*
X148879500Y-99415000D01*
X148879382Y-99420409D01*
X148862613Y-99804457D01*
X148861670Y-99815233D01*
X148811848Y-100193663D01*
X148809970Y-100204316D01*
X148727354Y-100576975D01*
X148724554Y-100587425D01*
X148609772Y-100951464D01*
X148606072Y-100961629D01*
X148460000Y-101314277D01*
X148455428Y-101324081D01*
X148279177Y-101662655D01*
X148273768Y-101672023D01*
X148068687Y-101993934D01*
X148062483Y-102002795D01*
X147830103Y-102305638D01*
X147823149Y-102313925D01*
X147565287Y-102595332D01*
X147557638Y-102602982D01*
X147464164Y-102688634D01*
X147401438Y-102719412D01*
X147332030Y-102711392D01*
X147277977Y-102667120D01*
X147256439Y-102600653D01*
X147267598Y-102545697D01*
X147274312Y-102530997D01*
X147344857Y-102290744D01*
X147380492Y-102042898D01*
X147380492Y-101792502D01*
X147344857Y-101544656D01*
X147274312Y-101304403D01*
X147274310Y-101304398D01*
X147274310Y-101304397D01*
X147170300Y-101076647D01*
X147170291Y-101076631D01*
X147034920Y-100865990D01*
X146870946Y-100676753D01*
X146681709Y-100512779D01*
X146471068Y-100377408D01*
X146471052Y-100377399D01*
X146243302Y-100273389D01*
X146003049Y-100202844D01*
X146003039Y-100202841D01*
X145800629Y-100173740D01*
X145755198Y-100167208D01*
X145755196Y-100167208D01*
X123181378Y-100167208D01*
X123181324Y-100167192D01*
X123130000Y-100167192D01*
X123004801Y-100167192D01*
X122979792Y-100170787D01*
X122756957Y-100202826D01*
X122756946Y-100202829D01*
X122516692Y-100273374D01*
X122288939Y-100377385D01*
X122288922Y-100377394D01*
X122078280Y-100512766D01*
X122078273Y-100512772D01*
X121889042Y-100676740D01*
X121889040Y-100676742D01*
X121725072Y-100865973D01*
X121725066Y-100865980D01*
X121589694Y-101076622D01*
X121589685Y-101076639D01*
X121485674Y-101304392D01*
X121415129Y-101544646D01*
X121415126Y-101544657D01*
X121379492Y-101792502D01*
X121379492Y-102042897D01*
X121415126Y-102290742D01*
X121415129Y-102290753D01*
X121458481Y-102438395D01*
X121485673Y-102531002D01*
X121492381Y-102545691D01*
X121502325Y-102614848D01*
X121473301Y-102678404D01*
X121414523Y-102716179D01*
X121344653Y-102716179D01*
X121295815Y-102688625D01*
X121202356Y-102602987D01*
X121194712Y-102595343D01*
X120936839Y-102313924D01*
X120929890Y-102305643D01*
X120697510Y-102002800D01*
X120691306Y-101993939D01*
X120592826Y-101839357D01*
X120486222Y-101672023D01*
X120480815Y-101662659D01*
X120480813Y-101662655D01*
X120304561Y-101324078D01*
X120299992Y-101314281D01*
X120153914Y-100961617D01*
X120150225Y-100951482D01*
X120035436Y-100587418D01*
X120032642Y-100576993D01*
X119950019Y-100204309D01*
X119948143Y-100193664D01*
X119935636Y-100098663D01*
X119898319Y-99815213D01*
X119897379Y-99804479D01*
X119880618Y-99420593D01*
X119880500Y-99415184D01*
X119880500Y-93752807D01*
X119883125Y-93727429D01*
X119883125Y-93727428D01*
X119883391Y-93726157D01*
X119880692Y-93677725D01*
X119880500Y-93670827D01*
X119880500Y-93622326D01*
X119880500Y-93622324D01*
X119880162Y-93621061D01*
X119876130Y-93595870D01*
X119876058Y-93594577D01*
X119875257Y-93592139D01*
X119860917Y-93548498D01*
X119858945Y-93541883D01*
X119846392Y-93495030D01*
X119845741Y-93493902D01*
X119835322Y-93470602D01*
X119834920Y-93469380D01*
X119834920Y-93469379D01*
X119808364Y-93428780D01*
X119804755Y-93422913D01*
X119780500Y-93380902D01*
X119779583Y-93379985D01*
X119763493Y-93360183D01*
X119763447Y-93360114D01*
X119762780Y-93359093D01*
X119762775Y-93359089D01*
X119762774Y-93359087D01*
X119726615Y-93326745D01*
X119721600Y-93322002D01*
X119687316Y-93287718D01*
X119687314Y-93287716D01*
X119687311Y-93287714D01*
X119680871Y-93282772D01*
X119681119Y-93282447D01*
X119668931Y-93273425D01*
X119039169Y-92685854D01*
X119035432Y-92682217D01*
X119035421Y-92682206D01*
X118389823Y-92026968D01*
X118386243Y-92023178D01*
X118197959Y-91815282D01*
X117768738Y-91341353D01*
X117765362Y-91337465D01*
X117177044Y-90630251D01*
X117173809Y-90626191D01*
X116615756Y-89894888D01*
X116612703Y-89890706D01*
X116597359Y-89868742D01*
X116123338Y-89190196D01*
X116085906Y-89136613D01*
X116083010Y-89132276D01*
X115588390Y-88356715D01*
X115585679Y-88352261D01*
X115281308Y-87827586D01*
X115124085Y-87556565D01*
X115121571Y-87552013D01*
X114992443Y-87306155D01*
X114839359Y-87014683D01*
X114693849Y-86737633D01*
X114691522Y-86732967D01*
X114409760Y-86136885D01*
X114298396Y-85901288D01*
X114296286Y-85896568D01*
X113938483Y-85049122D01*
X113936561Y-85044289D01*
X113614695Y-84182530D01*
X113612984Y-84177637D01*
X113327636Y-83303119D01*
X113326137Y-83298177D01*
X113077808Y-82412439D01*
X113076507Y-82407395D01*
X113076059Y-82405494D01*
X112865628Y-81511981D01*
X112864544Y-81506898D01*
X112842616Y-81392411D01*
X112691504Y-80603444D01*
X112690634Y-80598318D01*
X112671817Y-80471401D01*
X112555729Y-79688391D01*
X112555073Y-79683219D01*
X112540755Y-79547535D01*
X112458539Y-78768396D01*
X112458106Y-78763265D01*
X112400116Y-77845184D01*
X112399899Y-77840027D01*
X112384639Y-77114403D01*
X116339235Y-77114403D01*
X116359430Y-77293649D01*
X116359431Y-77293654D01*
X116419011Y-77463923D01*
X116503534Y-77598440D01*
X116514984Y-77616662D01*
X116642538Y-77744216D01*
X116650690Y-77749338D01*
X116794978Y-77840001D01*
X116795278Y-77840189D01*
X116836874Y-77854744D01*
X116965545Y-77899768D01*
X116965550Y-77899769D01*
X117144796Y-77919965D01*
X117144800Y-77919965D01*
X117144804Y-77919965D01*
X117324049Y-77899769D01*
X117324052Y-77899768D01*
X117324055Y-77899768D01*
X117494322Y-77840189D01*
X117494622Y-77840001D01*
X117547258Y-77806927D01*
X117614495Y-77787926D01*
X117681330Y-77808293D01*
X117726544Y-77861561D01*
X117735783Y-77930817D01*
X117718770Y-77977016D01*
X117702086Y-78004066D01*
X117646901Y-78170603D01*
X117646901Y-78170604D01*
X117646900Y-78170604D01*
X117636400Y-78273383D01*
X117636400Y-78873401D01*
X117636401Y-78873419D01*
X117646900Y-78976196D01*
X117646901Y-78976199D01*
X117688481Y-79101676D01*
X117702086Y-79142734D01*
X117794188Y-79292056D01*
X117918244Y-79416112D01*
X118067566Y-79508214D01*
X118234103Y-79563399D01*
X118336891Y-79573900D01*
X119386908Y-79573899D01*
X119386916Y-79573898D01*
X119386919Y-79573898D01*
X119443202Y-79568148D01*
X119489697Y-79563399D01*
X119656234Y-79508214D01*
X119805556Y-79416112D01*
X119922614Y-79299053D01*
X119983933Y-79265571D01*
X120053625Y-79270555D01*
X120073408Y-79280002D01*
X120156502Y-79329144D01*
X120198124Y-79341236D01*
X120314326Y-79374997D01*
X120314329Y-79374997D01*
X120314331Y-79374998D01*
X120351206Y-79377900D01*
X120351214Y-79377900D01*
X121507586Y-79377900D01*
X121507594Y-79377900D01*
X121544469Y-79374998D01*
X121545023Y-79374837D01*
X121545347Y-79374837D01*
X121550702Y-79373860D01*
X121550883Y-79374852D01*
X121614890Y-79375026D01*
X121645605Y-79388915D01*
X121646678Y-79389589D01*
X121769782Y-79432665D01*
X121816945Y-79449168D01*
X121816950Y-79449169D01*
X121931283Y-79462051D01*
X121995697Y-79489117D01*
X122035252Y-79546712D01*
X122041400Y-79585271D01*
X122041400Y-79743101D01*
X122044301Y-79779967D01*
X122044302Y-79779973D01*
X122090154Y-79937793D01*
X122090155Y-79937796D01*
X122173817Y-80079262D01*
X122173823Y-80079270D01*
X122290029Y-80195476D01*
X122290038Y-80195483D01*
X122302683Y-80202961D01*
X122350368Y-80254029D01*
X122362873Y-80322771D01*
X122336228Y-80387361D01*
X122300464Y-80415418D01*
X122301313Y-80416795D01*
X122295167Y-80420585D01*
X122295166Y-80420586D01*
X122255520Y-80445040D01*
X122145842Y-80512689D01*
X122021789Y-80636742D01*
X121929687Y-80786063D01*
X121929685Y-80786068D01*
X121874501Y-80952601D01*
X121873083Y-80959228D01*
X121871661Y-80958923D01*
X121848183Y-81016447D01*
X121790997Y-81056591D01*
X121765115Y-81062361D01*
X121654450Y-81074830D01*
X121484178Y-81134410D01*
X121331437Y-81230384D01*
X121203884Y-81357937D01*
X121107911Y-81510676D01*
X121048331Y-81680945D01*
X121048330Y-81680950D01*
X121028135Y-81860196D01*
X121028135Y-81860203D01*
X121048330Y-82039449D01*
X121048331Y-82039454D01*
X121107910Y-82209721D01*
X121115831Y-82222326D01*
X121134832Y-82289563D01*
X121114465Y-82356398D01*
X121061198Y-82401613D01*
X121010839Y-82412300D01*
X120833499Y-82412300D01*
X120833480Y-82412301D01*
X120730703Y-82422800D01*
X120730700Y-82422801D01*
X120564168Y-82477985D01*
X120564163Y-82477987D01*
X120414842Y-82570089D01*
X120321181Y-82663751D01*
X120259858Y-82697236D01*
X120190166Y-82692252D01*
X120145819Y-82663751D01*
X120052157Y-82570089D01*
X120052156Y-82570088D01*
X119953680Y-82509348D01*
X119902836Y-82477987D01*
X119902831Y-82477985D01*
X119890974Y-82474056D01*
X119736297Y-82422801D01*
X119736295Y-82422800D01*
X119633510Y-82412300D01*
X119008498Y-82412300D01*
X119008480Y-82412301D01*
X118905703Y-82422800D01*
X118905700Y-82422801D01*
X118739168Y-82477985D01*
X118739163Y-82477987D01*
X118589842Y-82570089D01*
X118465788Y-82694143D01*
X118465785Y-82694147D01*
X118419721Y-82768829D01*
X118367773Y-82815554D01*
X118300300Y-82826952D01*
X118160804Y-82811235D01*
X118160796Y-82811235D01*
X117981550Y-82831430D01*
X117981545Y-82831431D01*
X117811276Y-82891011D01*
X117658537Y-82986984D01*
X117530984Y-83114537D01*
X117435011Y-83267276D01*
X117375431Y-83437545D01*
X117375430Y-83437550D01*
X117355235Y-83616796D01*
X117355235Y-83616803D01*
X117375430Y-83796049D01*
X117375431Y-83796054D01*
X117435011Y-83966323D01*
X117511498Y-84088051D01*
X117530984Y-84119062D01*
X117658538Y-84246616D01*
X117730879Y-84292071D01*
X117797164Y-84333721D01*
X117811278Y-84342589D01*
X117943719Y-84388932D01*
X117981545Y-84402168D01*
X117981550Y-84402169D01*
X118160796Y-84422365D01*
X118160800Y-84422365D01*
X118160804Y-84422365D01*
X118304914Y-84406128D01*
X118373736Y-84418183D01*
X118424335Y-84464250D01*
X118465788Y-84531456D01*
X118589844Y-84655512D01*
X118739166Y-84747614D01*
X118905703Y-84802799D01*
X119008491Y-84813300D01*
X119633508Y-84813299D01*
X119633516Y-84813298D01*
X119633519Y-84813298D01*
X119689802Y-84807548D01*
X119736297Y-84802799D01*
X119902834Y-84747614D01*
X120052156Y-84655512D01*
X120145819Y-84561849D01*
X120207142Y-84528364D01*
X120276834Y-84533348D01*
X120321181Y-84561849D01*
X120414844Y-84655512D01*
X120564166Y-84747614D01*
X120730703Y-84802799D01*
X120833491Y-84813300D01*
X121458508Y-84813299D01*
X121458516Y-84813298D01*
X121458519Y-84813298D01*
X121514802Y-84807548D01*
X121561297Y-84802799D01*
X121727834Y-84747614D01*
X121877156Y-84655512D01*
X121898818Y-84633849D01*
X121960140Y-84600364D01*
X122029831Y-84605347D01*
X122074181Y-84633849D01*
X122120844Y-84680512D01*
X122270166Y-84772614D01*
X122436703Y-84827799D01*
X122539491Y-84838300D01*
X123139508Y-84838299D01*
X123139516Y-84838298D01*
X123139519Y-84838298D01*
X123195802Y-84832548D01*
X123242297Y-84827799D01*
X123408834Y-84772614D01*
X123558156Y-84680512D01*
X123682212Y-84556456D01*
X123683961Y-84553619D01*
X123685669Y-84552083D01*
X123686693Y-84550789D01*
X123686914Y-84550963D01*
X123735906Y-84506896D01*
X123804868Y-84495672D01*
X123868951Y-84523513D01*
X123895037Y-84553617D01*
X123896788Y-84556456D01*
X124020844Y-84680512D01*
X124170166Y-84772614D01*
X124336703Y-84827799D01*
X124439491Y-84838300D01*
X125039508Y-84838299D01*
X125039516Y-84838298D01*
X125039519Y-84838298D01*
X125095802Y-84832548D01*
X125142297Y-84827799D01*
X125308834Y-84772614D01*
X125458156Y-84680512D01*
X125582212Y-84556456D01*
X125674314Y-84407134D01*
X125729499Y-84240597D01*
X125740000Y-84137809D01*
X125739999Y-83087792D01*
X125729499Y-82985003D01*
X125674314Y-82818466D01*
X125582212Y-82669144D01*
X125559849Y-82646781D01*
X125526364Y-82585458D01*
X125531348Y-82515766D01*
X125553914Y-82480652D01*
X125552734Y-82479719D01*
X125557205Y-82474062D01*
X125557212Y-82474056D01*
X125649314Y-82324734D01*
X125704499Y-82158197D01*
X125715000Y-82055409D01*
X125714999Y-81442996D01*
X125734683Y-81375958D01*
X125751313Y-81355321D01*
X125759129Y-81347505D01*
X125820450Y-81314022D01*
X125832926Y-81311968D01*
X125909249Y-81303369D01*
X125909252Y-81303368D01*
X125909255Y-81303368D01*
X126079522Y-81243789D01*
X126232262Y-81147816D01*
X126359816Y-81020262D01*
X126455789Y-80867522D01*
X126515368Y-80697255D01*
X126523037Y-80629189D01*
X126535565Y-80518003D01*
X126535565Y-80517996D01*
X126515369Y-80338750D01*
X126515368Y-80338745D01*
X126487186Y-80258206D01*
X126455789Y-80168478D01*
X126359816Y-80015738D01*
X126232262Y-79888184D01*
X126131927Y-79825139D01*
X126079523Y-79792211D01*
X125909254Y-79732631D01*
X125909249Y-79732630D01*
X125730004Y-79712435D01*
X125729996Y-79712435D01*
X125550750Y-79732630D01*
X125550745Y-79732631D01*
X125380476Y-79792211D01*
X125227737Y-79888184D01*
X125100184Y-80015737D01*
X125004211Y-80168476D01*
X124989164Y-80211480D01*
X124948442Y-80268256D01*
X124883489Y-80294003D01*
X124814928Y-80280547D01*
X124784441Y-80258206D01*
X124400666Y-79874431D01*
X124367181Y-79813108D01*
X124364729Y-79777026D01*
X124367400Y-79743094D01*
X124367400Y-79311706D01*
X124364498Y-79274831D01*
X124356079Y-79245852D01*
X124356278Y-79175985D01*
X124394219Y-79117315D01*
X124434201Y-79094216D01*
X124436051Y-79093568D01*
X124436055Y-79093568D01*
X124606322Y-79033989D01*
X124759062Y-78938016D01*
X124886616Y-78810462D01*
X124982589Y-78657722D01*
X125042168Y-78487455D01*
X125048222Y-78433723D01*
X125062365Y-78308203D01*
X125062365Y-78308196D01*
X125042169Y-78128950D01*
X125042168Y-78128945D01*
X125026510Y-78084196D01*
X124982589Y-77958678D01*
X124886616Y-77805938D01*
X124759062Y-77678384D01*
X124688699Y-77634172D01*
X124606321Y-77582410D01*
X124507112Y-77547696D01*
X124450444Y-77527867D01*
X124393670Y-77487146D01*
X124367922Y-77422194D01*
X124367551Y-77414131D01*
X124367495Y-77414134D01*
X124367400Y-77411723D01*
X124367400Y-77411706D01*
X124364498Y-77374831D01*
X124358541Y-77354328D01*
X124325116Y-77239278D01*
X124318644Y-77217002D01*
X124234981Y-77075535D01*
X124234979Y-77075533D01*
X124234976Y-77075529D01*
X124233319Y-77073872D01*
X124232434Y-77072252D01*
X124230198Y-77069369D01*
X124230663Y-77069008D01*
X124199834Y-77012549D01*
X124197000Y-76986191D01*
X124197000Y-76796197D01*
X124216685Y-76729158D01*
X124255903Y-76690658D01*
X124315156Y-76654112D01*
X124439212Y-76530056D01*
X124531314Y-76380734D01*
X124586499Y-76214197D01*
X124597000Y-76111409D01*
X124596999Y-75061392D01*
X124594409Y-75036042D01*
X124586499Y-74958603D01*
X124586498Y-74958600D01*
X124562608Y-74886505D01*
X124531314Y-74792066D01*
X124439212Y-74642744D01*
X124315156Y-74518688D01*
X124173101Y-74431068D01*
X124165836Y-74426587D01*
X124165831Y-74426585D01*
X124090772Y-74401713D01*
X123999297Y-74371401D01*
X123999295Y-74371400D01*
X123896510Y-74360900D01*
X123296498Y-74360900D01*
X123296480Y-74360901D01*
X123193703Y-74371400D01*
X123193700Y-74371401D01*
X123027168Y-74426585D01*
X123027163Y-74426587D01*
X122877842Y-74518689D01*
X122753789Y-74642742D01*
X122661687Y-74792063D01*
X122661685Y-74792068D01*
X122641314Y-74853545D01*
X122606501Y-74958603D01*
X122606501Y-74958604D01*
X122606500Y-74958604D01*
X122596000Y-75061383D01*
X122596000Y-76111401D01*
X122596001Y-76111419D01*
X122606500Y-76214196D01*
X122606501Y-76214199D01*
X122661685Y-76380731D01*
X122661687Y-76380736D01*
X122668875Y-76392389D01*
X122726744Y-76486211D01*
X122753789Y-76530057D01*
X122838951Y-76615219D01*
X122872436Y-76676542D01*
X122867452Y-76746234D01*
X122825580Y-76802167D01*
X122760116Y-76826584D01*
X122751270Y-76826900D01*
X122626198Y-76826900D01*
X122589332Y-76829801D01*
X122589326Y-76829802D01*
X122431506Y-76875654D01*
X122431503Y-76875655D01*
X122290037Y-76959317D01*
X122290029Y-76959323D01*
X122173823Y-77075529D01*
X122173814Y-77075540D01*
X122173629Y-77075855D01*
X122173419Y-77076050D01*
X122169039Y-77081698D01*
X122168127Y-77080991D01*
X122122557Y-77123536D01*
X122053815Y-77136037D01*
X121989227Y-77109388D01*
X121965043Y-77081478D01*
X121964761Y-77081698D01*
X121960723Y-77076492D01*
X121960171Y-77075855D01*
X121959985Y-77075540D01*
X121959976Y-77075529D01*
X121843770Y-76959323D01*
X121843762Y-76959317D01*
X121702296Y-76875655D01*
X121702293Y-76875654D01*
X121544473Y-76829802D01*
X121544467Y-76829801D01*
X121507601Y-76826900D01*
X121507594Y-76826900D01*
X121029498Y-76826900D01*
X120962459Y-76807215D01*
X120941817Y-76790581D01*
X120882717Y-76731481D01*
X120882709Y-76731475D01*
X120780936Y-76672717D01*
X120780934Y-76672716D01*
X120745790Y-76652425D01*
X120745789Y-76652424D01*
X120728801Y-76647872D01*
X120593057Y-76611499D01*
X120434943Y-76611499D01*
X120427347Y-76611499D01*
X120427331Y-76611500D01*
X120130112Y-76611500D01*
X120063073Y-76591815D01*
X120052797Y-76584445D01*
X120049963Y-76582185D01*
X120049962Y-76582184D01*
X119993196Y-76546515D01*
X119897223Y-76486211D01*
X119726954Y-76426631D01*
X119726949Y-76426630D01*
X119547704Y-76406435D01*
X119547696Y-76406435D01*
X119368450Y-76426630D01*
X119368442Y-76426632D01*
X119254791Y-76466400D01*
X119185012Y-76469961D01*
X119124385Y-76435232D01*
X119092158Y-76373238D01*
X119098564Y-76303663D01*
X119126154Y-76261679D01*
X122718430Y-72669403D01*
X127388235Y-72669403D01*
X127408430Y-72848649D01*
X127408431Y-72848654D01*
X127468011Y-73018923D01*
X127556155Y-73159203D01*
X127563984Y-73171662D01*
X127691538Y-73299216D01*
X127844278Y-73395189D01*
X128014545Y-73454768D01*
X128101469Y-73464561D01*
X128165880Y-73491626D01*
X128175265Y-73500100D01*
X129741381Y-75066216D01*
X129774866Y-75127539D01*
X129777700Y-75153897D01*
X129777700Y-83542387D01*
X129758015Y-83609426D01*
X129750650Y-83619696D01*
X129748386Y-83622534D01*
X129652411Y-83775276D01*
X129592831Y-83945545D01*
X129592830Y-83945550D01*
X129572635Y-84124796D01*
X129572635Y-84124803D01*
X129592830Y-84304049D01*
X129592831Y-84304054D01*
X129652411Y-84474323D01*
X129748384Y-84627062D01*
X129875938Y-84754616D01*
X129904582Y-84772614D01*
X130009118Y-84838299D01*
X130028678Y-84850589D01*
X130191297Y-84907492D01*
X130198945Y-84910168D01*
X130198950Y-84910169D01*
X130378196Y-84930365D01*
X130378200Y-84930365D01*
X130378201Y-84930365D01*
X130389248Y-84929120D01*
X130427216Y-84924842D01*
X130496037Y-84936896D01*
X130547417Y-84984244D01*
X130565100Y-85048062D01*
X130565100Y-87682099D01*
X130545415Y-87749138D01*
X130492611Y-87794893D01*
X130480107Y-87799803D01*
X130447562Y-87810588D01*
X130396268Y-87827585D01*
X130396263Y-87827587D01*
X130246942Y-87919689D01*
X130122889Y-88043742D01*
X130030787Y-88193063D01*
X130030786Y-88193066D01*
X129975601Y-88359603D01*
X129975601Y-88359604D01*
X129975600Y-88359604D01*
X129965100Y-88462383D01*
X129965100Y-89087401D01*
X129965101Y-89087419D01*
X129975600Y-89190196D01*
X129975601Y-89190199D01*
X130030785Y-89356731D01*
X130030787Y-89356736D01*
X130122889Y-89506057D01*
X130216551Y-89599719D01*
X130250036Y-89661042D01*
X130245052Y-89730734D01*
X130216551Y-89775081D01*
X130122889Y-89868742D01*
X130030787Y-90018063D01*
X130030786Y-90018066D01*
X129975601Y-90184603D01*
X129975601Y-90184604D01*
X129975600Y-90184604D01*
X129965100Y-90287383D01*
X129965100Y-90912401D01*
X129965101Y-90912419D01*
X129975600Y-91015196D01*
X129975601Y-91015199D01*
X130030785Y-91181731D01*
X130030786Y-91181734D01*
X130122888Y-91331056D01*
X130246944Y-91455112D01*
X130396266Y-91547214D01*
X130562803Y-91602399D01*
X130665591Y-91612900D01*
X131665608Y-91612899D01*
X131665616Y-91612898D01*
X131665619Y-91612898D01*
X131721902Y-91607148D01*
X131768397Y-91602399D01*
X131934934Y-91547214D01*
X132084256Y-91455112D01*
X132208312Y-91331056D01*
X132252570Y-91259302D01*
X132304517Y-91212579D01*
X132358108Y-91200400D01*
X133325892Y-91200400D01*
X133392931Y-91220085D01*
X133431429Y-91259301D01*
X133475688Y-91331056D01*
X133599744Y-91455112D01*
X133749066Y-91547214D01*
X133915603Y-91602399D01*
X134018391Y-91612900D01*
X135018408Y-91612899D01*
X135018416Y-91612898D01*
X135018419Y-91612898D01*
X135074702Y-91607148D01*
X135121197Y-91602399D01*
X135287734Y-91547214D01*
X135437056Y-91455112D01*
X135561112Y-91331056D01*
X135605370Y-91259302D01*
X135657317Y-91212579D01*
X135710908Y-91200400D01*
X136754892Y-91200400D01*
X136821931Y-91220085D01*
X136860429Y-91259301D01*
X136904688Y-91331056D01*
X137028744Y-91455112D01*
X137178066Y-91547214D01*
X137344603Y-91602399D01*
X137447391Y-91612900D01*
X138447408Y-91612899D01*
X138447416Y-91612898D01*
X138447419Y-91612898D01*
X138503702Y-91607148D01*
X138550197Y-91602399D01*
X138716734Y-91547214D01*
X138866056Y-91455112D01*
X138990112Y-91331056D01*
X139034370Y-91259302D01*
X139086317Y-91212579D01*
X139139908Y-91200400D01*
X140056892Y-91200400D01*
X140123931Y-91220085D01*
X140162429Y-91259301D01*
X140206688Y-91331056D01*
X140330744Y-91455112D01*
X140480066Y-91547214D01*
X140646603Y-91602399D01*
X140749391Y-91612900D01*
X141749408Y-91612899D01*
X141749416Y-91612898D01*
X141749419Y-91612898D01*
X141805702Y-91607148D01*
X141852197Y-91602399D01*
X142018734Y-91547214D01*
X142168056Y-91455112D01*
X142292112Y-91331056D01*
X142384214Y-91181734D01*
X142439399Y-91015197D01*
X142449900Y-90912409D01*
X142449899Y-90299996D01*
X142469583Y-90232958D01*
X142486218Y-90212316D01*
X143098815Y-89599719D01*
X145102720Y-87595816D01*
X145181777Y-87458884D01*
X145222701Y-87306157D01*
X145222701Y-87148042D01*
X145222701Y-87140447D01*
X145222700Y-87140429D01*
X145222700Y-86136885D01*
X145242385Y-86069846D01*
X145295189Y-86024091D01*
X145307689Y-86019181D01*
X145416534Y-85983114D01*
X145565856Y-85891012D01*
X145689912Y-85766956D01*
X145726459Y-85707702D01*
X145778407Y-85660979D01*
X145831998Y-85648800D01*
X146176587Y-85648800D01*
X146183808Y-85649127D01*
X146183811Y-85649073D01*
X146186606Y-85649200D01*
X147445791Y-85649200D01*
X147445794Y-85649200D01*
X147513857Y-85643015D01*
X147670470Y-85594212D01*
X147810853Y-85509348D01*
X147884682Y-85435519D01*
X147946005Y-85402034D01*
X147972363Y-85399200D01*
X149360037Y-85399200D01*
X149427076Y-85418885D01*
X149447718Y-85435519D01*
X149521547Y-85509348D01*
X149521551Y-85509351D01*
X149661927Y-85594211D01*
X149661930Y-85594212D01*
X149818543Y-85643015D01*
X149886606Y-85649200D01*
X149886609Y-85649200D01*
X151145791Y-85649200D01*
X151145794Y-85649200D01*
X151213857Y-85643015D01*
X151370470Y-85594212D01*
X151510853Y-85509348D01*
X151626848Y-85393353D01*
X151711712Y-85252970D01*
X151760515Y-85096357D01*
X151766700Y-85028294D01*
X151766700Y-84569106D01*
X151760515Y-84501043D01*
X151711712Y-84344430D01*
X151711711Y-84344427D01*
X151626851Y-84204051D01*
X151626848Y-84204047D01*
X151510852Y-84088051D01*
X151510848Y-84088048D01*
X151370472Y-84003188D01*
X151370463Y-84003185D01*
X151213864Y-83954387D01*
X151213862Y-83954386D01*
X151213857Y-83954385D01*
X151145794Y-83948200D01*
X149886606Y-83948200D01*
X149818543Y-83954385D01*
X149818539Y-83954386D01*
X149818535Y-83954387D01*
X149661936Y-84003185D01*
X149661927Y-84003188D01*
X149521551Y-84088048D01*
X149521547Y-84088051D01*
X149447718Y-84161881D01*
X149386395Y-84195366D01*
X149360037Y-84198200D01*
X147972363Y-84198200D01*
X147905324Y-84178515D01*
X147884682Y-84161881D01*
X147810852Y-84088051D01*
X147810848Y-84088048D01*
X147670472Y-84003188D01*
X147670463Y-84003185D01*
X147513864Y-83954387D01*
X147513862Y-83954386D01*
X147513857Y-83954385D01*
X147445794Y-83948200D01*
X146186606Y-83948200D01*
X146118543Y-83954385D01*
X146118539Y-83954386D01*
X146118535Y-83954387D01*
X145961936Y-84003185D01*
X145961927Y-84003188D01*
X145821551Y-84088048D01*
X145720634Y-84188965D01*
X145659311Y-84222449D01*
X145589619Y-84217465D01*
X145567857Y-84206822D01*
X145416540Y-84113489D01*
X145416535Y-84113487D01*
X145416534Y-84113486D01*
X145249997Y-84058301D01*
X145249995Y-84058300D01*
X145147216Y-84047800D01*
X144108440Y-84047800D01*
X144041401Y-84028115D01*
X144020759Y-84011481D01*
X143961462Y-83952184D01*
X143808723Y-83856211D01*
X143638454Y-83796631D01*
X143638449Y-83796630D01*
X143459204Y-83776435D01*
X143459196Y-83776435D01*
X143279950Y-83796630D01*
X143279945Y-83796631D01*
X143109676Y-83856211D01*
X142956937Y-83952184D01*
X142829384Y-84079737D01*
X142733411Y-84232476D01*
X142673831Y-84402745D01*
X142673830Y-84402750D01*
X142653635Y-84581996D01*
X142653635Y-84582003D01*
X142673830Y-84761249D01*
X142673831Y-84761254D01*
X142733411Y-84931523D01*
X142804264Y-85044284D01*
X142829384Y-85084262D01*
X142956938Y-85211816D01*
X143109678Y-85307789D01*
X143279945Y-85367368D01*
X143304453Y-85370129D01*
X143368865Y-85397193D01*
X143408277Y-85454345D01*
X143454624Y-85594211D01*
X143462386Y-85617634D01*
X143554488Y-85766956D01*
X143678544Y-85891012D01*
X143827866Y-85983114D01*
X143936705Y-86019179D01*
X143994149Y-86058952D01*
X144020972Y-86123467D01*
X144021700Y-86136885D01*
X144021700Y-86927002D01*
X144002015Y-86994041D01*
X143985381Y-87014683D01*
X142631594Y-88368469D01*
X142570271Y-88401954D01*
X142500579Y-88396970D01*
X142444646Y-88355098D01*
X142426207Y-88319792D01*
X142421500Y-88305589D01*
X142384214Y-88193066D01*
X142292112Y-88043744D01*
X142168056Y-87919688D01*
X142018734Y-87827586D01*
X141934895Y-87799804D01*
X141877451Y-87760032D01*
X141850628Y-87695516D01*
X141849900Y-87682099D01*
X141849900Y-82028294D01*
X145565700Y-82028294D01*
X145571885Y-82096357D01*
X145571886Y-82096362D01*
X145571887Y-82096364D01*
X145620685Y-82252963D01*
X145620688Y-82252972D01*
X145705548Y-82393348D01*
X145705551Y-82393352D01*
X145821547Y-82509348D01*
X145821551Y-82509351D01*
X145961927Y-82594211D01*
X145961930Y-82594212D01*
X146118543Y-82643015D01*
X146186606Y-82649200D01*
X146186609Y-82649200D01*
X147445791Y-82649200D01*
X147445794Y-82649200D01*
X147513857Y-82643015D01*
X147670470Y-82594212D01*
X147810853Y-82509348D01*
X147926848Y-82393353D01*
X148011712Y-82252970D01*
X148060515Y-82096357D01*
X148066700Y-82028294D01*
X149265700Y-82028294D01*
X149271885Y-82096357D01*
X149271886Y-82096362D01*
X149271887Y-82096364D01*
X149320685Y-82252963D01*
X149320688Y-82252972D01*
X149405548Y-82393348D01*
X149405551Y-82393352D01*
X149521547Y-82509348D01*
X149521551Y-82509351D01*
X149661927Y-82594211D01*
X149661930Y-82594212D01*
X149818543Y-82643015D01*
X149886606Y-82649200D01*
X149886609Y-82649200D01*
X151145791Y-82649200D01*
X151145794Y-82649200D01*
X151213857Y-82643015D01*
X151370470Y-82594212D01*
X151510853Y-82509348D01*
X151584682Y-82435519D01*
X151646005Y-82402034D01*
X151672363Y-82399200D01*
X151836981Y-82399200D01*
X151875985Y-82405494D01*
X151879665Y-82406713D01*
X151879666Y-82406714D01*
X152046203Y-82461899D01*
X152148991Y-82472400D01*
X153199008Y-82472399D01*
X153199016Y-82472398D01*
X153199019Y-82472398D01*
X153255302Y-82466648D01*
X153301797Y-82461899D01*
X153468334Y-82406714D01*
X153494317Y-82390687D01*
X153561704Y-82372247D01*
X153628368Y-82393168D01*
X153673139Y-82446808D01*
X153676453Y-82455270D01*
X153680809Y-82467720D01*
X153760289Y-82594211D01*
X153776784Y-82620462D01*
X153904338Y-82748016D01*
X153937462Y-82768829D01*
X154037093Y-82831432D01*
X154057078Y-82843989D01*
X154191459Y-82891011D01*
X154227345Y-82903568D01*
X154227350Y-82903569D01*
X154406596Y-82923765D01*
X154406600Y-82923765D01*
X154406604Y-82923765D01*
X154585849Y-82903569D01*
X154585852Y-82903568D01*
X154585855Y-82903568D01*
X154756122Y-82843989D01*
X154908862Y-82748016D01*
X155036416Y-82620462D01*
X155132389Y-82467722D01*
X155191968Y-82297455D01*
X155191969Y-82297449D01*
X155212165Y-82118203D01*
X155212165Y-82118196D01*
X155191969Y-81938950D01*
X155191968Y-81938945D01*
X155164414Y-81860200D01*
X155132389Y-81768678D01*
X155120332Y-81749490D01*
X155036415Y-81615937D01*
X154908862Y-81488384D01*
X154756121Y-81392410D01*
X154585849Y-81332830D01*
X154498930Y-81323037D01*
X154434516Y-81295970D01*
X154425133Y-81287498D01*
X154247890Y-81110255D01*
X154247888Y-81110252D01*
X154129017Y-80991381D01*
X154129009Y-80991375D01*
X154018366Y-80927496D01*
X154018365Y-80927495D01*
X154018365Y-80927496D01*
X153992085Y-80912323D01*
X153857267Y-80876198D01*
X153797609Y-80839834D01*
X153783827Y-80821524D01*
X153741712Y-80753244D01*
X153617656Y-80629188D01*
X153468334Y-80537086D01*
X153301797Y-80481901D01*
X153301795Y-80481900D01*
X153199010Y-80471400D01*
X152148998Y-80471400D01*
X152148980Y-80471401D01*
X152046203Y-80481900D01*
X152046200Y-80481901D01*
X151879668Y-80537085D01*
X151879663Y-80537087D01*
X151730342Y-80629189D01*
X151606289Y-80753242D01*
X151514187Y-80902563D01*
X151514184Y-80902571D01*
X151508822Y-80918751D01*
X151469047Y-80976194D01*
X151404529Y-81003014D01*
X151354228Y-80998126D01*
X151213864Y-80954387D01*
X151213862Y-80954386D01*
X151213857Y-80954385D01*
X151145794Y-80948200D01*
X149886606Y-80948200D01*
X149818543Y-80954385D01*
X149818539Y-80954386D01*
X149818535Y-80954387D01*
X149661936Y-81003185D01*
X149661927Y-81003188D01*
X149521551Y-81088048D01*
X149521547Y-81088051D01*
X149405551Y-81204047D01*
X149405548Y-81204051D01*
X149320688Y-81344427D01*
X149320685Y-81344436D01*
X149271887Y-81501035D01*
X149271885Y-81501043D01*
X149265700Y-81569106D01*
X149265700Y-82028294D01*
X148066700Y-82028294D01*
X148066700Y-81569106D01*
X148060515Y-81501043D01*
X148011712Y-81344430D01*
X148011711Y-81344427D01*
X147926851Y-81204051D01*
X147926848Y-81204047D01*
X147810852Y-81088051D01*
X147810848Y-81088048D01*
X147670472Y-81003188D01*
X147670463Y-81003185D01*
X147513864Y-80954387D01*
X147513862Y-80954386D01*
X147513857Y-80954385D01*
X147445794Y-80948200D01*
X146186606Y-80948200D01*
X146118543Y-80954385D01*
X146118539Y-80954386D01*
X146118535Y-80954387D01*
X145961936Y-81003185D01*
X145961927Y-81003188D01*
X145821551Y-81088048D01*
X145821547Y-81088051D01*
X145705551Y-81204047D01*
X145705548Y-81204051D01*
X145620688Y-81344427D01*
X145620685Y-81344436D01*
X145571887Y-81501035D01*
X145571885Y-81501043D01*
X145565700Y-81569106D01*
X145565700Y-82028294D01*
X141849900Y-82028294D01*
X141849900Y-79387860D01*
X141849901Y-79387847D01*
X141849901Y-79219744D01*
X141847401Y-79210414D01*
X141808977Y-79067016D01*
X141789909Y-79033989D01*
X141729924Y-78930090D01*
X141729918Y-78930082D01*
X140089712Y-77289876D01*
X138447899Y-75648064D01*
X138414415Y-75586742D01*
X138412363Y-75574286D01*
X138402568Y-75487345D01*
X138342989Y-75317078D01*
X138332510Y-75300401D01*
X140990900Y-75300401D01*
X140990901Y-75300419D01*
X141001400Y-75403196D01*
X141001401Y-75403199D01*
X141056585Y-75569731D01*
X141056587Y-75569736D01*
X141075809Y-75600900D01*
X141148688Y-75719056D01*
X141272744Y-75843112D01*
X141422066Y-75935214D01*
X141588603Y-75990399D01*
X141691391Y-76000900D01*
X142741408Y-76000899D01*
X142741416Y-76000898D01*
X142741419Y-76000898D01*
X142832283Y-75991616D01*
X142844197Y-75990399D01*
X143010734Y-75935214D01*
X143160056Y-75843112D01*
X143284112Y-75719056D01*
X143320659Y-75659802D01*
X143372607Y-75613079D01*
X143426198Y-75600900D01*
X144076503Y-75600900D01*
X144143542Y-75620585D01*
X144164184Y-75637219D01*
X144300381Y-75773416D01*
X144333866Y-75834739D01*
X144336700Y-75861097D01*
X144336700Y-76652413D01*
X144343113Y-76722992D01*
X144343113Y-76722994D01*
X144343114Y-76722996D01*
X144393722Y-76885406D01*
X144440022Y-76961996D01*
X144481730Y-77030988D01*
X144602011Y-77151269D01*
X144602013Y-77151270D01*
X144602015Y-77151272D01*
X144747594Y-77239278D01*
X144910004Y-77289886D01*
X144980584Y-77296300D01*
X145398514Y-77296300D01*
X145465553Y-77315985D01*
X145503507Y-77354327D01*
X145572584Y-77464262D01*
X145700138Y-77591816D01*
X145852878Y-77687789D01*
X145986879Y-77734678D01*
X146023145Y-77747368D01*
X146023150Y-77747369D01*
X146202396Y-77767565D01*
X146202400Y-77767565D01*
X146202404Y-77767565D01*
X146381649Y-77747369D01*
X146381652Y-77747368D01*
X146381655Y-77747368D01*
X146551922Y-77687789D01*
X146704662Y-77591816D01*
X146832216Y-77464262D01*
X146928189Y-77311522D01*
X146987768Y-77141255D01*
X146989372Y-77127019D01*
X147007965Y-76962003D01*
X147007965Y-76961996D01*
X146987769Y-76782750D01*
X146987768Y-76782745D01*
X146966861Y-76722996D01*
X146928189Y-76612478D01*
X146927975Y-76612138D01*
X146868106Y-76516857D01*
X146832216Y-76459738D01*
X146704662Y-76332184D01*
X146699642Y-76329030D01*
X146551921Y-76236210D01*
X146381649Y-76176630D01*
X146294730Y-76166837D01*
X146230316Y-76139770D01*
X146220933Y-76131298D01*
X146174019Y-76084384D01*
X146140534Y-76023061D01*
X146137700Y-75996703D01*
X146137700Y-75341860D01*
X146157385Y-75274821D01*
X146210189Y-75229066D01*
X146275583Y-75218640D01*
X146354796Y-75227565D01*
X146354800Y-75227565D01*
X146354804Y-75227565D01*
X146534049Y-75207369D01*
X146534052Y-75207368D01*
X146534055Y-75207368D01*
X146704322Y-75147789D01*
X146857062Y-75051816D01*
X146921513Y-74987364D01*
X146982832Y-74953882D01*
X147052524Y-74958866D01*
X147108458Y-75000737D01*
X147126896Y-75036042D01*
X147138873Y-75072184D01*
X147150786Y-75108134D01*
X147242888Y-75257456D01*
X147366944Y-75381512D01*
X147516266Y-75473614D01*
X147682803Y-75528799D01*
X147785591Y-75539300D01*
X148835608Y-75539299D01*
X148835616Y-75539298D01*
X148835619Y-75539298D01*
X148891902Y-75533548D01*
X148938397Y-75528799D01*
X149104934Y-75473614D01*
X149254256Y-75381512D01*
X149378312Y-75257456D01*
X149470414Y-75108134D01*
X149525599Y-74941597D01*
X149536100Y-74838809D01*
X149536099Y-74238792D01*
X149535771Y-74235584D01*
X149525599Y-74136003D01*
X149525598Y-74136000D01*
X149502265Y-74065586D01*
X149470414Y-73969466D01*
X149378312Y-73820144D01*
X149254256Y-73696088D01*
X149104934Y-73603986D01*
X148938397Y-73548801D01*
X148938395Y-73548800D01*
X148835610Y-73538300D01*
X148835609Y-73538300D01*
X148835276Y-73538300D01*
X147782436Y-73538301D01*
X147782436Y-73537231D01*
X147718720Y-73521975D01*
X147692720Y-73502085D01*
X147124019Y-72933383D01*
X147090534Y-72872060D01*
X147087700Y-72845702D01*
X147087700Y-72039186D01*
X147087700Y-72039184D01*
X147081286Y-71968604D01*
X147030678Y-71806194D01*
X146942672Y-71660615D01*
X146942670Y-71660613D01*
X146942669Y-71660611D01*
X146822388Y-71540330D01*
X146814120Y-71535332D01*
X146676806Y-71452322D01*
X146514396Y-71401714D01*
X146514394Y-71401713D01*
X146514392Y-71401713D01*
X146464978Y-71397223D01*
X146443816Y-71395300D01*
X146244009Y-71395300D01*
X146176970Y-71375615D01*
X146131215Y-71322811D01*
X146121271Y-71253653D01*
X146150296Y-71190097D01*
X146156328Y-71183619D01*
X146277676Y-71062270D01*
X146277681Y-71062265D01*
X146361344Y-70920798D01*
X146404520Y-70772187D01*
X146407197Y-70762973D01*
X146407198Y-70762967D01*
X146410099Y-70726101D01*
X146410100Y-70726094D01*
X146410100Y-70294706D01*
X146407198Y-70257831D01*
X146390256Y-70199518D01*
X146361345Y-70100006D01*
X146361344Y-70100003D01*
X146361344Y-70100002D01*
X146277681Y-69958535D01*
X146277679Y-69958533D01*
X146277676Y-69958529D01*
X146161470Y-69842323D01*
X146161462Y-69842317D01*
X146083281Y-69796081D01*
X146019998Y-69758656D01*
X146019997Y-69758655D01*
X146019996Y-69758655D01*
X146019993Y-69758654D01*
X145862173Y-69712802D01*
X145862167Y-69712801D01*
X145825301Y-69709900D01*
X145825294Y-69709900D01*
X144243906Y-69709900D01*
X144243898Y-69709900D01*
X144207032Y-69712801D01*
X144207026Y-69712802D01*
X144049206Y-69758654D01*
X144049203Y-69758655D01*
X143907737Y-69842317D01*
X143907732Y-69842321D01*
X143885041Y-69865012D01*
X143823717Y-69898496D01*
X143754025Y-69893510D01*
X143704454Y-69857415D01*
X143704019Y-69857851D01*
X143701251Y-69855083D01*
X143700096Y-69854242D01*
X143698914Y-69852747D01*
X143698912Y-69852744D01*
X143574856Y-69728688D01*
X143572019Y-69726938D01*
X143570483Y-69725230D01*
X143569189Y-69724207D01*
X143569363Y-69723985D01*
X143525296Y-69674994D01*
X143514072Y-69606032D01*
X143541913Y-69541949D01*
X143572017Y-69515862D01*
X143574856Y-69514112D01*
X143698912Y-69390056D01*
X143791014Y-69240734D01*
X143846199Y-69074197D01*
X143856700Y-68971409D01*
X143856699Y-68825691D01*
X143876383Y-68758654D01*
X143929187Y-68712899D01*
X143998345Y-68702955D01*
X144043816Y-68718959D01*
X144049202Y-68722144D01*
X144090824Y-68734236D01*
X144207026Y-68767997D01*
X144207029Y-68767997D01*
X144207031Y-68767998D01*
X144243906Y-68770900D01*
X144243914Y-68770900D01*
X145825286Y-68770900D01*
X145825294Y-68770900D01*
X145862169Y-68767998D01*
X145862171Y-68767997D01*
X145862173Y-68767997D01*
X145903791Y-68755905D01*
X146019998Y-68722144D01*
X146161465Y-68638481D01*
X146277681Y-68522265D01*
X146361344Y-68380798D01*
X146407198Y-68222969D01*
X146410100Y-68186094D01*
X146410100Y-67754706D01*
X146407198Y-67717831D01*
X146404509Y-67708574D01*
X146404708Y-67638705D01*
X146442650Y-67580035D01*
X146506288Y-67551191D01*
X146509675Y-67550762D01*
X146566860Y-67544319D01*
X146635650Y-67536569D01*
X146635653Y-67536568D01*
X146635655Y-67536568D01*
X146805922Y-67476989D01*
X146958662Y-67381016D01*
X147086216Y-67253462D01*
X147182189Y-67100722D01*
X147241768Y-66930455D01*
X147241769Y-66930449D01*
X147261965Y-66751203D01*
X147261965Y-66751196D01*
X147241769Y-66571950D01*
X147241768Y-66571945D01*
X147182189Y-66401678D01*
X147086216Y-66248938D01*
X146958662Y-66121384D01*
X146934155Y-66105985D01*
X146805923Y-66025411D01*
X146635654Y-65965831D01*
X146635649Y-65965830D01*
X146456404Y-65945635D01*
X146456396Y-65945635D01*
X146277146Y-65965831D01*
X146277145Y-65965831D01*
X146188267Y-65996930D01*
X146118488Y-66000491D01*
X146084194Y-65986621D01*
X146049041Y-65965832D01*
X146019998Y-65948656D01*
X146019996Y-65948655D01*
X146019994Y-65948654D01*
X145862173Y-65902802D01*
X145862167Y-65902801D01*
X145825301Y-65899900D01*
X145825294Y-65899900D01*
X144243906Y-65899900D01*
X144243898Y-65899900D01*
X144207032Y-65902801D01*
X144207026Y-65902802D01*
X144049206Y-65948654D01*
X144049203Y-65948655D01*
X143907737Y-66032317D01*
X143907729Y-66032323D01*
X143876474Y-66063580D01*
X143815152Y-66097066D01*
X143788792Y-66099900D01*
X143427178Y-66099900D01*
X143388175Y-66093606D01*
X143259000Y-66050802D01*
X143258997Y-66050801D01*
X143258992Y-66050800D01*
X143258990Y-66050800D01*
X143156210Y-66040300D01*
X142106198Y-66040300D01*
X142106180Y-66040301D01*
X142003403Y-66050800D01*
X142003400Y-66050801D01*
X141836868Y-66105985D01*
X141836863Y-66105987D01*
X141687542Y-66198089D01*
X141563489Y-66322142D01*
X141471387Y-66471463D01*
X141471386Y-66471466D01*
X141416201Y-66638003D01*
X141416201Y-66638004D01*
X141416200Y-66638004D01*
X141405700Y-66740783D01*
X141405700Y-67340801D01*
X141405701Y-67340819D01*
X141416200Y-67443596D01*
X141416201Y-67443599D01*
X141447009Y-67536569D01*
X141471386Y-67610134D01*
X141560558Y-67754706D01*
X141563489Y-67759457D01*
X141572451Y-67768419D01*
X141605936Y-67829742D01*
X141600952Y-67899434D01*
X141572451Y-67943781D01*
X141563489Y-67952742D01*
X141471387Y-68102063D01*
X141471385Y-68102068D01*
X141443549Y-68186070D01*
X141416201Y-68268603D01*
X141416201Y-68268604D01*
X141416200Y-68268604D01*
X141405700Y-68371383D01*
X141405700Y-68971401D01*
X141405701Y-68971419D01*
X141416200Y-69074196D01*
X141416201Y-69074199D01*
X141432774Y-69124211D01*
X141471386Y-69240734D01*
X141561432Y-69386723D01*
X141563489Y-69390057D01*
X141687546Y-69514114D01*
X141690382Y-69515863D01*
X141691917Y-69517570D01*
X141693211Y-69518593D01*
X141693036Y-69518814D01*
X141737105Y-69567811D01*
X141748326Y-69636774D01*
X141720482Y-69700856D01*
X141690382Y-69726937D01*
X141687546Y-69728685D01*
X141563489Y-69852742D01*
X141471387Y-70002063D01*
X141471385Y-70002068D01*
X141463349Y-70026319D01*
X141416201Y-70168603D01*
X141416201Y-70168604D01*
X141416200Y-70168604D01*
X141405700Y-70271383D01*
X141405700Y-70871401D01*
X141405701Y-70871419D01*
X141416200Y-70974196D01*
X141416201Y-70974199D01*
X141471385Y-71140731D01*
X141471387Y-71140736D01*
X141498121Y-71184079D01*
X141563488Y-71290056D01*
X141687544Y-71414112D01*
X141836866Y-71506214D01*
X142003403Y-71561399D01*
X142106191Y-71571900D01*
X143156208Y-71571899D01*
X143156216Y-71571898D01*
X143156219Y-71571898D01*
X143212502Y-71566148D01*
X143258997Y-71561399D01*
X143425534Y-71506214D01*
X143574856Y-71414112D01*
X143698912Y-71290056D01*
X143735459Y-71230802D01*
X143787407Y-71184079D01*
X143840998Y-71171900D01*
X143862685Y-71171900D01*
X143925805Y-71189167D01*
X144049202Y-71262144D01*
X144090824Y-71274236D01*
X144207026Y-71307997D01*
X144207029Y-71307997D01*
X144207031Y-71307998D01*
X144243906Y-71310900D01*
X144243914Y-71310900D01*
X145486726Y-71310900D01*
X145553765Y-71330585D01*
X145599520Y-71383389D01*
X145609464Y-71452547D01*
X145580439Y-71516103D01*
X145557622Y-71535332D01*
X145557915Y-71535706D01*
X145552010Y-71540331D01*
X145431730Y-71660611D01*
X145343722Y-71806193D01*
X145293113Y-71968607D01*
X145286700Y-72039186D01*
X145286700Y-73652413D01*
X145293113Y-73722992D01*
X145293113Y-73722994D01*
X145293114Y-73722996D01*
X145343722Y-73885406D01*
X145431728Y-74030985D01*
X145534734Y-74133991D01*
X145568218Y-74195312D01*
X145568072Y-74235584D01*
X145570211Y-74235825D01*
X145564650Y-74285183D01*
X145537584Y-74349597D01*
X145479989Y-74389152D01*
X145441430Y-74395300D01*
X144980584Y-74395300D01*
X144961345Y-74397048D01*
X144910007Y-74401713D01*
X144910004Y-74401714D01*
X144784497Y-74440823D01*
X144747588Y-74452324D01*
X144740752Y-74455401D01*
X144739637Y-74452923D01*
X144684418Y-74467481D01*
X144625872Y-74450918D01*
X144608388Y-74440824D01*
X144608387Y-74440823D01*
X144547293Y-74424453D01*
X144455657Y-74399899D01*
X144297543Y-74399899D01*
X144289947Y-74399899D01*
X144289931Y-74399900D01*
X143426198Y-74399900D01*
X143359159Y-74380215D01*
X143320659Y-74340997D01*
X143315298Y-74332305D01*
X143284112Y-74281744D01*
X143160056Y-74157688D01*
X143010734Y-74065586D01*
X142844197Y-74010401D01*
X142844195Y-74010400D01*
X142741410Y-73999900D01*
X141691398Y-73999900D01*
X141691380Y-73999901D01*
X141588603Y-74010400D01*
X141588600Y-74010401D01*
X141422068Y-74065585D01*
X141422063Y-74065587D01*
X141272742Y-74157689D01*
X141148689Y-74281742D01*
X141056587Y-74431063D01*
X141056585Y-74431068D01*
X141049542Y-74452322D01*
X141001401Y-74597603D01*
X141001401Y-74597604D01*
X141001400Y-74597604D01*
X140990900Y-74700383D01*
X140990900Y-75300401D01*
X138332510Y-75300401D01*
X138247016Y-75164338D01*
X138119462Y-75036784D01*
X138062094Y-75000737D01*
X137966723Y-74940811D01*
X137796454Y-74881231D01*
X137796449Y-74881230D01*
X137617204Y-74861035D01*
X137617196Y-74861035D01*
X137437950Y-74881230D01*
X137437945Y-74881231D01*
X137267676Y-74940811D01*
X137114937Y-75036784D01*
X136987384Y-75164337D01*
X136891411Y-75317076D01*
X136831831Y-75487345D01*
X136831830Y-75487350D01*
X136811635Y-75666596D01*
X136811635Y-75666603D01*
X136831830Y-75845849D01*
X136831832Y-75845857D01*
X136840650Y-75871057D01*
X136844211Y-75940836D01*
X136809482Y-76001463D01*
X136747488Y-76033690D01*
X136677913Y-76027284D01*
X136635927Y-75999692D01*
X131039209Y-70402974D01*
X131005724Y-70341651D01*
X131010708Y-70271959D01*
X131021889Y-70249334D01*
X131053189Y-70199522D01*
X131112768Y-70029255D01*
X131114096Y-70017470D01*
X131132965Y-69850003D01*
X131132965Y-69849996D01*
X131112769Y-69670750D01*
X131112768Y-69670745D01*
X131059605Y-69518814D01*
X131053189Y-69500478D01*
X130957216Y-69347738D01*
X130829662Y-69220184D01*
X130823718Y-69216449D01*
X130676923Y-69124211D01*
X130506654Y-69064631D01*
X130506649Y-69064630D01*
X130327404Y-69044435D01*
X130327396Y-69044435D01*
X130148150Y-69064630D01*
X130148145Y-69064631D01*
X129977876Y-69124211D01*
X129825137Y-69220184D01*
X129697584Y-69347737D01*
X129601611Y-69500476D01*
X129542031Y-69670745D01*
X129542030Y-69670750D01*
X129521835Y-69849996D01*
X129521835Y-69850003D01*
X129542030Y-70029249D01*
X129542031Y-70029254D01*
X129601611Y-70199523D01*
X129646764Y-70271383D01*
X129693811Y-70346258D01*
X129697585Y-70352263D01*
X129699845Y-70355097D01*
X129700734Y-70357275D01*
X129701289Y-70358158D01*
X129701134Y-70358255D01*
X129726255Y-70419783D01*
X129726900Y-70432412D01*
X129726900Y-70453730D01*
X129726899Y-70453748D01*
X129726899Y-70619454D01*
X129726898Y-70619454D01*
X129726899Y-70619457D01*
X129767559Y-70771200D01*
X129767824Y-70772187D01*
X129785720Y-70803183D01*
X129785721Y-70803185D01*
X129846877Y-70909112D01*
X129846881Y-70909117D01*
X129965749Y-71027985D01*
X129965755Y-71027990D01*
X137040498Y-78102733D01*
X137073983Y-78164056D01*
X137076037Y-78176530D01*
X137085830Y-78263449D01*
X137145410Y-78433721D01*
X137241384Y-78586462D01*
X137368938Y-78714016D01*
X137521678Y-78809989D01*
X137691945Y-78869568D01*
X137691950Y-78869569D01*
X137871196Y-78889765D01*
X137871200Y-78889765D01*
X137871204Y-78889765D01*
X138050449Y-78869569D01*
X138050452Y-78869568D01*
X138050455Y-78869568D01*
X138220722Y-78809989D01*
X138373462Y-78714016D01*
X138501016Y-78586462D01*
X138596989Y-78433722D01*
X138656568Y-78263455D01*
X138667030Y-78170603D01*
X138676765Y-78084203D01*
X138676765Y-78084196D01*
X138656569Y-77904950D01*
X138656567Y-77904940D01*
X138647750Y-77879744D01*
X138644187Y-77809965D01*
X138678915Y-77749338D01*
X138740908Y-77717110D01*
X138810484Y-77723514D01*
X138852472Y-77751107D01*
X140612581Y-79511216D01*
X140646066Y-79572539D01*
X140648900Y-79598897D01*
X140648900Y-87682099D01*
X140629215Y-87749138D01*
X140576411Y-87794893D01*
X140563907Y-87799803D01*
X140531362Y-87810588D01*
X140480068Y-87827585D01*
X140480063Y-87827587D01*
X140330742Y-87919689D01*
X140206689Y-88043742D01*
X140114587Y-88193063D01*
X140114586Y-88193066D01*
X140059401Y-88359603D01*
X140059401Y-88359604D01*
X140059400Y-88359604D01*
X140048900Y-88462383D01*
X140048900Y-89087401D01*
X140048901Y-89087419D01*
X140059400Y-89190196D01*
X140059401Y-89190199D01*
X140114585Y-89356731D01*
X140114587Y-89356736D01*
X140206689Y-89506057D01*
X140300351Y-89599719D01*
X140333836Y-89661042D01*
X140328852Y-89730734D01*
X140300351Y-89775081D01*
X140206689Y-89868742D01*
X140162431Y-89940497D01*
X140110483Y-89987221D01*
X140056892Y-89999400D01*
X139139908Y-89999400D01*
X139072869Y-89979715D01*
X139034369Y-89940497D01*
X138990112Y-89868744D01*
X138896449Y-89775081D01*
X138862964Y-89713758D01*
X138867948Y-89644066D01*
X138896449Y-89599719D01*
X138990112Y-89506056D01*
X139082214Y-89356734D01*
X139137399Y-89190197D01*
X139147900Y-89087409D01*
X139147899Y-88462392D01*
X139137399Y-88359603D01*
X139082214Y-88193066D01*
X138990112Y-88043744D01*
X138866056Y-87919688D01*
X138716734Y-87827586D01*
X138632895Y-87799804D01*
X138575451Y-87760032D01*
X138548628Y-87695516D01*
X138547900Y-87682099D01*
X138547900Y-82207260D01*
X138547901Y-82207247D01*
X138547901Y-82039144D01*
X138544993Y-82028291D01*
X138506977Y-81886416D01*
X138439002Y-81768678D01*
X138427924Y-81749490D01*
X138427918Y-81749482D01*
X137719025Y-81040589D01*
X136974699Y-80296264D01*
X136941215Y-80234942D01*
X136939163Y-80222486D01*
X136929368Y-80135545D01*
X136869789Y-79965278D01*
X136773816Y-79812538D01*
X136646262Y-79684984D01*
X136559480Y-79630455D01*
X136493523Y-79589011D01*
X136323254Y-79529431D01*
X136323249Y-79529430D01*
X136144004Y-79509235D01*
X136143996Y-79509235D01*
X135964750Y-79529430D01*
X135964745Y-79529431D01*
X135794476Y-79589011D01*
X135641737Y-79684984D01*
X135514184Y-79812537D01*
X135418211Y-79965277D01*
X135359942Y-80131801D01*
X135319220Y-80188577D01*
X135254267Y-80214324D01*
X135185705Y-80200868D01*
X135135303Y-80152480D01*
X135118900Y-80090846D01*
X135118900Y-77178060D01*
X135118901Y-77178047D01*
X135118901Y-77009944D01*
X135118901Y-77009943D01*
X135077977Y-76857216D01*
X135039506Y-76790581D01*
X134998924Y-76720290D01*
X134998918Y-76720282D01*
X134795493Y-76516857D01*
X134587099Y-76308464D01*
X134553615Y-76247142D01*
X134551563Y-76234686D01*
X134541768Y-76147745D01*
X134482189Y-75977478D01*
X134386216Y-75824738D01*
X134258662Y-75697184D01*
X134180490Y-75648065D01*
X134105923Y-75601211D01*
X133935654Y-75541631D01*
X133935649Y-75541630D01*
X133756404Y-75521435D01*
X133756396Y-75521435D01*
X133577150Y-75541630D01*
X133577145Y-75541631D01*
X133406876Y-75601211D01*
X133254137Y-75697184D01*
X133126584Y-75824737D01*
X133030611Y-75977476D01*
X132971031Y-76147745D01*
X132971030Y-76147750D01*
X132950835Y-76326996D01*
X132950835Y-76327003D01*
X132971030Y-76506249D01*
X132971031Y-76506254D01*
X133030611Y-76676523D01*
X133102279Y-76790581D01*
X133126584Y-76829262D01*
X133254138Y-76956816D01*
X133406878Y-77052789D01*
X133577145Y-77112368D01*
X133664069Y-77122161D01*
X133728480Y-77149226D01*
X133737865Y-77157700D01*
X133881581Y-77301416D01*
X133915066Y-77362739D01*
X133917900Y-77389097D01*
X133917900Y-87682099D01*
X133898215Y-87749138D01*
X133845411Y-87794893D01*
X133832907Y-87799803D01*
X133800362Y-87810588D01*
X133749068Y-87827585D01*
X133749063Y-87827587D01*
X133599742Y-87919689D01*
X133475689Y-88043742D01*
X133383587Y-88193063D01*
X133383586Y-88193066D01*
X133328401Y-88359603D01*
X133328401Y-88359604D01*
X133328400Y-88359604D01*
X133317900Y-88462383D01*
X133317900Y-89087401D01*
X133317901Y-89087419D01*
X133328400Y-89190196D01*
X133328401Y-89190199D01*
X133383585Y-89356731D01*
X133383587Y-89356736D01*
X133475689Y-89506057D01*
X133569351Y-89599719D01*
X133602836Y-89661042D01*
X133597852Y-89730734D01*
X133569351Y-89775081D01*
X133475689Y-89868742D01*
X133431431Y-89940497D01*
X133379483Y-89987221D01*
X133325892Y-89999400D01*
X132358108Y-89999400D01*
X132291069Y-89979715D01*
X132252569Y-89940497D01*
X132208312Y-89868744D01*
X132114649Y-89775081D01*
X132081164Y-89713758D01*
X132086148Y-89644066D01*
X132114649Y-89599719D01*
X132208312Y-89506056D01*
X132300414Y-89356734D01*
X132355599Y-89190197D01*
X132366100Y-89087409D01*
X132366099Y-88462392D01*
X132355599Y-88359603D01*
X132300414Y-88193066D01*
X132208312Y-88043744D01*
X132084256Y-87919688D01*
X131934934Y-87827586D01*
X131851095Y-87799804D01*
X131793651Y-87760032D01*
X131766828Y-87695516D01*
X131766100Y-87682099D01*
X131766100Y-80843496D01*
X131785785Y-80776457D01*
X131802415Y-80755819D01*
X132276335Y-80281898D01*
X132337656Y-80248415D01*
X132350111Y-80246363D01*
X132437055Y-80236568D01*
X132607322Y-80176989D01*
X132760062Y-80081016D01*
X132887616Y-79953462D01*
X132983589Y-79800722D01*
X133043168Y-79630455D01*
X133046724Y-79598897D01*
X133063365Y-79451203D01*
X133063365Y-79451196D01*
X133043169Y-79271950D01*
X133043168Y-79271945D01*
X132997954Y-79142731D01*
X132983589Y-79101678D01*
X132978900Y-79094216D01*
X132887615Y-78948937D01*
X132760062Y-78821384D01*
X132607323Y-78725411D01*
X132437054Y-78665831D01*
X132437049Y-78665830D01*
X132257804Y-78645635D01*
X132257796Y-78645635D01*
X132078550Y-78665830D01*
X132078545Y-78665831D01*
X131908276Y-78725411D01*
X131755537Y-78821384D01*
X131627984Y-78948937D01*
X131532010Y-79101678D01*
X131472430Y-79271950D01*
X131462637Y-79358868D01*
X131435570Y-79423282D01*
X131427098Y-79432665D01*
X131190381Y-79669383D01*
X131129058Y-79702868D01*
X131059367Y-79697884D01*
X131003433Y-79656013D01*
X130979016Y-79590548D01*
X130978700Y-79581702D01*
X130978700Y-74774745D01*
X130978700Y-74774743D01*
X130958778Y-74700392D01*
X130937777Y-74622015D01*
X130908839Y-74571895D01*
X130858720Y-74485084D01*
X130746916Y-74373280D01*
X130746915Y-74373279D01*
X130742585Y-74368949D01*
X130742574Y-74368939D01*
X129024500Y-72650865D01*
X128991015Y-72589542D01*
X128988963Y-72577086D01*
X128979168Y-72490145D01*
X128919589Y-72319878D01*
X128823616Y-72167138D01*
X128696062Y-72039584D01*
X128695425Y-72039184D01*
X128543323Y-71943611D01*
X128373054Y-71884031D01*
X128373049Y-71884030D01*
X128193804Y-71863835D01*
X128193796Y-71863835D01*
X128014550Y-71884030D01*
X128014545Y-71884031D01*
X127844276Y-71943611D01*
X127691537Y-72039584D01*
X127563984Y-72167137D01*
X127468011Y-72319876D01*
X127408431Y-72490145D01*
X127408430Y-72490150D01*
X127388235Y-72669396D01*
X127388235Y-72669403D01*
X122718430Y-72669403D01*
X127536306Y-67851528D01*
X127536311Y-67851524D01*
X127546514Y-67841320D01*
X127546516Y-67841320D01*
X127658320Y-67729516D01*
X127737377Y-67592584D01*
X127778300Y-67439857D01*
X127778300Y-65726801D01*
X133789900Y-65726801D01*
X133789901Y-65726819D01*
X133800400Y-65829596D01*
X133800401Y-65829599D01*
X133845545Y-65965832D01*
X133855586Y-65996134D01*
X133947688Y-66145456D01*
X134071744Y-66269512D01*
X134221066Y-66361614D01*
X134387603Y-66416799D01*
X134490391Y-66427300D01*
X135265408Y-66427299D01*
X135265416Y-66427298D01*
X135265419Y-66427298D01*
X135321702Y-66421548D01*
X135368197Y-66416799D01*
X135534734Y-66361614D01*
X135684056Y-66269512D01*
X135808112Y-66145456D01*
X135809861Y-66142619D01*
X135811569Y-66141083D01*
X135812593Y-66139789D01*
X135812814Y-66139963D01*
X135861806Y-66095896D01*
X135930768Y-66084672D01*
X135994851Y-66112513D01*
X136020937Y-66142617D01*
X136022688Y-66145456D01*
X136146744Y-66269512D01*
X136296066Y-66361614D01*
X136462603Y-66416799D01*
X136565391Y-66427300D01*
X137340408Y-66427299D01*
X137340416Y-66427298D01*
X137340419Y-66427298D01*
X137396702Y-66421548D01*
X137443197Y-66416799D01*
X137609734Y-66361614D01*
X137759056Y-66269512D01*
X137883112Y-66145456D01*
X137975214Y-65996134D01*
X137985835Y-65964081D01*
X138025603Y-65906640D01*
X138090118Y-65879815D01*
X138158894Y-65892128D01*
X138168628Y-65897544D01*
X138169066Y-65897814D01*
X138335603Y-65952999D01*
X138438391Y-65963500D01*
X139488408Y-65963499D01*
X139488416Y-65963498D01*
X139488419Y-65963498D01*
X139544702Y-65957748D01*
X139591197Y-65952999D01*
X139757734Y-65897814D01*
X139907056Y-65805712D01*
X139950412Y-65762355D01*
X140011733Y-65728869D01*
X140072536Y-65732597D01*
X140072760Y-65731619D01*
X140078705Y-65732976D01*
X140079059Y-65732997D01*
X140079545Y-65733168D01*
X140079548Y-65733168D01*
X140079552Y-65733169D01*
X140258796Y-65753365D01*
X140258800Y-65753365D01*
X140258804Y-65753365D01*
X140438049Y-65733169D01*
X140438052Y-65733168D01*
X140438055Y-65733168D01*
X140608322Y-65673589D01*
X140761062Y-65577616D01*
X140888616Y-65450062D01*
X140984589Y-65297322D01*
X141044168Y-65127055D01*
X141064365Y-64947800D01*
X141044168Y-64768545D01*
X140984589Y-64598278D01*
X140888616Y-64445538D01*
X140761062Y-64317984D01*
X140671070Y-64261438D01*
X140608323Y-64222011D01*
X140438054Y-64162431D01*
X140438049Y-64162430D01*
X140258804Y-64142235D01*
X140258796Y-64142235D01*
X140079550Y-64162430D01*
X140079540Y-64162432D01*
X140056524Y-64170486D01*
X139986745Y-64174045D01*
X139927892Y-64141124D01*
X139907057Y-64120289D01*
X139907056Y-64120288D01*
X139780109Y-64041987D01*
X139757736Y-64028187D01*
X139757731Y-64028185D01*
X139756262Y-64027698D01*
X139591197Y-63973001D01*
X139591195Y-63973000D01*
X139488410Y-63962500D01*
X138438398Y-63962500D01*
X138438380Y-63962501D01*
X138335603Y-63973000D01*
X138335600Y-63973001D01*
X138169068Y-64028185D01*
X138169063Y-64028187D01*
X138019744Y-64120288D01*
X137970179Y-64169852D01*
X137908855Y-64203336D01*
X137839163Y-64198350D01*
X137794818Y-64169850D01*
X137759057Y-64134089D01*
X137759056Y-64134088D01*
X137609734Y-64041986D01*
X137443197Y-63986801D01*
X137443195Y-63986800D01*
X137340416Y-63976300D01*
X137340409Y-63976300D01*
X136690700Y-63976300D01*
X136623661Y-63956615D01*
X136577906Y-63903811D01*
X136566700Y-63852300D01*
X136566700Y-62474899D01*
X136586385Y-62407860D01*
X136639189Y-62362105D01*
X136690700Y-62350899D01*
X136780408Y-62350899D01*
X136780416Y-62350899D01*
X136912612Y-62340496D01*
X137130883Y-62285496D01*
X137335826Y-62192407D01*
X137520854Y-62064219D01*
X137680019Y-61905054D01*
X137808207Y-61720026D01*
X137901296Y-61515083D01*
X137901297Y-61515075D01*
X137903137Y-61509823D01*
X137905484Y-61510644D01*
X137935542Y-61459554D01*
X137997904Y-61428046D01*
X138067400Y-61435256D01*
X138119642Y-61475683D01*
X138260454Y-61663787D01*
X138260470Y-61663805D01*
X138462794Y-61866129D01*
X138462812Y-61866145D01*
X138691882Y-62037624D01*
X138691890Y-62037629D01*
X138943033Y-62174764D01*
X138943032Y-62174764D01*
X138943036Y-62174765D01*
X138943039Y-62174767D01*
X139211154Y-62274769D01*
X139211160Y-62274770D01*
X139211162Y-62274771D01*
X139490766Y-62335595D01*
X139490768Y-62335595D01*
X139490772Y-62335596D01*
X139744420Y-62353737D01*
X139776199Y-62356010D01*
X139776200Y-62356010D01*
X139776201Y-62356010D01*
X139804795Y-62353964D01*
X140061628Y-62335596D01*
X140341246Y-62274769D01*
X140609361Y-62174767D01*
X140860515Y-62037626D01*
X141089595Y-61866139D01*
X141291939Y-61663795D01*
X141463426Y-61434715D01*
X141600567Y-61183561D01*
X141700569Y-60915446D01*
X141737373Y-60746259D01*
X141761395Y-60635833D01*
X141761395Y-60635832D01*
X141761396Y-60635828D01*
X141780691Y-60366042D01*
X141781810Y-60350401D01*
X141781810Y-60350398D01*
X141773881Y-60239536D01*
X141761396Y-60064972D01*
X141730591Y-59923365D01*
X141700571Y-59785362D01*
X141700570Y-59785360D01*
X141700569Y-59785354D01*
X141600567Y-59517239D01*
X141508965Y-59349484D01*
X141463429Y-59266090D01*
X141463424Y-59266082D01*
X141291945Y-59037012D01*
X141291929Y-59036994D01*
X141089605Y-58834670D01*
X141089587Y-58834654D01*
X140860517Y-58663175D01*
X140860509Y-58663170D01*
X140609366Y-58526035D01*
X140609367Y-58526035D01*
X140502115Y-58486032D01*
X140341246Y-58426031D01*
X140341243Y-58426030D01*
X140341237Y-58426028D01*
X140061633Y-58365204D01*
X139776201Y-58344790D01*
X139776199Y-58344790D01*
X139490766Y-58365204D01*
X139211162Y-58426028D01*
X138943033Y-58526035D01*
X138691890Y-58663170D01*
X138691882Y-58663175D01*
X138462812Y-58834654D01*
X138462794Y-58834670D01*
X138260470Y-59036994D01*
X138260460Y-59037006D01*
X138119642Y-59225117D01*
X138063708Y-59266988D01*
X137994017Y-59271972D01*
X137932694Y-59238487D01*
X137905314Y-59190214D01*
X137903137Y-59190977D01*
X137901296Y-59185718D01*
X137835770Y-59041458D01*
X137808207Y-58980774D01*
X137706986Y-58834670D01*
X137680025Y-58795754D01*
X137680022Y-58795750D01*
X137680019Y-58795746D01*
X137520854Y-58636581D01*
X137520850Y-58636578D01*
X137520845Y-58636574D01*
X137335832Y-58508397D01*
X137335830Y-58508395D01*
X137335826Y-58508393D01*
X137154499Y-58426031D01*
X137130881Y-58415303D01*
X137130878Y-58415302D01*
X136912620Y-58360305D01*
X136912613Y-58360304D01*
X136868547Y-58356836D01*
X136780417Y-58349900D01*
X136780415Y-58349900D01*
X135151991Y-58349900D01*
X135151976Y-58349901D01*
X135019786Y-58360304D01*
X135019779Y-58360305D01*
X134801521Y-58415302D01*
X134801518Y-58415303D01*
X134596577Y-58508391D01*
X134596567Y-58508397D01*
X134411554Y-58636574D01*
X134411542Y-58636584D01*
X134252384Y-58795742D01*
X134252374Y-58795754D01*
X134124197Y-58980767D01*
X134124191Y-58980777D01*
X134031103Y-59185718D01*
X134031102Y-59185721D01*
X133976105Y-59403979D01*
X133976104Y-59403986D01*
X133965700Y-59536177D01*
X133965700Y-61164608D01*
X133965701Y-61164623D01*
X133976104Y-61296813D01*
X133976105Y-61296820D01*
X134031102Y-61515078D01*
X134031103Y-61515081D01*
X134124191Y-61720022D01*
X134124197Y-61720032D01*
X134252374Y-61905045D01*
X134252378Y-61905050D01*
X134252381Y-61905054D01*
X134411546Y-62064219D01*
X134411550Y-62064222D01*
X134411554Y-62064225D01*
X134534770Y-62149589D01*
X134596574Y-62192407D01*
X134801517Y-62285496D01*
X134801521Y-62285497D01*
X135019779Y-62340494D01*
X135019781Y-62340494D01*
X135019788Y-62340496D01*
X135151983Y-62350900D01*
X135241700Y-62350899D01*
X135308738Y-62370583D01*
X135354494Y-62423386D01*
X135365700Y-62474899D01*
X135365700Y-63813402D01*
X135346015Y-63880441D01*
X135329380Y-63901084D01*
X135290481Y-63939982D01*
X135229158Y-63973467D01*
X135202801Y-63976300D01*
X134490398Y-63976300D01*
X134490380Y-63976301D01*
X134387603Y-63986800D01*
X134387600Y-63986801D01*
X134221068Y-64041985D01*
X134221063Y-64041987D01*
X134071742Y-64134089D01*
X133947689Y-64258142D01*
X133855587Y-64407463D01*
X133855586Y-64407466D01*
X133800401Y-64574003D01*
X133800401Y-64574004D01*
X133800400Y-64574004D01*
X133789900Y-64676783D01*
X133789900Y-65726801D01*
X127778300Y-65726801D01*
X127778300Y-62201100D01*
X127797985Y-62134061D01*
X127850789Y-62088306D01*
X127902300Y-62077100D01*
X128260526Y-62077100D01*
X128260530Y-62077100D01*
X128331114Y-62070686D01*
X128493547Y-62020070D01*
X128568485Y-61974768D01*
X128639141Y-61932056D01*
X128639142Y-61932054D01*
X128639147Y-61932052D01*
X128759452Y-61811747D01*
X128760327Y-61810301D01*
X128814899Y-61720026D01*
X128847470Y-61666147D01*
X128898086Y-61503714D01*
X128904500Y-61433130D01*
X128904500Y-59420070D01*
X128898086Y-59349486D01*
X128872096Y-59266082D01*
X128847471Y-59187055D01*
X128847469Y-59187051D01*
X128759456Y-59041458D01*
X128759452Y-59041453D01*
X128639146Y-58921147D01*
X128639141Y-58921143D01*
X128493548Y-58833130D01*
X128493544Y-58833128D01*
X128331114Y-58782514D01*
X128331116Y-58782514D01*
X128307586Y-58780376D01*
X128260530Y-58776100D01*
X126247470Y-58776100D01*
X126200414Y-58780376D01*
X126176884Y-58782514D01*
X126014455Y-58833128D01*
X126014451Y-58833130D01*
X125868858Y-58921143D01*
X125868853Y-58921147D01*
X125748547Y-59041453D01*
X125748543Y-59041458D01*
X125660530Y-59187051D01*
X125660528Y-59187055D01*
X125609914Y-59349484D01*
X125609914Y-59349486D01*
X125603500Y-59420070D01*
X125603500Y-61433130D01*
X125605901Y-61459554D01*
X125609914Y-61503715D01*
X125660528Y-61666144D01*
X125660530Y-61666148D01*
X125748543Y-61811741D01*
X125748547Y-61811746D01*
X125868853Y-61932052D01*
X125868858Y-61932056D01*
X126014451Y-62020069D01*
X126014455Y-62020071D01*
X126070786Y-62037624D01*
X126176886Y-62070686D01*
X126247470Y-62077100D01*
X126453300Y-62077100D01*
X126520339Y-62096785D01*
X126566094Y-62149589D01*
X126577300Y-62201100D01*
X126577300Y-67060702D01*
X126557615Y-67127741D01*
X126540981Y-67148383D01*
X117398883Y-76290480D01*
X117337560Y-76323965D01*
X117297319Y-76326019D01*
X117144804Y-76308835D01*
X117144796Y-76308835D01*
X116965550Y-76329030D01*
X116965545Y-76329031D01*
X116795276Y-76388611D01*
X116642537Y-76484584D01*
X116514984Y-76612137D01*
X116419011Y-76764876D01*
X116359431Y-76935145D01*
X116359430Y-76935150D01*
X116339235Y-77114396D01*
X116339235Y-77114403D01*
X112384639Y-77114403D01*
X112380557Y-76920276D01*
X112380557Y-76915141D01*
X112399899Y-75995387D01*
X112400116Y-75990234D01*
X112458106Y-75072156D01*
X112458539Y-75067017D01*
X112555076Y-74152171D01*
X112555726Y-74147045D01*
X112690637Y-73237076D01*
X112691502Y-73231981D01*
X112864551Y-72328489D01*
X112865628Y-72323439D01*
X113076509Y-71428009D01*
X113077799Y-71423007D01*
X113326143Y-70537221D01*
X113327643Y-70532279D01*
X113612994Y-69657752D01*
X113614690Y-69652901D01*
X113936568Y-68791110D01*
X113938477Y-68786310D01*
X114296294Y-67938830D01*
X114298388Y-67934146D01*
X114691528Y-67102437D01*
X114693850Y-67097783D01*
X114693851Y-67097782D01*
X115121589Y-66283372D01*
X115124075Y-66278872D01*
X115585690Y-65483138D01*
X115588379Y-65478720D01*
X116083023Y-64703121D01*
X116085894Y-64698822D01*
X116612725Y-63944682D01*
X116615772Y-63940511D01*
X117173820Y-63209213D01*
X117177060Y-63205148D01*
X117449656Y-62877463D01*
X117765362Y-62497956D01*
X117768719Y-62494087D01*
X118386262Y-61812220D01*
X118389807Y-61808467D01*
X119035466Y-61153166D01*
X119039136Y-61149595D01*
X119668938Y-60561985D01*
X119681112Y-60552978D01*
X119680861Y-60552651D01*
X119687308Y-60547703D01*
X119687314Y-60547700D01*
X119721624Y-60513388D01*
X119726603Y-60508679D01*
X119762780Y-60476323D01*
X119763489Y-60475237D01*
X119779589Y-60455424D01*
X119780500Y-60454514D01*
X119804776Y-60412465D01*
X119808358Y-60406644D01*
X119834920Y-60366037D01*
X119835320Y-60364816D01*
X119845745Y-60341506D01*
X119846392Y-60340386D01*
X119858947Y-60293522D01*
X119860919Y-60286908D01*
X119876058Y-60240839D01*
X119876129Y-60239553D01*
X119880166Y-60214337D01*
X119880500Y-60213092D01*
X119880500Y-60164587D01*
X119880692Y-60157687D01*
X119883391Y-60109259D01*
X119883125Y-60107986D01*
X119880500Y-60082606D01*
X119880500Y-54420413D01*
X119880618Y-54415005D01*
X119890432Y-54190206D01*
X119897385Y-54030933D01*
X119898324Y-54020203D01*
X119948151Y-53641726D01*
X119950021Y-53631119D01*
X120032648Y-53258410D01*
X120035438Y-53248001D01*
X120150228Y-52883933D01*
X120153915Y-52873801D01*
X120300001Y-52521117D01*
X120304554Y-52511353D01*
X120480834Y-52172721D01*
X120486212Y-52163407D01*
X120691317Y-51841457D01*
X120697508Y-51832614D01*
X120929884Y-51529776D01*
X120936834Y-51521493D01*
X121194734Y-51240043D01*
X121202350Y-51232428D01*
X121295808Y-51146789D01*
X121358531Y-51116012D01*
X121427939Y-51124032D01*
G37*
%TD.AperFunction*%
%TD*%
M02*
