%TF.GenerationSoftware,KiCad,Pcbnew,8.0.1*%
%TF.CreationDate,2024-08-07T16:32:43+02:00*%
%TF.ProjectId,TEP000,54455030-3030-42e6-9b69-6361645f7063,rev?*%
%TF.SameCoordinates,Original*%
%TF.FileFunction,Copper,L2,Bot*%
%TF.FilePolarity,Positive*%
%FSLAX46Y46*%
G04 Gerber Fmt 4.6, Leading zero omitted, Abs format (unit mm)*
G04 Created by KiCad (PCBNEW 8.0.1) date 2024-08-07 16:32:43*
%MOMM*%
%LPD*%
G01*
G04 APERTURE LIST*
G04 Aperture macros list*
%AMRoundRect*
0 Rectangle with rounded corners*
0 $1 Rounding radius*
0 $2 $3 $4 $5 $6 $7 $8 $9 X,Y pos of 4 corners*
0 Add a 4 corners polygon primitive as box body*
4,1,4,$2,$3,$4,$5,$6,$7,$8,$9,$2,$3,0*
0 Add four circle primitives for the rounded corners*
1,1,$1+$1,$2,$3*
1,1,$1+$1,$4,$5*
1,1,$1+$1,$6,$7*
1,1,$1+$1,$8,$9*
0 Add four rect primitives between the rounded corners*
20,1,$1+$1,$2,$3,$4,$5,0*
20,1,$1+$1,$4,$5,$6,$7,0*
20,1,$1+$1,$6,$7,$8,$9,0*
20,1,$1+$1,$8,$9,$2,$3,0*%
G04 Aperture macros list end*
%TA.AperFunction,ComponentPad*%
%ADD10RoundRect,0.200100X0.949900X-0.949900X0.949900X0.949900X-0.949900X0.949900X-0.949900X-0.949900X0*%
%TD*%
%TA.AperFunction,ComponentPad*%
%ADD11C,2.500000*%
%TD*%
%TA.AperFunction,ComponentPad*%
%ADD12RoundRect,0.750000X-0.750000X-0.750000X0.750000X-0.750000X0.750000X0.750000X-0.750000X0.750000X0*%
%TD*%
%TA.AperFunction,ComponentPad*%
%ADD13C,3.000000*%
%TD*%
%TA.AperFunction,SMDPad,CuDef*%
%ADD14R,4.550000X1.000000*%
%TD*%
%TA.AperFunction,SMDPad,CuDef*%
%ADD15RoundRect,0.218750X0.256250X-0.218750X0.256250X0.218750X-0.256250X0.218750X-0.256250X-0.218750X0*%
%TD*%
%TA.AperFunction,SMDPad,CuDef*%
%ADD16RoundRect,0.218750X0.218750X0.256250X-0.218750X0.256250X-0.218750X-0.256250X0.218750X-0.256250X0*%
%TD*%
%TA.AperFunction,SMDPad,CuDef*%
%ADD17RoundRect,0.218750X-0.218750X-0.256250X0.218750X-0.256250X0.218750X0.256250X-0.218750X0.256250X0*%
%TD*%
%TA.AperFunction,SMDPad,CuDef*%
%ADD18R,1.000000X4.550000*%
%TD*%
%TA.AperFunction,SMDPad,CuDef*%
%ADD19RoundRect,0.218750X-0.256250X0.218750X-0.256250X-0.218750X0.256250X-0.218750X0.256250X0.218750X0*%
%TD*%
%TA.AperFunction,ViaPad*%
%ADD20C,0.600000*%
%TD*%
%TA.AperFunction,Conductor*%
%ADD21C,0.200000*%
%TD*%
G04 APERTURE END LIST*
D10*
%TO.P,J1,1,In*%
%TO.N,Net-(J1-In)*%
X127254000Y-60426600D03*
D11*
%TO.P,J1,2,Ext*%
%TO.N,GND*%
X124714000Y-62966600D03*
X129794000Y-62966600D03*
X124714000Y-57886600D03*
X129794000Y-57886600D03*
%TD*%
D12*
%TO.P,J2,1,Pin_1*%
%TO.N,Net-(J2-Pin_1)*%
X135966200Y-60350400D03*
D13*
%TO.P,J2,2,Pin_2*%
%TO.N,unconnected-(J2-Pin_2-Pad2)*%
X139776200Y-60350400D03*
%TO.P,J2,3,Pin_3*%
%TO.N,GND*%
X143586200Y-60350400D03*
%TD*%
D14*
%TO.P,D8,1,K*%
%TO.N,+5V*%
X127381000Y-74561200D03*
%TO.P,D8,2,A*%
%TO.N,Net-(D5-A)*%
X127381000Y-79261200D03*
%TD*%
%TO.P,D6,1,K*%
%TO.N,+5V*%
X141376400Y-79279000D03*
%TO.P,D6,2,A*%
%TO.N,Net-(D5-A)*%
X141376400Y-74579000D03*
%TD*%
D15*
%TO.P,D2,1,K*%
%TO.N,GND*%
X136372600Y-77368500D03*
%TO.P,D2,2,A*%
%TO.N,Net-(D2-A)*%
X136372600Y-75793500D03*
%TD*%
D16*
%TO.P,D1,1,K*%
%TO.N,GND*%
X134874100Y-74904600D03*
%TO.P,D1,2,A*%
%TO.N,Net-(D1-A)*%
X133299100Y-74904600D03*
%TD*%
D17*
%TO.P,D3,1,K*%
%TO.N,GND*%
X133934100Y-78892400D03*
%TO.P,D3,2,A*%
%TO.N,Net-(D3-A)*%
X135509100Y-78892400D03*
%TD*%
D18*
%TO.P,D7,1,K*%
%TO.N,+5V*%
X132016000Y-83921600D03*
%TO.P,D7,2,A*%
%TO.N,Net-(D5-A)*%
X136716000Y-83921600D03*
%TD*%
%TO.P,D5,1,K*%
%TO.N,+5V*%
X136759200Y-69926200D03*
%TO.P,D5,2,A*%
%TO.N,Net-(D5-A)*%
X132059200Y-69926200D03*
%TD*%
D19*
%TO.P,D4,1,K*%
%TO.N,GND*%
X132384800Y-76453900D03*
%TO.P,D4,2,A*%
%TO.N,Net-(D4-A)*%
X132384800Y-78028900D03*
%TD*%
D20*
%TO.N,+5V*%
X143459200Y-84582000D03*
%TO.N,Net-(D5-A)*%
X130327400Y-69850000D03*
X137871200Y-78084200D03*
%TO.N,-3V3*%
X146354800Y-74422000D03*
X121996200Y-78663800D03*
%TO.N,Net-(J1-In)*%
X117144800Y-77114400D03*
X118160800Y-83616800D03*
%TO.N,+3V3*%
X124256800Y-78308200D03*
X154406600Y-82118200D03*
%TO.N,Net-(D2-A)*%
X137617200Y-75666600D03*
%TO.N,Net-(D3-A)*%
X136144000Y-80314800D03*
%TO.N,Net-(D1-A)*%
X133756400Y-76327000D03*
%TO.N,Net-(D4-A)*%
X132257800Y-79451200D03*
%TO.N,Net-(U4--IN)*%
X154533600Y-75361800D03*
X146202400Y-76962000D03*
%TO.N,+5V*%
X130378200Y-84124800D03*
X128193800Y-72669400D03*
X140258800Y-64947800D03*
X146456400Y-66751200D03*
X148539200Y-69037200D03*
%TO.N,Net-(D5-A)*%
X125730000Y-80518000D03*
%TO.N,Net-(C2-Pad2)*%
X121833700Y-81860200D03*
X119547700Y-77212000D03*
%TD*%
D21*
%TO.N,Net-(D5-A)*%
X131983000Y-69850000D02*
X132059200Y-69926200D01*
X130327400Y-69850000D02*
X131983000Y-69850000D01*
%TO.N,+5V*%
X141533800Y-82656600D02*
X141356000Y-82656600D01*
X143459200Y-84582000D02*
X141533800Y-82656600D01*
X141356000Y-82656600D02*
X137516000Y-86496600D01*
X141376400Y-82636200D02*
X141356000Y-82656600D01*
%TO.N,-3V3*%
X145602400Y-75174400D02*
X146354800Y-74422000D01*
X145602400Y-77225600D02*
X145602400Y-75174400D01*
X145938800Y-77562000D02*
X145602400Y-77225600D01*
X150891800Y-77562000D02*
X145938800Y-77562000D01*
X121996200Y-78663800D02*
X130629000Y-87296600D01*
X155006600Y-82381800D02*
X155006600Y-81676800D01*
X150091800Y-87296600D02*
X155006600Y-82381800D01*
X155006600Y-81676800D02*
X150891800Y-77562000D01*
X130629000Y-87296600D02*
X150091800Y-87296600D01*
%TO.N,Net-(J1-In)*%
X117144800Y-82600800D02*
X117144800Y-77114400D01*
X118160800Y-83616800D02*
X117144800Y-82600800D01*
%TO.N,+3V3*%
X149628200Y-86896600D02*
X131260071Y-86896600D01*
X154406600Y-82118200D02*
X149628200Y-86896600D01*
X131260071Y-86896600D02*
X124256800Y-79893329D01*
X124256800Y-79893329D02*
X124256800Y-78308200D01*
%TO.N,Net-(D2-A)*%
X137617200Y-75666600D02*
X136499500Y-75666600D01*
X136499500Y-75666600D02*
X136372600Y-75793500D01*
%TO.N,Net-(D3-A)*%
X136144000Y-79527300D02*
X135509100Y-78892400D01*
X136144000Y-80314800D02*
X136144000Y-79527300D01*
%TO.N,Net-(D1-A)*%
X133756400Y-75361900D02*
X133299100Y-74904600D01*
X133756400Y-76327000D02*
X133756400Y-75361900D01*
%TO.N,Net-(D4-A)*%
X132257800Y-79451200D02*
X132257800Y-78155900D01*
X132257800Y-78155900D02*
X132384800Y-78028900D01*
%TO.N,Net-(U4--IN)*%
X153060400Y-76835000D02*
X154533600Y-75361800D01*
X146329400Y-76835000D02*
X153060400Y-76835000D01*
X146202400Y-76962000D02*
X146329400Y-76835000D01*
%TO.N,+5V*%
X127381000Y-73482200D02*
X127381000Y-74561200D01*
X128193800Y-72669400D02*
X127381000Y-73482200D01*
X130581400Y-83921600D02*
X130378200Y-84124800D01*
X132016000Y-83921600D02*
X130581400Y-83921600D01*
X137516000Y-86496600D02*
X134591000Y-86496600D01*
X134591000Y-86496600D02*
X132016000Y-83921600D01*
X141376400Y-79279000D02*
X141376400Y-82636200D01*
X143951400Y-76704000D02*
X141376400Y-79279000D01*
X143951400Y-73779000D02*
X143951400Y-76704000D01*
X140098600Y-69926200D02*
X143951400Y-73779000D01*
X136759200Y-69926200D02*
X140098600Y-69926200D01*
X140258800Y-66426600D02*
X136759200Y-69926200D01*
X140258800Y-64947800D02*
X140258800Y-66426600D01*
X142062200Y-66751200D02*
X146456400Y-66751200D01*
X140258800Y-64947800D02*
X142062200Y-66751200D01*
X148234400Y-68529200D02*
X146456400Y-66751200D01*
X148234400Y-68732400D02*
X148234400Y-68529200D01*
X148539200Y-69037200D02*
X148234400Y-68732400D01*
%TO.N,Net-(D5-A)*%
X126986800Y-79261200D02*
X125730000Y-80518000D01*
X127381000Y-79261200D02*
X126986800Y-79261200D01*
X136716000Y-81419200D02*
X136716000Y-83921600D01*
X137871200Y-80264000D02*
X136716000Y-81419200D01*
X137871200Y-78084200D02*
X137871200Y-80264000D01*
X141376400Y-74579000D02*
X137871200Y-78084200D01*
X128587000Y-80467200D02*
X127381000Y-79261200D01*
X136716000Y-83921600D02*
X133261600Y-80467200D01*
X133261600Y-80467200D02*
X128587000Y-80467200D01*
%TO.N,Net-(C2-Pad2)*%
X119547700Y-79574200D02*
X119547700Y-77212000D01*
X121833700Y-81860200D02*
X119547700Y-79574200D01*
%TD*%
%TA.AperFunction,Conductor*%
%TO.N,GND*%
G36*
X121427939Y-51124032D02*
G01*
X121481993Y-51168303D01*
X121503531Y-51234770D01*
X121492375Y-51289720D01*
X121485674Y-51304392D01*
X121415129Y-51544646D01*
X121415126Y-51544657D01*
X121379492Y-51792502D01*
X121379492Y-52042897D01*
X121415126Y-52290742D01*
X121415129Y-52290753D01*
X121485674Y-52531007D01*
X121589685Y-52758760D01*
X121589694Y-52758777D01*
X121725066Y-52969419D01*
X121725072Y-52969426D01*
X121889040Y-53158657D01*
X121889042Y-53158659D01*
X122078273Y-53322627D01*
X122078280Y-53322633D01*
X122288922Y-53458005D01*
X122288939Y-53458014D01*
X122516692Y-53562025D01*
X122516696Y-53562026D01*
X122516698Y-53562027D01*
X122756952Y-53632572D01*
X122756954Y-53632572D01*
X122756957Y-53632573D01*
X122805851Y-53639602D01*
X123004801Y-53668208D01*
X123004802Y-53668208D01*
X145703859Y-53668208D01*
X145704104Y-53668192D01*
X145755195Y-53668192D01*
X145755198Y-53668192D01*
X145958625Y-53638943D01*
X146003039Y-53632558D01*
X146003040Y-53632557D01*
X146003044Y-53632557D01*
X146243297Y-53562012D01*
X146243300Y-53562010D01*
X146243302Y-53562010D01*
X146471052Y-53458000D01*
X146471056Y-53457997D01*
X146471064Y-53457994D01*
X146681710Y-53322620D01*
X146870946Y-53158646D01*
X147034920Y-52969410D01*
X147170294Y-52758764D01*
X147170297Y-52758756D01*
X147170300Y-52758752D01*
X147274310Y-52531002D01*
X147274310Y-52531000D01*
X147274312Y-52530997D01*
X147344857Y-52290744D01*
X147380492Y-52042898D01*
X147380492Y-51792502D01*
X147344857Y-51544656D01*
X147274312Y-51304403D01*
X147269566Y-51294012D01*
X147267604Y-51289714D01*
X147257661Y-51220555D01*
X147286687Y-51157000D01*
X147345466Y-51119226D01*
X147415335Y-51119227D01*
X147464170Y-51146780D01*
X147557632Y-51232423D01*
X147565270Y-51240060D01*
X147726655Y-51416181D01*
X147823159Y-51521497D01*
X147830108Y-51529780D01*
X147841524Y-51544657D01*
X148062472Y-51832602D01*
X148068677Y-51841463D01*
X148273771Y-52163397D01*
X148279179Y-52172765D01*
X148455427Y-52511335D01*
X148459996Y-52521132D01*
X148606071Y-52873792D01*
X148609768Y-52883948D01*
X148724548Y-53247986D01*
X148727347Y-53258433D01*
X148809964Y-53631093D01*
X148809965Y-53631095D01*
X148811843Y-53641749D01*
X148861664Y-54020179D01*
X148862607Y-54030956D01*
X148879382Y-54415197D01*
X148879500Y-54420605D01*
X148879500Y-60082607D01*
X148876875Y-60107987D01*
X148876609Y-60109257D01*
X148876609Y-60109259D01*
X148879308Y-60157688D01*
X148879500Y-60164588D01*
X148879500Y-60213096D01*
X148879837Y-60214352D01*
X148883869Y-60239536D01*
X148883941Y-60240839D01*
X148899080Y-60286913D01*
X148901050Y-60293523D01*
X148913608Y-60340388D01*
X148913610Y-60340392D01*
X148914262Y-60341521D01*
X148924668Y-60364787D01*
X148925079Y-60366037D01*
X148925081Y-60366042D01*
X148951639Y-60406644D01*
X148955253Y-60412520D01*
X148979497Y-60454511D01*
X148979498Y-60454512D01*
X148979500Y-60454515D01*
X148980415Y-60455430D01*
X148996506Y-60475233D01*
X148997220Y-60476324D01*
X148997224Y-60476328D01*
X149033383Y-60508669D01*
X149038398Y-60513413D01*
X149072684Y-60547700D01*
X149079129Y-60552645D01*
X149078880Y-60552969D01*
X149091068Y-60561992D01*
X149720830Y-61149562D01*
X149724568Y-61153199D01*
X150370177Y-61808448D01*
X150373757Y-61812238D01*
X150861602Y-62350899D01*
X150991251Y-62494052D01*
X150994669Y-62497990D01*
X151582932Y-63205136D01*
X151586182Y-63209213D01*
X152144231Y-63940511D01*
X152147306Y-63944722D01*
X152674095Y-64698803D01*
X152676991Y-64703140D01*
X153171611Y-65478701D01*
X153174322Y-65483155D01*
X153635909Y-66278839D01*
X153638430Y-66283403D01*
X154066153Y-67097782D01*
X154068480Y-67102448D01*
X154461597Y-67934107D01*
X154463725Y-67938867D01*
X154821516Y-68786286D01*
X154823443Y-68791132D01*
X155145297Y-69652859D01*
X155147018Y-69657780D01*
X155432362Y-70532279D01*
X155433875Y-70537270D01*
X155682194Y-71422972D01*
X155683496Y-71428020D01*
X155894371Y-72323418D01*
X155895459Y-72328518D01*
X156068497Y-73231957D01*
X156069370Y-73237098D01*
X156204274Y-74147022D01*
X156204930Y-74152194D01*
X156301462Y-75066988D01*
X156301900Y-75072184D01*
X156359886Y-75990205D01*
X156360106Y-75995415D01*
X156379447Y-76915101D01*
X156379447Y-76920315D01*
X156360106Y-77840001D01*
X156359886Y-77845211D01*
X156301900Y-78763235D01*
X156301462Y-78768431D01*
X156204931Y-79683219D01*
X156204275Y-79688391D01*
X156069370Y-80598318D01*
X156068497Y-80603459D01*
X155895458Y-81506903D01*
X155894370Y-81512002D01*
X155851799Y-81692767D01*
X155817271Y-81753509D01*
X155755385Y-81785941D01*
X155685788Y-81779766D01*
X155630578Y-81736945D01*
X155607284Y-81671073D01*
X155607101Y-81664342D01*
X155607101Y-81597745D01*
X155607101Y-81597743D01*
X155566177Y-81445015D01*
X155515903Y-81357938D01*
X155487120Y-81308084D01*
X155375316Y-81196280D01*
X155375315Y-81196279D01*
X155370985Y-81191949D01*
X155370974Y-81191939D01*
X151826216Y-77647181D01*
X151792731Y-77585858D01*
X151797715Y-77516166D01*
X151839587Y-77460233D01*
X151905051Y-77435816D01*
X151913897Y-77435500D01*
X152973731Y-77435500D01*
X152973747Y-77435501D01*
X152981343Y-77435501D01*
X153139454Y-77435501D01*
X153139457Y-77435501D01*
X153292185Y-77394577D01*
X153354826Y-77358411D01*
X153429116Y-77315520D01*
X153540920Y-77203716D01*
X153540920Y-77203714D01*
X153551124Y-77193511D01*
X153551128Y-77193506D01*
X154552135Y-76192498D01*
X154613456Y-76159015D01*
X154625911Y-76156963D01*
X154712855Y-76147168D01*
X154883122Y-76087589D01*
X155035862Y-75991616D01*
X155163416Y-75864062D01*
X155259389Y-75711322D01*
X155318968Y-75541055D01*
X155318969Y-75541049D01*
X155339165Y-75361803D01*
X155339165Y-75361796D01*
X155318969Y-75182550D01*
X155318968Y-75182545D01*
X155300621Y-75130113D01*
X155259389Y-75012278D01*
X155163416Y-74859538D01*
X155035862Y-74731984D01*
X154975217Y-74693878D01*
X154883123Y-74636011D01*
X154712854Y-74576431D01*
X154712849Y-74576430D01*
X154533604Y-74556235D01*
X154533596Y-74556235D01*
X154354350Y-74576430D01*
X154354345Y-74576431D01*
X154184076Y-74636011D01*
X154031337Y-74731984D01*
X153903784Y-74859537D01*
X153807810Y-75012278D01*
X153748230Y-75182550D01*
X153738437Y-75269468D01*
X153711370Y-75333882D01*
X153702898Y-75343265D01*
X152847984Y-76198181D01*
X152786661Y-76231666D01*
X152760303Y-76234500D01*
X146568102Y-76234500D01*
X146527148Y-76227542D01*
X146381649Y-76176630D01*
X146313016Y-76168897D01*
X146248602Y-76141830D01*
X146209047Y-76084235D01*
X146202900Y-76045677D01*
X146202900Y-75474496D01*
X146222585Y-75407457D01*
X146239210Y-75386824D01*
X146373336Y-75252697D01*
X146434655Y-75219215D01*
X146447111Y-75217163D01*
X146534055Y-75207368D01*
X146704322Y-75147789D01*
X146857062Y-75051816D01*
X146984616Y-74924262D01*
X147080589Y-74771522D01*
X147140168Y-74601255D01*
X147140261Y-74600431D01*
X147160365Y-74422003D01*
X147160365Y-74421996D01*
X147140169Y-74242750D01*
X147140168Y-74242745D01*
X147087868Y-74093280D01*
X147080589Y-74072478D01*
X147054611Y-74031135D01*
X146996822Y-73939164D01*
X146984616Y-73919738D01*
X146857062Y-73792184D01*
X146744498Y-73721455D01*
X146704323Y-73696211D01*
X146534054Y-73636631D01*
X146534049Y-73636630D01*
X146354804Y-73616435D01*
X146354796Y-73616435D01*
X146175550Y-73636630D01*
X146175545Y-73636631D01*
X146005276Y-73696211D01*
X145852537Y-73792184D01*
X145724984Y-73919737D01*
X145629010Y-74072478D01*
X145569430Y-74242750D01*
X145559637Y-74329668D01*
X145532570Y-74394082D01*
X145524098Y-74403465D01*
X145233686Y-74693878D01*
X145121881Y-74805682D01*
X145121877Y-74805687D01*
X145090788Y-74859537D01*
X145078177Y-74881380D01*
X145056772Y-74918455D01*
X145043865Y-74940811D01*
X145042823Y-74942615D01*
X145001899Y-75095343D01*
X145001899Y-75095345D01*
X145001899Y-75263446D01*
X145001900Y-75263459D01*
X145001900Y-77138930D01*
X145001899Y-77138948D01*
X145001899Y-77304654D01*
X145001898Y-77304654D01*
X145001899Y-77304657D01*
X145025993Y-77394577D01*
X145042824Y-77457387D01*
X145057578Y-77482941D01*
X145057579Y-77482943D01*
X145121877Y-77594312D01*
X145121881Y-77594317D01*
X145240749Y-77713185D01*
X145240755Y-77713190D01*
X145453939Y-77926374D01*
X145453949Y-77926385D01*
X145458279Y-77930715D01*
X145458280Y-77930716D01*
X145570084Y-78042520D01*
X145570086Y-78042521D01*
X145570090Y-78042524D01*
X145707009Y-78121573D01*
X145707016Y-78121577D01*
X145818250Y-78151382D01*
X145818249Y-78151382D01*
X145829367Y-78154360D01*
X145859742Y-78162500D01*
X145859743Y-78162500D01*
X150591703Y-78162500D01*
X150658742Y-78182185D01*
X150679384Y-78198819D01*
X153848962Y-81368397D01*
X153882447Y-81429720D01*
X153877463Y-81499412D01*
X153848963Y-81543759D01*
X153776783Y-81615939D01*
X153680810Y-81768678D01*
X153621230Y-81938950D01*
X153611437Y-82025868D01*
X153584370Y-82090282D01*
X153575898Y-82099665D01*
X149415784Y-86259781D01*
X149354461Y-86293266D01*
X149328103Y-86296100D01*
X138865097Y-86296100D01*
X138798058Y-86276415D01*
X138752303Y-86223611D01*
X138742359Y-86154453D01*
X138771384Y-86090897D01*
X138777416Y-86084419D01*
X141357218Y-83504616D01*
X141418541Y-83471131D01*
X141488233Y-83476115D01*
X141532580Y-83504616D01*
X142628498Y-84600534D01*
X142661983Y-84661857D01*
X142664037Y-84674331D01*
X142673830Y-84761249D01*
X142733410Y-84931521D01*
X142804264Y-85044284D01*
X142829384Y-85084262D01*
X142956938Y-85211816D01*
X143109678Y-85307789D01*
X143279945Y-85367368D01*
X143279950Y-85367369D01*
X143459196Y-85387565D01*
X143459200Y-85387565D01*
X143459204Y-85387565D01*
X143638449Y-85367369D01*
X143638452Y-85367368D01*
X143638455Y-85367368D01*
X143808722Y-85307789D01*
X143961462Y-85211816D01*
X144089016Y-85084262D01*
X144184989Y-84931522D01*
X144244568Y-84761255D01*
X144254362Y-84674331D01*
X144264765Y-84582003D01*
X144264765Y-84581996D01*
X144244569Y-84402750D01*
X144244568Y-84402745D01*
X144244366Y-84402168D01*
X144184989Y-84232478D01*
X144089016Y-84079738D01*
X143961462Y-83952184D01*
X143950896Y-83945545D01*
X143808721Y-83856210D01*
X143638449Y-83796630D01*
X143551531Y-83786837D01*
X143487117Y-83759770D01*
X143477734Y-83751298D01*
X142021390Y-82294955D01*
X142021388Y-82294952D01*
X142013219Y-82286783D01*
X142010284Y-82281408D01*
X142005897Y-82276057D01*
X142005895Y-82276054D01*
X142006969Y-82275337D01*
X141979734Y-82225460D01*
X141976900Y-82199102D01*
X141976900Y-80403499D01*
X141996585Y-80336460D01*
X142049389Y-80290705D01*
X142100900Y-80279499D01*
X143699271Y-80279499D01*
X143699272Y-80279499D01*
X143758883Y-80273091D01*
X143893731Y-80222796D01*
X144008946Y-80136546D01*
X144095196Y-80021331D01*
X144145491Y-79886483D01*
X144151900Y-79826873D01*
X144151899Y-78731128D01*
X144145491Y-78671517D01*
X144142611Y-78663796D01*
X144095197Y-78536671D01*
X144095193Y-78536664D01*
X144008947Y-78421455D01*
X144008944Y-78421452D01*
X143893735Y-78335206D01*
X143893728Y-78335202D01*
X143758882Y-78284908D01*
X143758883Y-78284908D01*
X143699283Y-78278501D01*
X143699281Y-78278500D01*
X143699273Y-78278500D01*
X143699265Y-78278500D01*
X143525496Y-78278500D01*
X143458457Y-78258815D01*
X143412702Y-78206011D01*
X143402758Y-78136853D01*
X143431783Y-78073297D01*
X143437815Y-78066819D01*
X143858656Y-77645978D01*
X144309906Y-77194728D01*
X144309911Y-77194724D01*
X144320114Y-77184520D01*
X144320116Y-77184520D01*
X144431920Y-77072716D01*
X144485324Y-76980216D01*
X144510977Y-76935785D01*
X144551901Y-76783057D01*
X144551901Y-76624943D01*
X144551901Y-76617348D01*
X144551900Y-76617330D01*
X144551900Y-73868059D01*
X144551901Y-73868046D01*
X144551901Y-73699945D01*
X144551901Y-73699943D01*
X144510977Y-73547215D01*
X144469263Y-73474965D01*
X144431920Y-73410284D01*
X144320116Y-73298480D01*
X144320115Y-73298479D01*
X144315785Y-73294149D01*
X144315774Y-73294139D01*
X140586190Y-69564555D01*
X140586188Y-69564552D01*
X140467317Y-69445681D01*
X140467316Y-69445680D01*
X140365197Y-69386722D01*
X140330385Y-69366623D01*
X140177657Y-69325699D01*
X140019543Y-69325699D01*
X140011947Y-69325699D01*
X140011931Y-69325700D01*
X138508297Y-69325700D01*
X138441258Y-69306015D01*
X138395503Y-69253211D01*
X138385559Y-69184053D01*
X138414584Y-69120497D01*
X138420616Y-69114019D01*
X139458170Y-68076465D01*
X140739320Y-66795316D01*
X140818377Y-66658384D01*
X140826562Y-66627836D01*
X140862926Y-66568179D01*
X140925773Y-66537650D01*
X140995149Y-66545945D01*
X141034016Y-66572251D01*
X141693484Y-67231720D01*
X141693486Y-67231721D01*
X141693490Y-67231724D01*
X141830409Y-67310773D01*
X141830416Y-67310777D01*
X141983143Y-67351701D01*
X141983145Y-67351701D01*
X142148854Y-67351701D01*
X142148870Y-67351700D01*
X145873988Y-67351700D01*
X145941027Y-67371385D01*
X145951303Y-67378755D01*
X145954136Y-67381014D01*
X145954138Y-67381016D01*
X146106878Y-67476989D01*
X146277145Y-67536568D01*
X146364069Y-67546361D01*
X146428480Y-67573426D01*
X146437865Y-67581900D01*
X147599052Y-68743087D01*
X147632537Y-68804410D01*
X147633516Y-68810026D01*
X147674823Y-68964185D01*
X147701113Y-69009720D01*
X147701114Y-69009723D01*
X147724737Y-69050641D01*
X147740569Y-69098755D01*
X147753830Y-69216449D01*
X147813410Y-69386721D01*
X147850456Y-69445679D01*
X147909384Y-69539462D01*
X148036938Y-69667016D01*
X148189678Y-69762989D01*
X148359945Y-69822568D01*
X148359950Y-69822569D01*
X148539196Y-69842765D01*
X148539200Y-69842765D01*
X148539204Y-69842765D01*
X148718449Y-69822569D01*
X148718452Y-69822568D01*
X148718455Y-69822568D01*
X148888722Y-69762989D01*
X149041462Y-69667016D01*
X149169016Y-69539462D01*
X149264989Y-69386722D01*
X149324568Y-69216455D01*
X149334816Y-69125500D01*
X149344765Y-69037203D01*
X149344765Y-69037196D01*
X149324569Y-68857950D01*
X149324568Y-68857945D01*
X149264988Y-68687676D01*
X149225782Y-68625280D01*
X149169016Y-68534938D01*
X149041462Y-68407384D01*
X148888721Y-68311410D01*
X148823544Y-68288604D01*
X148766767Y-68247882D01*
X148757113Y-68233566D01*
X148714920Y-68160484D01*
X147287099Y-66732664D01*
X147253615Y-66671342D01*
X147251563Y-66658886D01*
X147241768Y-66571945D01*
X147182189Y-66401678D01*
X147086216Y-66248938D01*
X146958662Y-66121384D01*
X146947517Y-66114381D01*
X146805923Y-66025411D01*
X146635654Y-65965831D01*
X146635649Y-65965830D01*
X146456404Y-65945635D01*
X146456396Y-65945635D01*
X146277150Y-65965830D01*
X146277145Y-65965831D01*
X146106876Y-66025411D01*
X145954136Y-66121385D01*
X145951303Y-66123645D01*
X145949124Y-66124534D01*
X145948242Y-66125089D01*
X145948144Y-66124934D01*
X145886617Y-66150055D01*
X145873988Y-66150700D01*
X142362298Y-66150700D01*
X142295259Y-66131015D01*
X142274617Y-66114381D01*
X141089500Y-64929265D01*
X141056015Y-64867942D01*
X141053963Y-64855486D01*
X141044168Y-64768545D01*
X140984589Y-64598278D01*
X140888616Y-64445538D01*
X140761062Y-64317984D01*
X140608323Y-64222011D01*
X140438054Y-64162431D01*
X140438049Y-64162430D01*
X140258804Y-64142235D01*
X140258796Y-64142235D01*
X140079550Y-64162430D01*
X140079545Y-64162431D01*
X139909276Y-64222011D01*
X139756537Y-64317984D01*
X139628984Y-64445537D01*
X139533011Y-64598276D01*
X139473431Y-64768545D01*
X139473430Y-64768550D01*
X139453235Y-64947796D01*
X139453235Y-64947803D01*
X139473430Y-65127049D01*
X139473431Y-65127054D01*
X139533011Y-65297323D01*
X139628985Y-65450063D01*
X139631245Y-65452897D01*
X139632134Y-65455075D01*
X139632689Y-65455958D01*
X139632534Y-65456055D01*
X139657655Y-65517583D01*
X139658300Y-65530212D01*
X139658300Y-66126502D01*
X139638615Y-66193541D01*
X139621981Y-66214183D01*
X137971380Y-67864784D01*
X137910057Y-67898269D01*
X137840365Y-67893285D01*
X137784432Y-67851413D01*
X137760015Y-67785949D01*
X137759699Y-67777103D01*
X137759699Y-67603329D01*
X137759698Y-67603323D01*
X137759697Y-67603316D01*
X137753291Y-67543717D01*
X137750624Y-67536567D01*
X137702997Y-67408871D01*
X137702993Y-67408864D01*
X137616747Y-67293655D01*
X137616744Y-67293652D01*
X137501535Y-67207406D01*
X137501528Y-67207402D01*
X137366682Y-67157108D01*
X137366683Y-67157108D01*
X137307083Y-67150701D01*
X137307081Y-67150700D01*
X137307073Y-67150700D01*
X137307064Y-67150700D01*
X136211329Y-67150700D01*
X136211323Y-67150701D01*
X136151716Y-67157108D01*
X136016871Y-67207402D01*
X136016864Y-67207406D01*
X135901655Y-67293652D01*
X135901652Y-67293655D01*
X135815406Y-67408864D01*
X135815402Y-67408871D01*
X135765108Y-67543717D01*
X135758701Y-67603316D01*
X135758701Y-67603323D01*
X135758700Y-67603335D01*
X135758700Y-72249070D01*
X135758701Y-72249076D01*
X135765108Y-72308683D01*
X135815402Y-72443528D01*
X135815406Y-72443535D01*
X135901652Y-72558744D01*
X135901655Y-72558747D01*
X136016864Y-72644993D01*
X136016871Y-72644997D01*
X136151717Y-72695291D01*
X136151716Y-72695291D01*
X136158644Y-72696035D01*
X136211327Y-72701700D01*
X137307072Y-72701699D01*
X137366683Y-72695291D01*
X137501531Y-72644996D01*
X137616746Y-72558746D01*
X137702996Y-72443531D01*
X137753291Y-72308683D01*
X137759700Y-72249073D01*
X137759700Y-70650700D01*
X137779385Y-70583661D01*
X137832189Y-70537906D01*
X137883700Y-70526700D01*
X139798503Y-70526700D01*
X139865542Y-70546385D01*
X139886184Y-70563019D01*
X142689984Y-73366819D01*
X142723469Y-73428142D01*
X142718485Y-73497834D01*
X142676613Y-73553767D01*
X142611149Y-73578184D01*
X142602303Y-73578500D01*
X139053529Y-73578500D01*
X139053523Y-73578501D01*
X138993916Y-73584908D01*
X138859071Y-73635202D01*
X138859064Y-73635206D01*
X138743855Y-73721452D01*
X138743852Y-73721455D01*
X138657606Y-73836664D01*
X138657602Y-73836671D01*
X138607308Y-73971517D01*
X138600901Y-74031116D01*
X138600900Y-74031135D01*
X138600900Y-75126870D01*
X138600901Y-75126876D01*
X138607308Y-75186483D01*
X138657602Y-75321328D01*
X138657606Y-75321335D01*
X138743852Y-75436544D01*
X138743855Y-75436547D01*
X138859064Y-75522793D01*
X138859071Y-75522797D01*
X138904018Y-75539561D01*
X138993917Y-75573091D01*
X139053527Y-75579500D01*
X139227303Y-75579499D01*
X139294341Y-75599183D01*
X139340096Y-75651987D01*
X139350040Y-75721145D01*
X139321015Y-75784701D01*
X139314983Y-75791180D01*
X137852665Y-77253498D01*
X137791342Y-77286983D01*
X137778868Y-77289037D01*
X137691950Y-77298830D01*
X137521678Y-77358410D01*
X137368937Y-77454384D01*
X137241384Y-77581937D01*
X137145411Y-77734676D01*
X137085831Y-77904945D01*
X137085830Y-77904950D01*
X137065635Y-78084196D01*
X137065635Y-78084203D01*
X137085830Y-78263449D01*
X137085831Y-78263454D01*
X137145411Y-78433723D01*
X137180594Y-78489715D01*
X137231961Y-78571466D01*
X137241385Y-78586463D01*
X137243645Y-78589297D01*
X137244534Y-78591475D01*
X137245089Y-78592358D01*
X137244934Y-78592455D01*
X137270055Y-78653983D01*
X137270700Y-78666612D01*
X137270700Y-79963902D01*
X137251015Y-80030941D01*
X137234385Y-80051578D01*
X137172939Y-80113025D01*
X137126211Y-80159753D01*
X137064888Y-80193237D01*
X136995196Y-80188253D01*
X136939263Y-80146381D01*
X136921488Y-80113025D01*
X136869789Y-79965278D01*
X136833563Y-79907625D01*
X136773816Y-79812538D01*
X136773814Y-79812536D01*
X136773813Y-79812534D01*
X136771550Y-79809696D01*
X136770659Y-79807515D01*
X136770111Y-79806642D01*
X136770264Y-79806545D01*
X136745144Y-79745009D01*
X136744500Y-79732387D01*
X136744500Y-79448245D01*
X136744499Y-79448241D01*
X136715566Y-79340255D01*
X136715566Y-79340254D01*
X136703578Y-79295518D01*
X136703577Y-79295515D01*
X136672877Y-79242342D01*
X136646453Y-79196574D01*
X136646452Y-79196572D01*
X136624522Y-79158587D01*
X136624521Y-79158586D01*
X136624520Y-79158584D01*
X136512716Y-79046780D01*
X136512715Y-79046779D01*
X136508385Y-79042449D01*
X136508374Y-79042439D01*
X136483419Y-79017484D01*
X136449934Y-78956161D01*
X136447100Y-78929803D01*
X136447100Y-78588231D01*
X136447099Y-78588218D01*
X136440014Y-78518871D01*
X136437036Y-78489715D01*
X136384149Y-78330113D01*
X136384145Y-78330107D01*
X136384144Y-78330104D01*
X136295883Y-78187012D01*
X136295880Y-78187008D01*
X136176991Y-78068119D01*
X136176987Y-78068116D01*
X136033895Y-77979855D01*
X136033889Y-77979852D01*
X136033887Y-77979851D01*
X135874285Y-77926964D01*
X135874283Y-77926963D01*
X135775781Y-77916900D01*
X135775774Y-77916900D01*
X135242426Y-77916900D01*
X135242418Y-77916900D01*
X135143916Y-77926963D01*
X135143915Y-77926964D01*
X135064819Y-77953173D01*
X134984315Y-77979850D01*
X134984304Y-77979855D01*
X134841212Y-78068116D01*
X134841208Y-78068119D01*
X134722319Y-78187008D01*
X134722316Y-78187012D01*
X134634055Y-78330104D01*
X134634050Y-78330115D01*
X134609682Y-78403654D01*
X134581164Y-78489715D01*
X134581164Y-78489716D01*
X134581163Y-78489716D01*
X134571100Y-78588218D01*
X134571100Y-79196572D01*
X134581163Y-79295083D01*
X134634050Y-79454684D01*
X134634055Y-79454695D01*
X134722316Y-79597787D01*
X134722319Y-79597791D01*
X134841208Y-79716680D01*
X134841212Y-79716683D01*
X134984304Y-79804944D01*
X134984307Y-79804945D01*
X134984313Y-79804949D01*
X135143915Y-79857836D01*
X135242426Y-79867900D01*
X135277523Y-79867900D01*
X135344562Y-79887585D01*
X135390317Y-79940389D01*
X135400261Y-80009547D01*
X135394564Y-80032855D01*
X135358633Y-80135537D01*
X135358630Y-80135550D01*
X135338435Y-80314796D01*
X135338435Y-80314803D01*
X135358630Y-80494049D01*
X135358631Y-80494054D01*
X135418211Y-80664323D01*
X135425683Y-80676214D01*
X135514184Y-80817062D01*
X135641738Y-80944616D01*
X135752848Y-81014431D01*
X135794478Y-81040589D01*
X135844616Y-81058133D01*
X135901392Y-81098855D01*
X135927140Y-81163807D01*
X135913684Y-81232369D01*
X135877975Y-81274440D01*
X135858454Y-81289053D01*
X135858452Y-81289055D01*
X135772206Y-81404264D01*
X135772202Y-81404271D01*
X135721908Y-81539117D01*
X135715501Y-81598716D01*
X135715501Y-81598723D01*
X135715500Y-81598735D01*
X135715500Y-81772503D01*
X135695815Y-81839542D01*
X135643011Y-81885297D01*
X135573853Y-81895241D01*
X135510297Y-81866216D01*
X135503819Y-81860184D01*
X133749190Y-80105555D01*
X133749188Y-80105552D01*
X133630317Y-79986681D01*
X133630309Y-79986675D01*
X133535123Y-79931720D01*
X133535121Y-79931719D01*
X133493390Y-79907625D01*
X133493389Y-79907624D01*
X133480863Y-79904267D01*
X133340657Y-79866699D01*
X133182543Y-79866699D01*
X133174947Y-79866699D01*
X133174931Y-79866700D01*
X133135265Y-79866700D01*
X133068226Y-79847015D01*
X133022471Y-79794211D01*
X133012527Y-79725053D01*
X133018223Y-79701746D01*
X133043167Y-79630457D01*
X133043168Y-79630455D01*
X133043169Y-79630449D01*
X133063365Y-79451203D01*
X133063365Y-79451196D01*
X133043169Y-79271950D01*
X133043168Y-79271945D01*
X132983588Y-79101675D01*
X132950377Y-79048822D01*
X132931376Y-78981586D01*
X132951743Y-78914750D01*
X132990271Y-78877312D01*
X133090191Y-78815681D01*
X133209081Y-78696791D01*
X133297349Y-78553687D01*
X133350236Y-78394085D01*
X133360300Y-78295574D01*
X133360300Y-77762226D01*
X133350236Y-77663715D01*
X133297349Y-77504113D01*
X133297345Y-77504107D01*
X133297344Y-77504104D01*
X133209083Y-77361012D01*
X133209080Y-77361008D01*
X133090191Y-77242119D01*
X133090187Y-77242116D01*
X132947095Y-77153855D01*
X132947089Y-77153852D01*
X132947087Y-77153851D01*
X132787485Y-77100964D01*
X132787483Y-77100963D01*
X132688981Y-77090900D01*
X132688974Y-77090900D01*
X132080626Y-77090900D01*
X132080618Y-77090900D01*
X131982116Y-77100963D01*
X131982115Y-77100964D01*
X131941580Y-77114396D01*
X131822515Y-77153850D01*
X131822504Y-77153855D01*
X131679412Y-77242116D01*
X131679408Y-77242119D01*
X131560519Y-77361008D01*
X131560516Y-77361012D01*
X131472255Y-77504104D01*
X131472251Y-77504113D01*
X131419364Y-77663715D01*
X131419364Y-77663716D01*
X131419363Y-77663716D01*
X131409300Y-77762218D01*
X131409300Y-78295581D01*
X131419363Y-78394083D01*
X131472250Y-78553684D01*
X131472255Y-78553695D01*
X131560516Y-78696787D01*
X131560519Y-78696791D01*
X131620981Y-78757253D01*
X131654466Y-78818576D01*
X131657300Y-78844934D01*
X131657300Y-78868787D01*
X131637615Y-78935826D01*
X131630250Y-78946096D01*
X131627986Y-78948934D01*
X131532011Y-79101676D01*
X131472431Y-79271945D01*
X131472430Y-79271950D01*
X131452235Y-79451196D01*
X131452235Y-79451203D01*
X131472430Y-79630449D01*
X131472432Y-79630457D01*
X131497377Y-79701746D01*
X131500938Y-79771525D01*
X131466209Y-79832152D01*
X131404215Y-79864379D01*
X131380335Y-79866700D01*
X130280500Y-79866700D01*
X130213461Y-79847015D01*
X130167706Y-79794211D01*
X130156500Y-79742700D01*
X130156499Y-78713329D01*
X130156498Y-78713323D01*
X130150091Y-78653716D01*
X130099797Y-78518871D01*
X130099793Y-78518864D01*
X130013547Y-78403655D01*
X130013544Y-78403652D01*
X129898335Y-78317406D01*
X129898328Y-78317402D01*
X129763482Y-78267108D01*
X129763483Y-78267108D01*
X129703883Y-78260701D01*
X129703881Y-78260700D01*
X129703873Y-78260700D01*
X129703865Y-78260700D01*
X125167826Y-78260700D01*
X125100787Y-78241015D01*
X125055032Y-78188211D01*
X125044606Y-78150585D01*
X125042168Y-78128945D01*
X124982589Y-77958678D01*
X124965017Y-77930713D01*
X124886615Y-77805937D01*
X124759062Y-77678384D01*
X124606323Y-77582411D01*
X124436054Y-77522831D01*
X124436049Y-77522830D01*
X124256804Y-77502635D01*
X124256796Y-77502635D01*
X124077550Y-77522830D01*
X124077545Y-77522831D01*
X123907276Y-77582411D01*
X123754537Y-77678384D01*
X123626984Y-77805937D01*
X123531011Y-77958676D01*
X123471431Y-78128945D01*
X123471430Y-78128950D01*
X123451235Y-78308196D01*
X123451235Y-78308203D01*
X123471430Y-78487449D01*
X123471431Y-78487454D01*
X123531011Y-78657723D01*
X123565951Y-78713329D01*
X123616371Y-78793572D01*
X123626985Y-78810463D01*
X123629245Y-78813297D01*
X123630134Y-78815475D01*
X123630689Y-78816358D01*
X123630534Y-78816455D01*
X123655655Y-78877983D01*
X123656300Y-78890612D01*
X123656300Y-79175303D01*
X123636615Y-79242342D01*
X123583811Y-79288097D01*
X123514653Y-79298041D01*
X123451097Y-79269016D01*
X123444619Y-79262984D01*
X122826900Y-78645265D01*
X122793415Y-78583942D01*
X122791363Y-78571486D01*
X122781568Y-78484545D01*
X122721989Y-78314278D01*
X122626016Y-78161538D01*
X122498462Y-78033984D01*
X122345723Y-77938011D01*
X122175454Y-77878431D01*
X122175449Y-77878430D01*
X121996204Y-77858235D01*
X121996196Y-77858235D01*
X121816950Y-77878430D01*
X121816945Y-77878431D01*
X121646676Y-77938011D01*
X121493937Y-78033984D01*
X121366384Y-78161537D01*
X121270411Y-78314276D01*
X121210831Y-78484545D01*
X121210830Y-78484550D01*
X121190635Y-78663796D01*
X121190635Y-78663803D01*
X121210830Y-78843049D01*
X121210831Y-78843054D01*
X121270411Y-79013323D01*
X121361687Y-79158587D01*
X121366384Y-79166062D01*
X121493938Y-79293616D01*
X121646678Y-79389589D01*
X121816945Y-79449168D01*
X121903869Y-79458961D01*
X121968280Y-79486026D01*
X121977665Y-79494500D01*
X130144139Y-87660974D01*
X130144149Y-87660985D01*
X130148479Y-87665315D01*
X130148480Y-87665316D01*
X130260284Y-87777120D01*
X130347095Y-87827239D01*
X130347097Y-87827241D01*
X130385151Y-87849211D01*
X130397215Y-87856177D01*
X130549943Y-87897101D01*
X130549946Y-87897101D01*
X130715653Y-87897101D01*
X130715669Y-87897100D01*
X150005131Y-87897100D01*
X150005147Y-87897101D01*
X150012743Y-87897101D01*
X150170854Y-87897101D01*
X150170857Y-87897101D01*
X150323585Y-87856177D01*
X150373704Y-87827239D01*
X150460516Y-87777120D01*
X150572320Y-87665316D01*
X150572320Y-87665314D01*
X150582528Y-87655107D01*
X150582530Y-87655104D01*
X155291534Y-82946099D01*
X155352855Y-82912616D01*
X155422547Y-82917600D01*
X155478480Y-82959472D01*
X155502897Y-83024936D01*
X155498609Y-83067256D01*
X155433876Y-83298146D01*
X155432363Y-83303137D01*
X155147019Y-84177637D01*
X155145298Y-84182558D01*
X154823444Y-85044284D01*
X154821517Y-85049130D01*
X154463726Y-85896549D01*
X154461598Y-85901309D01*
X154068481Y-86732968D01*
X154066154Y-86737634D01*
X153638432Y-87552014D01*
X153635911Y-87556578D01*
X153174324Y-88352262D01*
X153171613Y-88356716D01*
X152676992Y-89132277D01*
X152674096Y-89136614D01*
X152147299Y-89890707D01*
X152144224Y-89894917D01*
X151586193Y-90626192D01*
X151582943Y-90630270D01*
X150994671Y-91337427D01*
X150991253Y-91341365D01*
X150373748Y-92023192D01*
X150370167Y-92026982D01*
X149724580Y-92682206D01*
X149720844Y-92685843D01*
X149091077Y-93273419D01*
X149078882Y-93282448D01*
X149079130Y-93282770D01*
X149072685Y-93287715D01*
X149038394Y-93322005D01*
X149033384Y-93326744D01*
X148997218Y-93359093D01*
X148997217Y-93359094D01*
X148996498Y-93360194D01*
X148980431Y-93379968D01*
X148979505Y-93380893D01*
X148979500Y-93380900D01*
X148955243Y-93422912D01*
X148951631Y-93428785D01*
X148925078Y-93469379D01*
X148925077Y-93469382D01*
X148924667Y-93470630D01*
X148914266Y-93493888D01*
X148913610Y-93495024D01*
X148913604Y-93495037D01*
X148901052Y-93541883D01*
X148899082Y-93548493D01*
X148883942Y-93594571D01*
X148883941Y-93594576D01*
X148883869Y-93595879D01*
X148879837Y-93621061D01*
X148879501Y-93622314D01*
X148879500Y-93622323D01*
X148879500Y-93670826D01*
X148879308Y-93677725D01*
X148876609Y-93726155D01*
X148876609Y-93726157D01*
X148876875Y-93727428D01*
X148879500Y-93752806D01*
X148879500Y-99415000D01*
X148879382Y-99420409D01*
X148862613Y-99804457D01*
X148861670Y-99815233D01*
X148811848Y-100193663D01*
X148809970Y-100204316D01*
X148727354Y-100576975D01*
X148724554Y-100587425D01*
X148609772Y-100951464D01*
X148606072Y-100961629D01*
X148460000Y-101314277D01*
X148455428Y-101324081D01*
X148279177Y-101662655D01*
X148273768Y-101672023D01*
X148068687Y-101993934D01*
X148062483Y-102002795D01*
X147830103Y-102305638D01*
X147823149Y-102313925D01*
X147565287Y-102595332D01*
X147557638Y-102602982D01*
X147464164Y-102688634D01*
X147401438Y-102719412D01*
X147332030Y-102711392D01*
X147277977Y-102667120D01*
X147256439Y-102600653D01*
X147267598Y-102545697D01*
X147274312Y-102530997D01*
X147344857Y-102290744D01*
X147380492Y-102042898D01*
X147380492Y-101792502D01*
X147344857Y-101544656D01*
X147274312Y-101304403D01*
X147274310Y-101304398D01*
X147274310Y-101304397D01*
X147170300Y-101076647D01*
X147170291Y-101076631D01*
X147034920Y-100865990D01*
X146870946Y-100676753D01*
X146681709Y-100512779D01*
X146471068Y-100377408D01*
X146471052Y-100377399D01*
X146243302Y-100273389D01*
X146003049Y-100202844D01*
X146003039Y-100202841D01*
X145800629Y-100173740D01*
X145755198Y-100167208D01*
X145755196Y-100167208D01*
X123181378Y-100167208D01*
X123181324Y-100167192D01*
X123130000Y-100167192D01*
X123004801Y-100167192D01*
X122979792Y-100170787D01*
X122756957Y-100202826D01*
X122756946Y-100202829D01*
X122516692Y-100273374D01*
X122288939Y-100377385D01*
X122288922Y-100377394D01*
X122078280Y-100512766D01*
X122078273Y-100512772D01*
X121889042Y-100676740D01*
X121889040Y-100676742D01*
X121725072Y-100865973D01*
X121725066Y-100865980D01*
X121589694Y-101076622D01*
X121589685Y-101076639D01*
X121485674Y-101304392D01*
X121415129Y-101544646D01*
X121415126Y-101544657D01*
X121379492Y-101792502D01*
X121379492Y-102042897D01*
X121415126Y-102290742D01*
X121415129Y-102290753D01*
X121458481Y-102438395D01*
X121485673Y-102531002D01*
X121492381Y-102545691D01*
X121502325Y-102614848D01*
X121473301Y-102678404D01*
X121414523Y-102716179D01*
X121344653Y-102716179D01*
X121295815Y-102688625D01*
X121202356Y-102602987D01*
X121194712Y-102595343D01*
X120936839Y-102313924D01*
X120929890Y-102305643D01*
X120697510Y-102002800D01*
X120691306Y-101993939D01*
X120592826Y-101839357D01*
X120486222Y-101672023D01*
X120480815Y-101662659D01*
X120480813Y-101662655D01*
X120304561Y-101324078D01*
X120299992Y-101314281D01*
X120153914Y-100961617D01*
X120150225Y-100951482D01*
X120035436Y-100587418D01*
X120032642Y-100576993D01*
X119950019Y-100204309D01*
X119948143Y-100193664D01*
X119935636Y-100098663D01*
X119898319Y-99815213D01*
X119897379Y-99804479D01*
X119880618Y-99420593D01*
X119880500Y-99415184D01*
X119880500Y-93752807D01*
X119883125Y-93727429D01*
X119883125Y-93727428D01*
X119883391Y-93726157D01*
X119880692Y-93677725D01*
X119880500Y-93670827D01*
X119880500Y-93622326D01*
X119880500Y-93622324D01*
X119880162Y-93621061D01*
X119876130Y-93595870D01*
X119876058Y-93594577D01*
X119875257Y-93592139D01*
X119860917Y-93548498D01*
X119858945Y-93541883D01*
X119846392Y-93495030D01*
X119845741Y-93493902D01*
X119835322Y-93470602D01*
X119834920Y-93469380D01*
X119834920Y-93469379D01*
X119808364Y-93428780D01*
X119804755Y-93422913D01*
X119780500Y-93380902D01*
X119779583Y-93379985D01*
X119763493Y-93360183D01*
X119763447Y-93360114D01*
X119762780Y-93359093D01*
X119762775Y-93359089D01*
X119762774Y-93359087D01*
X119726615Y-93326745D01*
X119721600Y-93322002D01*
X119687316Y-93287718D01*
X119687314Y-93287716D01*
X119687311Y-93287714D01*
X119680871Y-93282772D01*
X119681119Y-93282447D01*
X119668931Y-93273425D01*
X119039169Y-92685854D01*
X119035432Y-92682217D01*
X119035421Y-92682206D01*
X118389823Y-92026968D01*
X118386243Y-92023178D01*
X118197959Y-91815282D01*
X117768738Y-91341353D01*
X117765362Y-91337465D01*
X117177044Y-90630251D01*
X117173809Y-90626191D01*
X116615756Y-89894888D01*
X116612703Y-89890706D01*
X116085906Y-89136613D01*
X116083010Y-89132276D01*
X115588390Y-88356715D01*
X115585679Y-88352261D01*
X115297894Y-87856177D01*
X115124085Y-87556565D01*
X115121571Y-87552013D01*
X114693849Y-86737633D01*
X114691522Y-86732967D01*
X114483680Y-86293266D01*
X114298396Y-85901288D01*
X114296286Y-85896568D01*
X113938483Y-85049122D01*
X113936561Y-85044289D01*
X113614695Y-84182530D01*
X113612984Y-84177637D01*
X113327636Y-83303119D01*
X113326137Y-83298177D01*
X113077808Y-82412439D01*
X113076507Y-82407395D01*
X113057588Y-82327061D01*
X112865628Y-81511981D01*
X112864544Y-81506898D01*
X112863110Y-81499412D01*
X112691504Y-80603444D01*
X112690634Y-80598318D01*
X112682865Y-80545918D01*
X112561164Y-79725053D01*
X112555729Y-79688391D01*
X112555073Y-79683219D01*
X112551911Y-79653254D01*
X112458539Y-78768396D01*
X112458106Y-78763265D01*
X112400116Y-77845184D01*
X112399899Y-77840027D01*
X112384639Y-77114403D01*
X116339235Y-77114403D01*
X116359430Y-77293649D01*
X116359431Y-77293654D01*
X116419011Y-77463923D01*
X116479315Y-77559896D01*
X116493165Y-77581938D01*
X116514985Y-77616663D01*
X116517245Y-77619497D01*
X116518134Y-77621675D01*
X116518689Y-77622558D01*
X116518534Y-77622655D01*
X116543655Y-77684183D01*
X116544300Y-77696812D01*
X116544300Y-82514130D01*
X116544299Y-82514148D01*
X116544299Y-82679854D01*
X116544298Y-82679854D01*
X116585223Y-82832585D01*
X116614158Y-82882700D01*
X116614159Y-82882704D01*
X116614160Y-82882704D01*
X116664279Y-82969514D01*
X116664281Y-82969517D01*
X116783149Y-83088385D01*
X116783155Y-83088390D01*
X117330098Y-83635333D01*
X117363583Y-83696656D01*
X117365637Y-83709130D01*
X117375430Y-83796049D01*
X117435010Y-83966321D01*
X117469683Y-84021502D01*
X117530984Y-84119062D01*
X117658538Y-84246616D01*
X117748880Y-84303382D01*
X117797164Y-84333721D01*
X117811278Y-84342589D01*
X117981545Y-84402168D01*
X117981550Y-84402169D01*
X118160796Y-84422365D01*
X118160800Y-84422365D01*
X118160804Y-84422365D01*
X118340049Y-84402169D01*
X118340052Y-84402168D01*
X118340055Y-84402168D01*
X118510322Y-84342589D01*
X118663062Y-84246616D01*
X118790616Y-84119062D01*
X118886589Y-83966322D01*
X118946168Y-83796055D01*
X118948509Y-83775278D01*
X118966365Y-83616803D01*
X118966365Y-83616796D01*
X118946169Y-83437550D01*
X118946168Y-83437545D01*
X118907489Y-83327006D01*
X118886589Y-83267278D01*
X118790616Y-83114538D01*
X118663062Y-82986984D01*
X118510321Y-82891010D01*
X118340049Y-82831430D01*
X118253130Y-82821637D01*
X118188716Y-82794570D01*
X118179333Y-82786098D01*
X117781619Y-82388384D01*
X117748134Y-82327061D01*
X117745300Y-82300703D01*
X117745300Y-77696812D01*
X117764985Y-77629773D01*
X117772355Y-77619497D01*
X117774610Y-77616667D01*
X117774616Y-77616662D01*
X117870589Y-77463922D01*
X117930168Y-77293655D01*
X117930169Y-77293649D01*
X117939368Y-77212003D01*
X118742135Y-77212003D01*
X118762330Y-77391249D01*
X118762331Y-77391254D01*
X118821911Y-77561523D01*
X118860262Y-77622558D01*
X118917210Y-77713190D01*
X118917885Y-77714263D01*
X118920145Y-77717097D01*
X118921034Y-77719275D01*
X118921589Y-77720158D01*
X118921434Y-77720255D01*
X118946555Y-77781783D01*
X118947200Y-77794412D01*
X118947200Y-79487530D01*
X118947199Y-79487548D01*
X118947199Y-79653254D01*
X118947198Y-79653254D01*
X118988123Y-79805986D01*
X119000181Y-79826869D01*
X119000182Y-79826874D01*
X119000183Y-79826874D01*
X119067175Y-79942909D01*
X119067181Y-79942917D01*
X119186049Y-80061785D01*
X119186055Y-80061790D01*
X121002998Y-81878733D01*
X121036483Y-81940056D01*
X121038537Y-81952530D01*
X121048330Y-82039449D01*
X121107910Y-82209721D01*
X121166360Y-82302743D01*
X121203884Y-82362462D01*
X121331438Y-82490016D01*
X121484178Y-82585989D01*
X121563043Y-82613585D01*
X121654445Y-82645568D01*
X121654450Y-82645569D01*
X121833696Y-82665765D01*
X121833700Y-82665765D01*
X121833704Y-82665765D01*
X122012949Y-82645569D01*
X122012952Y-82645568D01*
X122012955Y-82645568D01*
X122183222Y-82585989D01*
X122335962Y-82490016D01*
X122463516Y-82362462D01*
X122559489Y-82209722D01*
X122619068Y-82039455D01*
X122628862Y-81952530D01*
X122639265Y-81860203D01*
X122639265Y-81860196D01*
X122619069Y-81680950D01*
X122619068Y-81680945D01*
X122589954Y-81597743D01*
X122559489Y-81510678D01*
X122463516Y-81357938D01*
X122335962Y-81230384D01*
X122236814Y-81168085D01*
X122183221Y-81134410D01*
X122012949Y-81074830D01*
X121926030Y-81065037D01*
X121861616Y-81037970D01*
X121852233Y-81029498D01*
X120184519Y-79361784D01*
X120151034Y-79300461D01*
X120148200Y-79274103D01*
X120148200Y-77794412D01*
X120167885Y-77727373D01*
X120175255Y-77717097D01*
X120177510Y-77714267D01*
X120177516Y-77714262D01*
X120273489Y-77561522D01*
X120333068Y-77391255D01*
X120336769Y-77358410D01*
X120353265Y-77212003D01*
X120353265Y-77211996D01*
X120333069Y-77032750D01*
X120333068Y-77032745D01*
X120314687Y-76980216D01*
X120273489Y-76862478D01*
X120177516Y-76709738D01*
X120049962Y-76582184D01*
X120046932Y-76580280D01*
X119897223Y-76486211D01*
X119726954Y-76426631D01*
X119726949Y-76426630D01*
X119547704Y-76406435D01*
X119547696Y-76406435D01*
X119368450Y-76426630D01*
X119368445Y-76426631D01*
X119198176Y-76486211D01*
X119045437Y-76582184D01*
X118917884Y-76709737D01*
X118821911Y-76862476D01*
X118762331Y-77032745D01*
X118762330Y-77032750D01*
X118742135Y-77211996D01*
X118742135Y-77212003D01*
X117939368Y-77212003D01*
X117950365Y-77114403D01*
X117950365Y-77114396D01*
X117930169Y-76935150D01*
X117930168Y-76935145D01*
X117870588Y-76764876D01*
X117782659Y-76624939D01*
X117774616Y-76612138D01*
X117647062Y-76484584D01*
X117595151Y-76451966D01*
X117494323Y-76388611D01*
X117324054Y-76329031D01*
X117324049Y-76329030D01*
X117144804Y-76308835D01*
X117144796Y-76308835D01*
X116965550Y-76329030D01*
X116965545Y-76329031D01*
X116795276Y-76388611D01*
X116642537Y-76484584D01*
X116514984Y-76612137D01*
X116419011Y-76764876D01*
X116359431Y-76935145D01*
X116359430Y-76935150D01*
X116339235Y-77114396D01*
X116339235Y-77114403D01*
X112384639Y-77114403D01*
X112380557Y-76920276D01*
X112380557Y-76915141D01*
X112399899Y-75995387D01*
X112400116Y-75990234D01*
X112455774Y-75109070D01*
X124605500Y-75109070D01*
X124605501Y-75109076D01*
X124611908Y-75168683D01*
X124662202Y-75303528D01*
X124662206Y-75303535D01*
X124748452Y-75418744D01*
X124748455Y-75418747D01*
X124863664Y-75504993D01*
X124863671Y-75504997D01*
X124998517Y-75555291D01*
X124998516Y-75555291D01*
X125005444Y-75556035D01*
X125058127Y-75561700D01*
X129703872Y-75561699D01*
X129763483Y-75555291D01*
X129898331Y-75504996D01*
X130013546Y-75418746D01*
X130099796Y-75303531D01*
X130135135Y-75208781D01*
X132361100Y-75208781D01*
X132371163Y-75307283D01*
X132424050Y-75466884D01*
X132424055Y-75466895D01*
X132512316Y-75609987D01*
X132512319Y-75609991D01*
X132631208Y-75728880D01*
X132631212Y-75728883D01*
X132774304Y-75817144D01*
X132774307Y-75817145D01*
X132774313Y-75817149D01*
X132933915Y-75870036D01*
X132933916Y-75870036D01*
X132934574Y-75870254D01*
X132992019Y-75910027D01*
X133018842Y-75974543D01*
X133012612Y-76028914D01*
X132971032Y-76147742D01*
X132971030Y-76147750D01*
X132950835Y-76326996D01*
X132950835Y-76327003D01*
X132971030Y-76506249D01*
X132971031Y-76506254D01*
X133030611Y-76676523D01*
X133097551Y-76783057D01*
X133126584Y-76829262D01*
X133254138Y-76956816D01*
X133406878Y-77052789D01*
X133544554Y-77100964D01*
X133577145Y-77112368D01*
X133577150Y-77112369D01*
X133756396Y-77132565D01*
X133756400Y-77132565D01*
X133756404Y-77132565D01*
X133935649Y-77112369D01*
X133935652Y-77112368D01*
X133935655Y-77112368D01*
X134105922Y-77052789D01*
X134258662Y-76956816D01*
X134386216Y-76829262D01*
X134482189Y-76676522D01*
X134541768Y-76506255D01*
X134543421Y-76491583D01*
X134561965Y-76327003D01*
X134561965Y-76326996D01*
X134541769Y-76147750D01*
X134541768Y-76147745D01*
X134539698Y-76141830D01*
X134511128Y-76060181D01*
X135397100Y-76060181D01*
X135407163Y-76158683D01*
X135460050Y-76318284D01*
X135460055Y-76318295D01*
X135548316Y-76461387D01*
X135548319Y-76461391D01*
X135667208Y-76580280D01*
X135667212Y-76580283D01*
X135810304Y-76668544D01*
X135810307Y-76668545D01*
X135810313Y-76668549D01*
X135969915Y-76721436D01*
X136068426Y-76731500D01*
X136068431Y-76731500D01*
X136676769Y-76731500D01*
X136676774Y-76731500D01*
X136775285Y-76721436D01*
X136934887Y-76668549D01*
X137077991Y-76580281D01*
X137196881Y-76461391D01*
X137196888Y-76461379D01*
X137200147Y-76457259D01*
X137257168Y-76416881D01*
X137326967Y-76413740D01*
X137338371Y-76417126D01*
X137437937Y-76451966D01*
X137437943Y-76451967D01*
X137437945Y-76451968D01*
X137437946Y-76451968D01*
X137437950Y-76451969D01*
X137617196Y-76472165D01*
X137617200Y-76472165D01*
X137617204Y-76472165D01*
X137796449Y-76451969D01*
X137796452Y-76451968D01*
X137796455Y-76451968D01*
X137966722Y-76392389D01*
X138119462Y-76296416D01*
X138247016Y-76168862D01*
X138342989Y-76016122D01*
X138402568Y-75845855D01*
X138402569Y-75845849D01*
X138422765Y-75666603D01*
X138422765Y-75666596D01*
X138402569Y-75487350D01*
X138402568Y-75487345D01*
X138381913Y-75428316D01*
X138342989Y-75317078D01*
X138336834Y-75307283D01*
X138283259Y-75222019D01*
X138247016Y-75164338D01*
X138119462Y-75036784D01*
X138049120Y-74992585D01*
X137966723Y-74940811D01*
X137796454Y-74881231D01*
X137796449Y-74881230D01*
X137617204Y-74861035D01*
X137617196Y-74861035D01*
X137437950Y-74881230D01*
X137437945Y-74881231D01*
X137267674Y-74940812D01*
X137186145Y-74992040D01*
X137118909Y-75011040D01*
X137055077Y-74992585D01*
X136934889Y-74918452D01*
X136934884Y-74918450D01*
X136933476Y-74917983D01*
X136775285Y-74865564D01*
X136775283Y-74865563D01*
X136676781Y-74855500D01*
X136676774Y-74855500D01*
X136068426Y-74855500D01*
X136068418Y-74855500D01*
X135969916Y-74865563D01*
X135969915Y-74865564D01*
X135922186Y-74881380D01*
X135810315Y-74918450D01*
X135810304Y-74918455D01*
X135667212Y-75006716D01*
X135667208Y-75006719D01*
X135548319Y-75125608D01*
X135548316Y-75125612D01*
X135460055Y-75268704D01*
X135460050Y-75268715D01*
X135444025Y-75317076D01*
X135407164Y-75428315D01*
X135407164Y-75428316D01*
X135407163Y-75428316D01*
X135397100Y-75526818D01*
X135397100Y-76060181D01*
X134511128Y-76060181D01*
X134482189Y-75977478D01*
X134386216Y-75824738D01*
X134386214Y-75824736D01*
X134386213Y-75824734D01*
X134383950Y-75821896D01*
X134383059Y-75819715D01*
X134382511Y-75818842D01*
X134382664Y-75818745D01*
X134357544Y-75757209D01*
X134356900Y-75744587D01*
X134356900Y-75450959D01*
X134356901Y-75450946D01*
X134356901Y-75282845D01*
X134356901Y-75282843D01*
X134315977Y-75130115D01*
X134262092Y-75036784D01*
X134259395Y-75032112D01*
X134253711Y-75022266D01*
X134237100Y-74960270D01*
X134237100Y-74600431D01*
X134237099Y-74600418D01*
X134234648Y-74576431D01*
X134227036Y-74501915D01*
X134174149Y-74342313D01*
X134174145Y-74342307D01*
X134174144Y-74342304D01*
X134085883Y-74199212D01*
X134085880Y-74199208D01*
X133966991Y-74080319D01*
X133966987Y-74080316D01*
X133823895Y-73992055D01*
X133823889Y-73992052D01*
X133823887Y-73992051D01*
X133664285Y-73939164D01*
X133664283Y-73939163D01*
X133565781Y-73929100D01*
X133565774Y-73929100D01*
X133032426Y-73929100D01*
X133032418Y-73929100D01*
X132933916Y-73939163D01*
X132933915Y-73939164D01*
X132854819Y-73965373D01*
X132774315Y-73992050D01*
X132774304Y-73992055D01*
X132631212Y-74080316D01*
X132631208Y-74080319D01*
X132512319Y-74199208D01*
X132512316Y-74199212D01*
X132424055Y-74342304D01*
X132424051Y-74342313D01*
X132371164Y-74501915D01*
X132371164Y-74501916D01*
X132371163Y-74501916D01*
X132361100Y-74600418D01*
X132361100Y-75208781D01*
X130135135Y-75208781D01*
X130150091Y-75168683D01*
X130156500Y-75109073D01*
X130156499Y-74013328D01*
X130150091Y-73953717D01*
X130140909Y-73929100D01*
X130099797Y-73818871D01*
X130099793Y-73818864D01*
X130013547Y-73703655D01*
X130013544Y-73703652D01*
X129898335Y-73617406D01*
X129898328Y-73617402D01*
X129763482Y-73567108D01*
X129763483Y-73567108D01*
X129703883Y-73560701D01*
X129703881Y-73560700D01*
X129703873Y-73560700D01*
X129703865Y-73560700D01*
X128710326Y-73560700D01*
X128643287Y-73541015D01*
X128597532Y-73488211D01*
X128587588Y-73419053D01*
X128616613Y-73355497D01*
X128644352Y-73331707D01*
X128696062Y-73299216D01*
X128823616Y-73171662D01*
X128919589Y-73018922D01*
X128979168Y-72848655D01*
X128999365Y-72669400D01*
X128996615Y-72644997D01*
X128979169Y-72490150D01*
X128979168Y-72490145D01*
X128921713Y-72325948D01*
X128919589Y-72319878D01*
X128823616Y-72167138D01*
X128696062Y-72039584D01*
X128543323Y-71943611D01*
X128373054Y-71884031D01*
X128373049Y-71884030D01*
X128193804Y-71863835D01*
X128193796Y-71863835D01*
X128014550Y-71884030D01*
X128014545Y-71884031D01*
X127844276Y-71943611D01*
X127691537Y-72039584D01*
X127563984Y-72167137D01*
X127468010Y-72319878D01*
X127408430Y-72490150D01*
X127398637Y-72577068D01*
X127371570Y-72641482D01*
X127363098Y-72650865D01*
X127012286Y-73001678D01*
X126900481Y-73113482D01*
X126900479Y-73113485D01*
X126850361Y-73200294D01*
X126850359Y-73200296D01*
X126821425Y-73250409D01*
X126821424Y-73250410D01*
X126821423Y-73250415D01*
X126780499Y-73403143D01*
X126780499Y-73403145D01*
X126780499Y-73436700D01*
X126760814Y-73503739D01*
X126708010Y-73549494D01*
X126656499Y-73560700D01*
X125058129Y-73560700D01*
X125058123Y-73560701D01*
X124998516Y-73567108D01*
X124863671Y-73617402D01*
X124863664Y-73617406D01*
X124748455Y-73703652D01*
X124748452Y-73703655D01*
X124662206Y-73818864D01*
X124662202Y-73818871D01*
X124611908Y-73953717D01*
X124607787Y-73992055D01*
X124605501Y-74013323D01*
X124605500Y-74013335D01*
X124605500Y-75109070D01*
X112455774Y-75109070D01*
X112458106Y-75072156D01*
X112458539Y-75067017D01*
X112555076Y-74152171D01*
X112555726Y-74147045D01*
X112690637Y-73237076D01*
X112691502Y-73231981D01*
X112864551Y-72328489D01*
X112865628Y-72323439D01*
X113076509Y-71428009D01*
X113077799Y-71423007D01*
X113326143Y-70537221D01*
X113327643Y-70532279D01*
X113550264Y-69850003D01*
X129521835Y-69850003D01*
X129542030Y-70029249D01*
X129542031Y-70029254D01*
X129601611Y-70199523D01*
X129697584Y-70352262D01*
X129825138Y-70479816D01*
X129899753Y-70526700D01*
X129975826Y-70574500D01*
X129977878Y-70575789D01*
X130148145Y-70635368D01*
X130148150Y-70635369D01*
X130327396Y-70655565D01*
X130327400Y-70655565D01*
X130327404Y-70655565D01*
X130506649Y-70635369D01*
X130506652Y-70635368D01*
X130506655Y-70635368D01*
X130676922Y-70575789D01*
X130829662Y-70479816D01*
X130829667Y-70479810D01*
X130832497Y-70477555D01*
X130834675Y-70476665D01*
X130835558Y-70476111D01*
X130835655Y-70476265D01*
X130897183Y-70451145D01*
X130909812Y-70450500D01*
X130934701Y-70450500D01*
X131001740Y-70470185D01*
X131047495Y-70522989D01*
X131058701Y-70574500D01*
X131058701Y-72249076D01*
X131065108Y-72308683D01*
X131115402Y-72443528D01*
X131115406Y-72443535D01*
X131201652Y-72558744D01*
X131201655Y-72558747D01*
X131316864Y-72644993D01*
X131316871Y-72644997D01*
X131451717Y-72695291D01*
X131451716Y-72695291D01*
X131458644Y-72696035D01*
X131511327Y-72701700D01*
X132607072Y-72701699D01*
X132666683Y-72695291D01*
X132801531Y-72644996D01*
X132916746Y-72558746D01*
X133002996Y-72443531D01*
X133053291Y-72308683D01*
X133059700Y-72249073D01*
X133059699Y-67603328D01*
X133053291Y-67543717D01*
X133050624Y-67536567D01*
X133002997Y-67408871D01*
X133002993Y-67408864D01*
X132916747Y-67293655D01*
X132916744Y-67293652D01*
X132801535Y-67207406D01*
X132801528Y-67207402D01*
X132666682Y-67157108D01*
X132666683Y-67157108D01*
X132607083Y-67150701D01*
X132607081Y-67150700D01*
X132607073Y-67150700D01*
X132607064Y-67150700D01*
X131511329Y-67150700D01*
X131511323Y-67150701D01*
X131451716Y-67157108D01*
X131316871Y-67207402D01*
X131316864Y-67207406D01*
X131201655Y-67293652D01*
X131201652Y-67293655D01*
X131115406Y-67408864D01*
X131115402Y-67408871D01*
X131065108Y-67543717D01*
X131058701Y-67603316D01*
X131058701Y-67603323D01*
X131058700Y-67603335D01*
X131058700Y-69125500D01*
X131039015Y-69192539D01*
X130986211Y-69238294D01*
X130934700Y-69249500D01*
X130909812Y-69249500D01*
X130842773Y-69229815D01*
X130832497Y-69222445D01*
X130829663Y-69220185D01*
X130829662Y-69220184D01*
X130772160Y-69184053D01*
X130676923Y-69124211D01*
X130506654Y-69064631D01*
X130506649Y-69064630D01*
X130327404Y-69044435D01*
X130327396Y-69044435D01*
X130148150Y-69064630D01*
X130148145Y-69064631D01*
X129977876Y-69124211D01*
X129825137Y-69220184D01*
X129697584Y-69347737D01*
X129601611Y-69500476D01*
X129542031Y-69670745D01*
X129542030Y-69670750D01*
X129521835Y-69849996D01*
X129521835Y-69850003D01*
X113550264Y-69850003D01*
X113612994Y-69657752D01*
X113614690Y-69652901D01*
X113936568Y-68791110D01*
X113938477Y-68786310D01*
X114296294Y-67938830D01*
X114298388Y-67934146D01*
X114691528Y-67102437D01*
X114693850Y-67097783D01*
X114693851Y-67097782D01*
X115121589Y-66283372D01*
X115124075Y-66278872D01*
X115585690Y-65483138D01*
X115588379Y-65478720D01*
X116083023Y-64703121D01*
X116085894Y-64698822D01*
X116612725Y-63944682D01*
X116615772Y-63940511D01*
X117173820Y-63209213D01*
X117177060Y-63205148D01*
X117449656Y-62877463D01*
X117765362Y-62497956D01*
X117768719Y-62494087D01*
X118386262Y-61812220D01*
X118389807Y-61808467D01*
X118759621Y-61433130D01*
X125603500Y-61433130D01*
X125605901Y-61459554D01*
X125609914Y-61503715D01*
X125660528Y-61666144D01*
X125660530Y-61666148D01*
X125748543Y-61811741D01*
X125748547Y-61811746D01*
X125868853Y-61932052D01*
X125868858Y-61932056D01*
X126014451Y-62020069D01*
X126014455Y-62020071D01*
X126070786Y-62037624D01*
X126176886Y-62070686D01*
X126247470Y-62077100D01*
X126247474Y-62077100D01*
X128260526Y-62077100D01*
X128260530Y-62077100D01*
X128331114Y-62070686D01*
X128493547Y-62020070D01*
X128568485Y-61974768D01*
X128639141Y-61932056D01*
X128639142Y-61932054D01*
X128639147Y-61932052D01*
X128759452Y-61811747D01*
X128760327Y-61810301D01*
X128814899Y-61720026D01*
X128847470Y-61666147D01*
X128898086Y-61503714D01*
X128904500Y-61433130D01*
X128904500Y-61164608D01*
X133965700Y-61164608D01*
X133965701Y-61164623D01*
X133976104Y-61296813D01*
X133976105Y-61296820D01*
X134031102Y-61515078D01*
X134031103Y-61515081D01*
X134124191Y-61720022D01*
X134124197Y-61720032D01*
X134252374Y-61905045D01*
X134252378Y-61905050D01*
X134252381Y-61905054D01*
X134411546Y-62064219D01*
X134411550Y-62064222D01*
X134411554Y-62064225D01*
X134550803Y-62160697D01*
X134596574Y-62192407D01*
X134801517Y-62285496D01*
X134801521Y-62285497D01*
X135019779Y-62340494D01*
X135019781Y-62340494D01*
X135019788Y-62340496D01*
X135151983Y-62350900D01*
X136780416Y-62350899D01*
X136912612Y-62340496D01*
X137130883Y-62285496D01*
X137335826Y-62192407D01*
X137520854Y-62064219D01*
X137680019Y-61905054D01*
X137808207Y-61720026D01*
X137901296Y-61515083D01*
X137901297Y-61515075D01*
X137903137Y-61509823D01*
X137905484Y-61510644D01*
X137935542Y-61459554D01*
X137997904Y-61428046D01*
X138067400Y-61435256D01*
X138119642Y-61475683D01*
X138260454Y-61663787D01*
X138260470Y-61663805D01*
X138462794Y-61866129D01*
X138462812Y-61866145D01*
X138691882Y-62037624D01*
X138691890Y-62037629D01*
X138943033Y-62174764D01*
X138943032Y-62174764D01*
X138943036Y-62174765D01*
X138943039Y-62174767D01*
X139211154Y-62274769D01*
X139211160Y-62274770D01*
X139211162Y-62274771D01*
X139490766Y-62335595D01*
X139490768Y-62335595D01*
X139490772Y-62335596D01*
X139744420Y-62353737D01*
X139776199Y-62356010D01*
X139776200Y-62356010D01*
X139776201Y-62356010D01*
X139804795Y-62353964D01*
X140061628Y-62335596D01*
X140341246Y-62274769D01*
X140609361Y-62174767D01*
X140860515Y-62037626D01*
X141089595Y-61866139D01*
X141291939Y-61663795D01*
X141463426Y-61434715D01*
X141600567Y-61183561D01*
X141700569Y-60915446D01*
X141737373Y-60746259D01*
X141761395Y-60635833D01*
X141761395Y-60635832D01*
X141761396Y-60635828D01*
X141780691Y-60366042D01*
X141781810Y-60350401D01*
X141781810Y-60350398D01*
X141773881Y-60239536D01*
X141761396Y-60064972D01*
X141730591Y-59923365D01*
X141700571Y-59785362D01*
X141700570Y-59785360D01*
X141700569Y-59785354D01*
X141600567Y-59517239D01*
X141508965Y-59349484D01*
X141463429Y-59266090D01*
X141463424Y-59266082D01*
X141291945Y-59037012D01*
X141291929Y-59036994D01*
X141089605Y-58834670D01*
X141089587Y-58834654D01*
X140860517Y-58663175D01*
X140860509Y-58663170D01*
X140609366Y-58526035D01*
X140609367Y-58526035D01*
X140502115Y-58486032D01*
X140341246Y-58426031D01*
X140341243Y-58426030D01*
X140341237Y-58426028D01*
X140061633Y-58365204D01*
X139776201Y-58344790D01*
X139776199Y-58344790D01*
X139490766Y-58365204D01*
X139211162Y-58426028D01*
X138943033Y-58526035D01*
X138691890Y-58663170D01*
X138691882Y-58663175D01*
X138462812Y-58834654D01*
X138462794Y-58834670D01*
X138260470Y-59036994D01*
X138260460Y-59037006D01*
X138119642Y-59225117D01*
X138063708Y-59266988D01*
X137994017Y-59271972D01*
X137932694Y-59238487D01*
X137905314Y-59190214D01*
X137903137Y-59190977D01*
X137901296Y-59185718D01*
X137835770Y-59041458D01*
X137808207Y-58980774D01*
X137706986Y-58834670D01*
X137680025Y-58795754D01*
X137680022Y-58795750D01*
X137680019Y-58795746D01*
X137520854Y-58636581D01*
X137520850Y-58636578D01*
X137520845Y-58636574D01*
X137335832Y-58508397D01*
X137335830Y-58508395D01*
X137335826Y-58508393D01*
X137154499Y-58426031D01*
X137130881Y-58415303D01*
X137130878Y-58415302D01*
X136912620Y-58360305D01*
X136912613Y-58360304D01*
X136868547Y-58356836D01*
X136780417Y-58349900D01*
X136780415Y-58349900D01*
X135151991Y-58349900D01*
X135151976Y-58349901D01*
X135019786Y-58360304D01*
X135019779Y-58360305D01*
X134801521Y-58415302D01*
X134801518Y-58415303D01*
X134596577Y-58508391D01*
X134596567Y-58508397D01*
X134411554Y-58636574D01*
X134411542Y-58636584D01*
X134252384Y-58795742D01*
X134252374Y-58795754D01*
X134124197Y-58980767D01*
X134124191Y-58980777D01*
X134031103Y-59185718D01*
X134031102Y-59185721D01*
X133976105Y-59403979D01*
X133976104Y-59403986D01*
X133965700Y-59536177D01*
X133965700Y-61164608D01*
X128904500Y-61164608D01*
X128904500Y-59420070D01*
X128898086Y-59349486D01*
X128872096Y-59266082D01*
X128847471Y-59187055D01*
X128847469Y-59187051D01*
X128759456Y-59041458D01*
X128759452Y-59041453D01*
X128639146Y-58921147D01*
X128639141Y-58921143D01*
X128493548Y-58833130D01*
X128493544Y-58833128D01*
X128331114Y-58782514D01*
X128331116Y-58782514D01*
X128307586Y-58780376D01*
X128260530Y-58776100D01*
X126247470Y-58776100D01*
X126200414Y-58780376D01*
X126176884Y-58782514D01*
X126014455Y-58833128D01*
X126014451Y-58833130D01*
X125868858Y-58921143D01*
X125868853Y-58921147D01*
X125748547Y-59041453D01*
X125748543Y-59041458D01*
X125660530Y-59187051D01*
X125660528Y-59187055D01*
X125609914Y-59349484D01*
X125609914Y-59349486D01*
X125603500Y-59420070D01*
X125603500Y-61433130D01*
X118759621Y-61433130D01*
X119035466Y-61153166D01*
X119039136Y-61149595D01*
X119668938Y-60561985D01*
X119681112Y-60552978D01*
X119680861Y-60552651D01*
X119687308Y-60547703D01*
X119687314Y-60547700D01*
X119721624Y-60513388D01*
X119726603Y-60508679D01*
X119762780Y-60476323D01*
X119763489Y-60475237D01*
X119779589Y-60455424D01*
X119780500Y-60454514D01*
X119804776Y-60412465D01*
X119808358Y-60406644D01*
X119834920Y-60366037D01*
X119835320Y-60364816D01*
X119845745Y-60341506D01*
X119846392Y-60340386D01*
X119858947Y-60293522D01*
X119860919Y-60286908D01*
X119876058Y-60240839D01*
X119876129Y-60239553D01*
X119880166Y-60214337D01*
X119880500Y-60213092D01*
X119880500Y-60164587D01*
X119880692Y-60157687D01*
X119883391Y-60109259D01*
X119883125Y-60107986D01*
X119880500Y-60082606D01*
X119880500Y-54420413D01*
X119880618Y-54415005D01*
X119890432Y-54190206D01*
X119897385Y-54030933D01*
X119898324Y-54020203D01*
X119948151Y-53641726D01*
X119950021Y-53631119D01*
X120032648Y-53258410D01*
X120035438Y-53248001D01*
X120150228Y-52883933D01*
X120153915Y-52873801D01*
X120300001Y-52521117D01*
X120304554Y-52511353D01*
X120480834Y-52172721D01*
X120486212Y-52163407D01*
X120691317Y-51841457D01*
X120697508Y-51832614D01*
X120929884Y-51529776D01*
X120936834Y-51521493D01*
X121194734Y-51240043D01*
X121202350Y-51232428D01*
X121295808Y-51146789D01*
X121358531Y-51116012D01*
X121427939Y-51124032D01*
G37*
%TD.AperFunction*%
%TD*%
M02*
