M48
; DRILL file {KiCad 8.0.1} date 2024-08-07T16:32:46+0200
; FORMAT={-:-/ absolute / inch / decimal}
; #@! TF.CreationDate,2024-08-07T16:32:46+02:00
; #@! TF.GenerationSoftware,Kicad,Pcbnew,8.0.1
; #@! TF.FileFunction,Plated,1,2,PTH
FMAT,2
INCH
; #@! TA.AperFunction,Plated,PTH,ViaDrill
T1C0.0118
; #@! TA.AperFunction,Plated,PTH,ComponentDrill
T2C0.0591
; #@! TA.AperFunction,Plated,PTH,ComponentDrill
T3C0.0669
%
G90
G05
T1
X4.612Y-3.036
X4.652Y-3.292
X4.7066Y-3.0398
X4.7966Y-3.2228
X4.803Y-3.097
X4.892Y-3.083
X4.95Y-3.17
X5.047Y-2.861
X5.131Y-2.75
X5.133Y-3.312
X5.207Y-3.128
X5.266Y-3.005
X5.36Y-3.162
X5.418Y-2.979
X5.428Y-3.0742
X5.522Y-2.557
X5.648Y-3.33
X5.756Y-3.03
X5.762Y-2.93
X5.766Y-2.628
X5.848Y-2.718
X6.079Y-3.233
X6.084Y-2.967
T2
X5.01Y-2.379
X5.353Y-2.376
X5.503Y-2.376
X5.653Y-2.376
T3
X4.91Y-2.279
X4.91Y-2.479
X5.11Y-2.279
X5.11Y-2.479
M30
