%TF.GenerationSoftware,KiCad,Pcbnew,8.0.1*%
%TF.CreationDate,2024-08-07T16:32:43+02:00*%
%TF.ProjectId,TEP000,54455030-3030-42e6-9b69-6361645f7063,rev?*%
%TF.SameCoordinates,Original*%
%TF.FileFunction,Legend,Bot*%
%TF.FilePolarity,Positive*%
%FSLAX46Y46*%
G04 Gerber Fmt 4.6, Leading zero omitted, Abs format (unit mm)*
G04 Created by KiCad (PCBNEW 8.0.1) date 2024-08-07 16:32:43*
%MOMM*%
%LPD*%
G01*
G04 APERTURE LIST*
%ADD10C,0.100000*%
%ADD11C,0.150000*%
%ADD12C,0.120000*%
G04 APERTURE END LIST*
D10*
X128119094Y-77368619D02*
X128119094Y-76368619D01*
X128119094Y-76368619D02*
X127880999Y-76368619D01*
X127880999Y-76368619D02*
X127738142Y-76416238D01*
X127738142Y-76416238D02*
X127642904Y-76511476D01*
X127642904Y-76511476D02*
X127595285Y-76606714D01*
X127595285Y-76606714D02*
X127547666Y-76797190D01*
X127547666Y-76797190D02*
X127547666Y-76940047D01*
X127547666Y-76940047D02*
X127595285Y-77130523D01*
X127595285Y-77130523D02*
X127642904Y-77225761D01*
X127642904Y-77225761D02*
X127738142Y-77321000D01*
X127738142Y-77321000D02*
X127880999Y-77368619D01*
X127880999Y-77368619D02*
X128119094Y-77368619D01*
X126976237Y-76797190D02*
X127071475Y-76749571D01*
X127071475Y-76749571D02*
X127119094Y-76701952D01*
X127119094Y-76701952D02*
X127166713Y-76606714D01*
X127166713Y-76606714D02*
X127166713Y-76559095D01*
X127166713Y-76559095D02*
X127119094Y-76463857D01*
X127119094Y-76463857D02*
X127071475Y-76416238D01*
X127071475Y-76416238D02*
X126976237Y-76368619D01*
X126976237Y-76368619D02*
X126785761Y-76368619D01*
X126785761Y-76368619D02*
X126690523Y-76416238D01*
X126690523Y-76416238D02*
X126642904Y-76463857D01*
X126642904Y-76463857D02*
X126595285Y-76559095D01*
X126595285Y-76559095D02*
X126595285Y-76606714D01*
X126595285Y-76606714D02*
X126642904Y-76701952D01*
X126642904Y-76701952D02*
X126690523Y-76749571D01*
X126690523Y-76749571D02*
X126785761Y-76797190D01*
X126785761Y-76797190D02*
X126976237Y-76797190D01*
X126976237Y-76797190D02*
X127071475Y-76844809D01*
X127071475Y-76844809D02*
X127119094Y-76892428D01*
X127119094Y-76892428D02*
X127166713Y-76987666D01*
X127166713Y-76987666D02*
X127166713Y-77178142D01*
X127166713Y-77178142D02*
X127119094Y-77273380D01*
X127119094Y-77273380D02*
X127071475Y-77321000D01*
X127071475Y-77321000D02*
X126976237Y-77368619D01*
X126976237Y-77368619D02*
X126785761Y-77368619D01*
X126785761Y-77368619D02*
X126690523Y-77321000D01*
X126690523Y-77321000D02*
X126642904Y-77273380D01*
X126642904Y-77273380D02*
X126595285Y-77178142D01*
X126595285Y-77178142D02*
X126595285Y-76987666D01*
X126595285Y-76987666D02*
X126642904Y-76892428D01*
X126642904Y-76892428D02*
X126690523Y-76844809D01*
X126690523Y-76844809D02*
X126785761Y-76797190D01*
X140638305Y-76471580D02*
X140638305Y-77471580D01*
X140638305Y-77471580D02*
X140876400Y-77471580D01*
X140876400Y-77471580D02*
X141019257Y-77423961D01*
X141019257Y-77423961D02*
X141114495Y-77328723D01*
X141114495Y-77328723D02*
X141162114Y-77233485D01*
X141162114Y-77233485D02*
X141209733Y-77043009D01*
X141209733Y-77043009D02*
X141209733Y-76900152D01*
X141209733Y-76900152D02*
X141162114Y-76709676D01*
X141162114Y-76709676D02*
X141114495Y-76614438D01*
X141114495Y-76614438D02*
X141019257Y-76519200D01*
X141019257Y-76519200D02*
X140876400Y-76471580D01*
X140876400Y-76471580D02*
X140638305Y-76471580D01*
X142066876Y-77471580D02*
X141876400Y-77471580D01*
X141876400Y-77471580D02*
X141781162Y-77423961D01*
X141781162Y-77423961D02*
X141733543Y-77376342D01*
X141733543Y-77376342D02*
X141638305Y-77233485D01*
X141638305Y-77233485D02*
X141590686Y-77043009D01*
X141590686Y-77043009D02*
X141590686Y-76662057D01*
X141590686Y-76662057D02*
X141638305Y-76566819D01*
X141638305Y-76566819D02*
X141685924Y-76519200D01*
X141685924Y-76519200D02*
X141781162Y-76471580D01*
X141781162Y-76471580D02*
X141971638Y-76471580D01*
X141971638Y-76471580D02*
X142066876Y-76519200D01*
X142066876Y-76519200D02*
X142114495Y-76566819D01*
X142114495Y-76566819D02*
X142162114Y-76662057D01*
X142162114Y-76662057D02*
X142162114Y-76900152D01*
X142162114Y-76900152D02*
X142114495Y-76995390D01*
X142114495Y-76995390D02*
X142066876Y-77043009D01*
X142066876Y-77043009D02*
X141971638Y-77090628D01*
X141971638Y-77090628D02*
X141781162Y-77090628D01*
X141781162Y-77090628D02*
X141685924Y-77043009D01*
X141685924Y-77043009D02*
X141638305Y-76995390D01*
X141638305Y-76995390D02*
X141590686Y-76900152D01*
D11*
X138257419Y-75842905D02*
X137257419Y-75842905D01*
X137257419Y-75842905D02*
X137257419Y-76081000D01*
X137257419Y-76081000D02*
X137305038Y-76223857D01*
X137305038Y-76223857D02*
X137400276Y-76319095D01*
X137400276Y-76319095D02*
X137495514Y-76366714D01*
X137495514Y-76366714D02*
X137685990Y-76414333D01*
X137685990Y-76414333D02*
X137828847Y-76414333D01*
X137828847Y-76414333D02*
X138019323Y-76366714D01*
X138019323Y-76366714D02*
X138114561Y-76319095D01*
X138114561Y-76319095D02*
X138209800Y-76223857D01*
X138209800Y-76223857D02*
X138257419Y-76081000D01*
X138257419Y-76081000D02*
X138257419Y-75842905D01*
X137352657Y-76795286D02*
X137305038Y-76842905D01*
X137305038Y-76842905D02*
X137257419Y-76938143D01*
X137257419Y-76938143D02*
X137257419Y-77176238D01*
X137257419Y-77176238D02*
X137305038Y-77271476D01*
X137305038Y-77271476D02*
X137352657Y-77319095D01*
X137352657Y-77319095D02*
X137447895Y-77366714D01*
X137447895Y-77366714D02*
X137543133Y-77366714D01*
X137543133Y-77366714D02*
X137685990Y-77319095D01*
X137685990Y-77319095D02*
X138257419Y-76747667D01*
X138257419Y-76747667D02*
X138257419Y-77366714D01*
X134824694Y-73929419D02*
X134824694Y-72929419D01*
X134824694Y-72929419D02*
X134586599Y-72929419D01*
X134586599Y-72929419D02*
X134443742Y-72977038D01*
X134443742Y-72977038D02*
X134348504Y-73072276D01*
X134348504Y-73072276D02*
X134300885Y-73167514D01*
X134300885Y-73167514D02*
X134253266Y-73357990D01*
X134253266Y-73357990D02*
X134253266Y-73500847D01*
X134253266Y-73500847D02*
X134300885Y-73691323D01*
X134300885Y-73691323D02*
X134348504Y-73786561D01*
X134348504Y-73786561D02*
X134443742Y-73881800D01*
X134443742Y-73881800D02*
X134586599Y-73929419D01*
X134586599Y-73929419D02*
X134824694Y-73929419D01*
X133300885Y-73929419D02*
X133872313Y-73929419D01*
X133586599Y-73929419D02*
X133586599Y-72929419D01*
X133586599Y-72929419D02*
X133681837Y-73072276D01*
X133681837Y-73072276D02*
X133777075Y-73167514D01*
X133777075Y-73167514D02*
X133872313Y-73215133D01*
X135459694Y-80777219D02*
X135459694Y-79777219D01*
X135459694Y-79777219D02*
X135221599Y-79777219D01*
X135221599Y-79777219D02*
X135078742Y-79824838D01*
X135078742Y-79824838D02*
X134983504Y-79920076D01*
X134983504Y-79920076D02*
X134935885Y-80015314D01*
X134935885Y-80015314D02*
X134888266Y-80205790D01*
X134888266Y-80205790D02*
X134888266Y-80348647D01*
X134888266Y-80348647D02*
X134935885Y-80539123D01*
X134935885Y-80539123D02*
X134983504Y-80634361D01*
X134983504Y-80634361D02*
X135078742Y-80729600D01*
X135078742Y-80729600D02*
X135221599Y-80777219D01*
X135221599Y-80777219D02*
X135459694Y-80777219D01*
X134554932Y-79777219D02*
X133935885Y-79777219D01*
X133935885Y-79777219D02*
X134269218Y-80158171D01*
X134269218Y-80158171D02*
X134126361Y-80158171D01*
X134126361Y-80158171D02*
X134031123Y-80205790D01*
X134031123Y-80205790D02*
X133983504Y-80253409D01*
X133983504Y-80253409D02*
X133935885Y-80348647D01*
X133935885Y-80348647D02*
X133935885Y-80586742D01*
X133935885Y-80586742D02*
X133983504Y-80681980D01*
X133983504Y-80681980D02*
X134031123Y-80729600D01*
X134031123Y-80729600D02*
X134126361Y-80777219D01*
X134126361Y-80777219D02*
X134412075Y-80777219D01*
X134412075Y-80777219D02*
X134507313Y-80729600D01*
X134507313Y-80729600D02*
X134554932Y-80681980D01*
D10*
X134823419Y-83183505D02*
X133823419Y-83183505D01*
X133823419Y-83183505D02*
X133823419Y-83421600D01*
X133823419Y-83421600D02*
X133871038Y-83564457D01*
X133871038Y-83564457D02*
X133966276Y-83659695D01*
X133966276Y-83659695D02*
X134061514Y-83707314D01*
X134061514Y-83707314D02*
X134251990Y-83754933D01*
X134251990Y-83754933D02*
X134394847Y-83754933D01*
X134394847Y-83754933D02*
X134585323Y-83707314D01*
X134585323Y-83707314D02*
X134680561Y-83659695D01*
X134680561Y-83659695D02*
X134775800Y-83564457D01*
X134775800Y-83564457D02*
X134823419Y-83421600D01*
X134823419Y-83421600D02*
X134823419Y-83183505D01*
X133823419Y-84088267D02*
X133823419Y-84754933D01*
X133823419Y-84754933D02*
X134823419Y-84326362D01*
X133951780Y-70664294D02*
X134951780Y-70664294D01*
X134951780Y-70664294D02*
X134951780Y-70426199D01*
X134951780Y-70426199D02*
X134904161Y-70283342D01*
X134904161Y-70283342D02*
X134808923Y-70188104D01*
X134808923Y-70188104D02*
X134713685Y-70140485D01*
X134713685Y-70140485D02*
X134523209Y-70092866D01*
X134523209Y-70092866D02*
X134380352Y-70092866D01*
X134380352Y-70092866D02*
X134189876Y-70140485D01*
X134189876Y-70140485D02*
X134094638Y-70188104D01*
X134094638Y-70188104D02*
X133999400Y-70283342D01*
X133999400Y-70283342D02*
X133951780Y-70426199D01*
X133951780Y-70426199D02*
X133951780Y-70664294D01*
X134951780Y-69188104D02*
X134951780Y-69664294D01*
X134951780Y-69664294D02*
X134475590Y-69711913D01*
X134475590Y-69711913D02*
X134523209Y-69664294D01*
X134523209Y-69664294D02*
X134570828Y-69569056D01*
X134570828Y-69569056D02*
X134570828Y-69330961D01*
X134570828Y-69330961D02*
X134523209Y-69235723D01*
X134523209Y-69235723D02*
X134475590Y-69188104D01*
X134475590Y-69188104D02*
X134380352Y-69140485D01*
X134380352Y-69140485D02*
X134142257Y-69140485D01*
X134142257Y-69140485D02*
X134047019Y-69188104D01*
X134047019Y-69188104D02*
X133999400Y-69235723D01*
X133999400Y-69235723D02*
X133951780Y-69330961D01*
X133951780Y-69330961D02*
X133951780Y-69569056D01*
X133951780Y-69569056D02*
X133999400Y-69664294D01*
X133999400Y-69664294D02*
X134047019Y-69711913D01*
D11*
X131409619Y-76503305D02*
X130409619Y-76503305D01*
X130409619Y-76503305D02*
X130409619Y-76741400D01*
X130409619Y-76741400D02*
X130457238Y-76884257D01*
X130457238Y-76884257D02*
X130552476Y-76979495D01*
X130552476Y-76979495D02*
X130647714Y-77027114D01*
X130647714Y-77027114D02*
X130838190Y-77074733D01*
X130838190Y-77074733D02*
X130981047Y-77074733D01*
X130981047Y-77074733D02*
X131171523Y-77027114D01*
X131171523Y-77027114D02*
X131266761Y-76979495D01*
X131266761Y-76979495D02*
X131362000Y-76884257D01*
X131362000Y-76884257D02*
X131409619Y-76741400D01*
X131409619Y-76741400D02*
X131409619Y-76503305D01*
X130742952Y-77931876D02*
X131409619Y-77931876D01*
X130362000Y-77693781D02*
X131076285Y-77455686D01*
X131076285Y-77455686D02*
X131076285Y-78074733D01*
D10*
%TO.C,D8*%
X124841000Y-73791200D02*
X124841000Y-75061200D01*
X129921000Y-73791200D02*
X124841000Y-73791200D01*
X129921000Y-75061200D02*
X129921000Y-73791200D01*
%TO.C,D6*%
X138836400Y-78779000D02*
X138836400Y-80049000D01*
X138836400Y-80049000D02*
X143916400Y-80049000D01*
X143916400Y-80049000D02*
X143916400Y-78779000D01*
D12*
%TO.C,D2*%
X135637600Y-75781000D02*
X135637600Y-78066000D01*
X135637600Y-78066000D02*
X137107600Y-78066000D01*
X137107600Y-78066000D02*
X137107600Y-75781000D01*
%TO.C,D1*%
X133286600Y-75639600D02*
X135571600Y-75639600D01*
X135571600Y-74169600D02*
X133286600Y-74169600D01*
X135571600Y-75639600D02*
X135571600Y-74169600D01*
%TO.C,D3*%
X133236600Y-78157400D02*
X133236600Y-79627400D01*
X133236600Y-79627400D02*
X135521600Y-79627400D01*
X135521600Y-78157400D02*
X133236600Y-78157400D01*
D10*
%TO.C,D7*%
X131246000Y-81381600D02*
X131246000Y-86461600D01*
X131246000Y-86461600D02*
X132516000Y-86461600D01*
X132516000Y-81381600D02*
X131246000Y-81381600D01*
%TO.C,D5*%
X136259200Y-72466200D02*
X137529200Y-72466200D01*
X137529200Y-67386200D02*
X136259200Y-67386200D01*
X137529200Y-72466200D02*
X137529200Y-67386200D01*
D12*
%TO.C,D4*%
X131649800Y-75756400D02*
X131649800Y-78041400D01*
X133119800Y-75756400D02*
X131649800Y-75756400D01*
X133119800Y-78041400D02*
X133119800Y-75756400D01*
%TD*%
M02*
