M48
; DRILL file {KiCad 8.0.1} date 2024-09-05T15:24:01+0200
; FORMAT={-:-/ absolute / inch / decimal}
; #@! TF.CreationDate,2024-09-05T15:24:01+02:00
; #@! TF.GenerationSoftware,Kicad,Pcbnew,8.0.1
; #@! TF.FileFunction,Plated,1,4,PTH
FMAT,2
INCH
; #@! TA.AperFunction,Plated,PTH,ViaDrill
T1C0.0118
; #@! TA.AperFunction,Plated,PTH,ComponentDrill
T2C0.0390
; #@! TA.AperFunction,Plated,PTH,ComponentDrill
T3C0.0591
%
G90
G05
T1
X5.783Y-4.729
X5.835Y-4.448
X5.837Y-4.697
X5.85Y-4.617
X5.875Y-4.88
X5.8824Y-4.462
X5.911Y-4.953
X5.959Y-4.698
X5.987Y-4.757
X6.008Y-4.976
X6.014Y-4.455
X6.0241Y-4.0551
X6.027Y-4.25
X6.028Y-4.489
X6.097Y-4.371
X6.113Y-4.924
X6.122Y-4.785
X6.1455Y-4.8235
X6.152Y-4.268
X6.1778Y-4.7506
X6.21Y-4.786
X6.216Y-4.21
X6.2288Y-4.2932
X6.232Y-4.977
X6.247Y-4.712
X6.274Y-4.183
X6.343Y-4.3336
X6.349Y-4.933
X6.373Y-4.675
X6.379Y-4.221
X6.412Y-4.785
X6.422Y-4.849
X6.472Y-3.956
X6.473Y-4.044
X6.495Y-5.128
X6.535Y-4.89
X6.566Y-4.42
X6.583Y-4.748
X6.621Y-4.547
X6.647Y-4.3563
X6.65Y-4.325
X6.665Y-5.128
X6.725Y-4.782
X6.757Y-4.48
X6.777Y-4.251
X6.78Y-4.148
X6.781Y-4.32
X6.781Y-4.714
X6.794Y-3.958
X6.833Y-4.824
X6.844Y-4.505
X6.859Y-3.889
X6.89Y-4.373
X6.927Y-4.364
X7.001Y-4.363
T2
X6.502Y-4.1067
X6.542Y-3.9067
X6.582Y-4.1067
T3
X5.776Y-3.7209
X5.926Y-3.7209
X6.076Y-3.7209
X6.226Y-3.7209
M30
