%TF.GenerationSoftware,KiCad,Pcbnew,8.0.1*%
%TF.CreationDate,2024-09-05T15:23:59+02:00*%
%TF.ProjectId,TEP000,54455030-3030-42e6-9b69-6361645f7063,rev?*%
%TF.SameCoordinates,Original*%
%TF.FileFunction,Legend,Bot*%
%TF.FilePolarity,Positive*%
%FSLAX46Y46*%
G04 Gerber Fmt 4.6, Leading zero omitted, Abs format (unit mm)*
G04 Created by KiCad (PCBNEW 8.0.1) date 2024-09-05 15:23:59*
%MOMM*%
%LPD*%
G01*
G04 APERTURE LIST*
%ADD10C,0.100000*%
%ADD11C,0.150000*%
%ADD12C,0.120000*%
G04 APERTURE END LIST*
D10*
X162002694Y-113563619D02*
X162002694Y-112563619D01*
X162002694Y-112563619D02*
X161764599Y-112563619D01*
X161764599Y-112563619D02*
X161621742Y-112611238D01*
X161621742Y-112611238D02*
X161526504Y-112706476D01*
X161526504Y-112706476D02*
X161478885Y-112801714D01*
X161478885Y-112801714D02*
X161431266Y-112992190D01*
X161431266Y-112992190D02*
X161431266Y-113135047D01*
X161431266Y-113135047D02*
X161478885Y-113325523D01*
X161478885Y-113325523D02*
X161526504Y-113420761D01*
X161526504Y-113420761D02*
X161621742Y-113516000D01*
X161621742Y-113516000D02*
X161764599Y-113563619D01*
X161764599Y-113563619D02*
X162002694Y-113563619D01*
X160526504Y-112563619D02*
X161002694Y-112563619D01*
X161002694Y-112563619D02*
X161050313Y-113039809D01*
X161050313Y-113039809D02*
X161002694Y-112992190D01*
X161002694Y-112992190D02*
X160907456Y-112944571D01*
X160907456Y-112944571D02*
X160669361Y-112944571D01*
X160669361Y-112944571D02*
X160574123Y-112992190D01*
X160574123Y-112992190D02*
X160526504Y-113039809D01*
X160526504Y-113039809D02*
X160478885Y-113135047D01*
X160478885Y-113135047D02*
X160478885Y-113373142D01*
X160478885Y-113373142D02*
X160526504Y-113468380D01*
X160526504Y-113468380D02*
X160574123Y-113516000D01*
X160574123Y-113516000D02*
X160669361Y-113563619D01*
X160669361Y-113563619D02*
X160907456Y-113563619D01*
X160907456Y-113563619D02*
X161002694Y-113516000D01*
X161002694Y-113516000D02*
X161050313Y-113468380D01*
D11*
X161824894Y-121823619D02*
X161824894Y-120823619D01*
X161824894Y-120823619D02*
X161586799Y-120823619D01*
X161586799Y-120823619D02*
X161443942Y-120871238D01*
X161443942Y-120871238D02*
X161348704Y-120966476D01*
X161348704Y-120966476D02*
X161301085Y-121061714D01*
X161301085Y-121061714D02*
X161253466Y-121252190D01*
X161253466Y-121252190D02*
X161253466Y-121395047D01*
X161253466Y-121395047D02*
X161301085Y-121585523D01*
X161301085Y-121585523D02*
X161348704Y-121680761D01*
X161348704Y-121680761D02*
X161443942Y-121776000D01*
X161443942Y-121776000D02*
X161586799Y-121823619D01*
X161586799Y-121823619D02*
X161824894Y-121823619D01*
X160396323Y-121156952D02*
X160396323Y-121823619D01*
X160634418Y-120776000D02*
X160872513Y-121490285D01*
X160872513Y-121490285D02*
X160253466Y-121490285D01*
X169931219Y-112444305D02*
X168931219Y-112444305D01*
X168931219Y-112444305D02*
X168931219Y-112682400D01*
X168931219Y-112682400D02*
X168978838Y-112825257D01*
X168978838Y-112825257D02*
X169074076Y-112920495D01*
X169074076Y-112920495D02*
X169169314Y-112968114D01*
X169169314Y-112968114D02*
X169359790Y-113015733D01*
X169359790Y-113015733D02*
X169502647Y-113015733D01*
X169502647Y-113015733D02*
X169693123Y-112968114D01*
X169693123Y-112968114D02*
X169788361Y-112920495D01*
X169788361Y-112920495D02*
X169883600Y-112825257D01*
X169883600Y-112825257D02*
X169931219Y-112682400D01*
X169931219Y-112682400D02*
X169931219Y-112444305D01*
X168931219Y-113349067D02*
X168931219Y-113968114D01*
X168931219Y-113968114D02*
X169312171Y-113634781D01*
X169312171Y-113634781D02*
X169312171Y-113777638D01*
X169312171Y-113777638D02*
X169359790Y-113872876D01*
X169359790Y-113872876D02*
X169407409Y-113920495D01*
X169407409Y-113920495D02*
X169502647Y-113968114D01*
X169502647Y-113968114D02*
X169740742Y-113968114D01*
X169740742Y-113968114D02*
X169835980Y-113920495D01*
X169835980Y-113920495D02*
X169883600Y-113872876D01*
X169883600Y-113872876D02*
X169931219Y-113777638D01*
X169931219Y-113777638D02*
X169931219Y-113491924D01*
X169931219Y-113491924D02*
X169883600Y-113396686D01*
X169883600Y-113396686D02*
X169835980Y-113349067D01*
X161977294Y-105273019D02*
X161977294Y-104273019D01*
X161977294Y-104273019D02*
X161739199Y-104273019D01*
X161739199Y-104273019D02*
X161596342Y-104320638D01*
X161596342Y-104320638D02*
X161501104Y-104415876D01*
X161501104Y-104415876D02*
X161453485Y-104511114D01*
X161453485Y-104511114D02*
X161405866Y-104701590D01*
X161405866Y-104701590D02*
X161405866Y-104844447D01*
X161405866Y-104844447D02*
X161453485Y-105034923D01*
X161453485Y-105034923D02*
X161501104Y-105130161D01*
X161501104Y-105130161D02*
X161596342Y-105225400D01*
X161596342Y-105225400D02*
X161739199Y-105273019D01*
X161739199Y-105273019D02*
X161977294Y-105273019D01*
X161024913Y-104368257D02*
X160977294Y-104320638D01*
X160977294Y-104320638D02*
X160882056Y-104273019D01*
X160882056Y-104273019D02*
X160643961Y-104273019D01*
X160643961Y-104273019D02*
X160548723Y-104320638D01*
X160548723Y-104320638D02*
X160501104Y-104368257D01*
X160501104Y-104368257D02*
X160453485Y-104463495D01*
X160453485Y-104463495D02*
X160453485Y-104558733D01*
X160453485Y-104558733D02*
X160501104Y-104701590D01*
X160501104Y-104701590D02*
X161072532Y-105273019D01*
X161072532Y-105273019D02*
X160453485Y-105273019D01*
X153329819Y-112266505D02*
X152329819Y-112266505D01*
X152329819Y-112266505D02*
X152329819Y-112504600D01*
X152329819Y-112504600D02*
X152377438Y-112647457D01*
X152377438Y-112647457D02*
X152472676Y-112742695D01*
X152472676Y-112742695D02*
X152567914Y-112790314D01*
X152567914Y-112790314D02*
X152758390Y-112837933D01*
X152758390Y-112837933D02*
X152901247Y-112837933D01*
X152901247Y-112837933D02*
X153091723Y-112790314D01*
X153091723Y-112790314D02*
X153186961Y-112742695D01*
X153186961Y-112742695D02*
X153282200Y-112647457D01*
X153282200Y-112647457D02*
X153329819Y-112504600D01*
X153329819Y-112504600D02*
X153329819Y-112266505D01*
X153329819Y-113790314D02*
X153329819Y-113218886D01*
X153329819Y-113504600D02*
X152329819Y-113504600D01*
X152329819Y-113504600D02*
X152472676Y-113409362D01*
X152472676Y-113409362D02*
X152567914Y-113314124D01*
X152567914Y-113314124D02*
X152615533Y-113218886D01*
D10*
%TO.C,D5*%
X158724600Y-109986200D02*
X158724600Y-111256200D01*
X163804600Y-111256200D02*
X163804600Y-109986200D01*
X163804600Y-109986200D02*
X158724600Y-109986200D01*
D12*
%TO.C,D4*%
X159601800Y-119203800D02*
X159601800Y-120673800D01*
X161886800Y-119203800D02*
X159601800Y-119203800D01*
X159601800Y-120673800D02*
X161886800Y-120673800D01*
%TO.C,D3*%
X167311400Y-114667400D02*
X168781400Y-114667400D01*
X167311400Y-112382400D02*
X167311400Y-114667400D01*
X168781400Y-114667400D02*
X168781400Y-112382400D01*
%TO.C,D2*%
X162724200Y-106983200D02*
X162724200Y-105513200D01*
X160439200Y-106983200D02*
X162724200Y-106983200D01*
X162724200Y-105513200D02*
X160439200Y-105513200D01*
%TO.C,D1*%
X155040000Y-111519600D02*
X153570000Y-111519600D01*
X155040000Y-113804600D02*
X155040000Y-111519600D01*
X153570000Y-111519600D02*
X153570000Y-113804600D01*
%TD*%
M02*
