%TF.GenerationSoftware,KiCad,Pcbnew,8.0.1*%
%TF.CreationDate,2024-08-07T16:32:43+02:00*%
%TF.ProjectId,TEP000,54455030-3030-42e6-9b69-6361645f7063,rev?*%
%TF.SameCoordinates,Original*%
%TF.FileFunction,Soldermask,Top*%
%TF.FilePolarity,Negative*%
%FSLAX46Y46*%
G04 Gerber Fmt 4.6, Leading zero omitted, Abs format (unit mm)*
G04 Created by KiCad (PCBNEW 8.0.1) date 2024-08-07 16:32:43*
%MOMM*%
%LPD*%
G01*
G04 APERTURE LIST*
G04 Aperture macros list*
%AMRoundRect*
0 Rectangle with rounded corners*
0 $1 Rounding radius*
0 $2 $3 $4 $5 $6 $7 $8 $9 X,Y pos of 4 corners*
0 Add a 4 corners polygon primitive as box body*
4,1,4,$2,$3,$4,$5,$6,$7,$8,$9,$2,$3,0*
0 Add four circle primitives for the rounded corners*
1,1,$1+$1,$2,$3*
1,1,$1+$1,$4,$5*
1,1,$1+$1,$6,$7*
1,1,$1+$1,$8,$9*
0 Add four rect primitives between the rounded corners*
20,1,$1+$1,$2,$3,$4,$5,0*
20,1,$1+$1,$4,$5,$6,$7,0*
20,1,$1+$1,$6,$7,$8,$9,0*
20,1,$1+$1,$8,$9,$2,$3,0*%
%AMFreePoly0*
4,1,13,0.900000,0.500000,2.600000,0.500000,2.600000,-0.500000,0.900000,-0.500000,0.400000,-1.000000,-0.400000,-1.000000,-0.900000,-0.500000,-2.600000,-0.500000,-2.600000,0.500000,-0.900000,0.500000,-0.400000,1.000000,0.400000,1.000000,0.900000,0.500000,0.900000,0.500000,$1*%
G04 Aperture macros list end*
%ADD10RoundRect,0.200100X0.949900X-0.949900X0.949900X0.949900X-0.949900X0.949900X-0.949900X-0.949900X0*%
%ADD11C,2.500000*%
%ADD12RoundRect,0.250000X0.450000X-0.262500X0.450000X0.262500X-0.450000X0.262500X-0.450000X-0.262500X0*%
%ADD13RoundRect,0.250000X0.262500X0.450000X-0.262500X0.450000X-0.262500X-0.450000X0.262500X-0.450000X0*%
%ADD14RoundRect,0.150000X-0.512500X-0.150000X0.512500X-0.150000X0.512500X0.150000X-0.512500X0.150000X0*%
%ADD15RoundRect,0.250000X0.475000X-0.250000X0.475000X0.250000X-0.475000X0.250000X-0.475000X-0.250000X0*%
%ADD16RoundRect,0.250000X0.250000X0.475000X-0.250000X0.475000X-0.250000X-0.475000X0.250000X-0.475000X0*%
%ADD17RoundRect,0.175000X-0.575000X-0.175000X0.575000X-0.175000X0.575000X0.175000X-0.575000X0.175000X0*%
%ADD18FreePoly0,0.000000*%
%ADD19RoundRect,0.150000X-0.725000X-0.150000X0.725000X-0.150000X0.725000X0.150000X-0.725000X0.150000X0*%
%ADD20RoundRect,0.250000X-0.475000X0.250000X-0.475000X-0.250000X0.475000X-0.250000X0.475000X0.250000X0*%
%ADD21RoundRect,0.200000X-0.200000X0.750000X-0.200000X-0.750000X0.200000X-0.750000X0.200000X0.750000X0*%
%ADD22RoundRect,0.250000X0.337500X0.475000X-0.337500X0.475000X-0.337500X-0.475000X0.337500X-0.475000X0*%
%ADD23RoundRect,0.250000X-0.337500X-0.475000X0.337500X-0.475000X0.337500X0.475000X-0.337500X0.475000X0*%
%ADD24RoundRect,0.750000X-0.750000X-0.750000X0.750000X-0.750000X0.750000X0.750000X-0.750000X0.750000X0*%
%ADD25C,3.000000*%
G04 APERTURE END LIST*
D10*
%TO.C,J1*%
X127254000Y-60426600D03*
D11*
X124714000Y-62966600D03*
X129794000Y-62966600D03*
X124714000Y-57886600D03*
X129794000Y-57886600D03*
%TD*%
D12*
%TO.C,R2*%
X141249400Y-90599900D03*
X141249400Y-88774900D03*
%TD*%
D13*
%TO.C,R8*%
X154110100Y-71374000D03*
X152285100Y-71374000D03*
%TD*%
D14*
%TO.C,U1*%
X120929400Y-77627400D03*
X120929400Y-78577400D03*
X120929400Y-79527400D03*
X123204400Y-79527400D03*
X123204400Y-77627400D03*
%TD*%
D15*
%TO.C,C5*%
X142631200Y-67040800D03*
X142631200Y-65140800D03*
%TD*%
D12*
%TO.C,R3*%
X137947400Y-90599900D03*
X137947400Y-88774900D03*
%TD*%
D16*
%TO.C,C2*%
X124739500Y-83612800D03*
X122839500Y-83612800D03*
%TD*%
D17*
%TO.C,U3*%
X146816200Y-81798700D03*
D18*
X148666200Y-83298700D03*
D17*
X146816200Y-84798700D03*
X150516200Y-84798700D03*
X150516200Y-81798700D03*
%TD*%
D19*
%TO.C,U2*%
X145034600Y-66700400D03*
X145034600Y-67970400D03*
X145034600Y-69240400D03*
X145034600Y-70510400D03*
X150184600Y-70510400D03*
X150184600Y-69240400D03*
X150184600Y-67970400D03*
X150184600Y-66700400D03*
%TD*%
D15*
%TO.C,C8*%
X142216400Y-75000400D03*
X142216400Y-73100400D03*
%TD*%
D20*
%TO.C,C1*%
X118861900Y-78573400D03*
X118861900Y-80473400D03*
%TD*%
D21*
%TO.C,U4*%
X146187200Y-72845800D03*
X144287200Y-72845800D03*
X145237200Y-75845800D03*
%TD*%
D15*
%TO.C,C6*%
X144622200Y-85048300D03*
X144622200Y-83148300D03*
%TD*%
D20*
%TO.C,C9*%
X152674000Y-81471900D03*
X152674000Y-83371900D03*
%TD*%
D22*
%TO.C,FB1*%
X136952900Y-65201800D03*
X134877900Y-65201800D03*
%TD*%
D13*
%TO.C,R6*%
X121146000Y-83612800D03*
X119321000Y-83612800D03*
%TD*%
D16*
%TO.C,C7*%
X150388400Y-72567800D03*
X148488400Y-72567800D03*
%TD*%
D13*
%TO.C,R5*%
X124702000Y-81555400D03*
X122877000Y-81555400D03*
%TD*%
D23*
%TO.C,FB2*%
X152236300Y-73583800D03*
X154311300Y-73583800D03*
%TD*%
D12*
%TO.C,R1*%
X134518400Y-90599900D03*
X134518400Y-88774900D03*
%TD*%
D20*
%TO.C,C10*%
X148310600Y-74538800D03*
X148310600Y-76438800D03*
%TD*%
%TO.C,C4*%
X142631200Y-68671400D03*
X142631200Y-70571400D03*
%TD*%
D15*
%TO.C,C11*%
X138963400Y-66863000D03*
X138963400Y-64963000D03*
%TD*%
D12*
%TO.C,R4*%
X131165600Y-90599900D03*
X131165600Y-88774900D03*
%TD*%
D24*
%TO.C,J2*%
X135966200Y-60350400D03*
D25*
X139776200Y-60350400D03*
X143586200Y-60350400D03*
%TD*%
D16*
%TO.C,C3*%
X123596500Y-75586400D03*
X121696500Y-75586400D03*
%TD*%
D13*
%TO.C,R7*%
X154135500Y-69240400D03*
X152310500Y-69240400D03*
%TD*%
M02*
